<svg width="261" height="261" viewBox="0 0 261 261" fill="none" xmlns="http://www.w3.org/2000/svg" class="rotate-svg">
<path d="M111.015 152.012C113.82 153.547 116.397 153.507 118.825 151.767C119.815 151.057 120.403 151.28 121.046 152.088C121.857 153.107 120.919 153.479 120.327 153.889C117.321 155.968 114.132 156.14 110.817 154.698C110.53 154.573 110.257 154.297 109.979 154.299C109.39 154.303 108.801 154.445 108.212 154.53C108.342 155.07 108.413 155.635 108.624 156.142C108.755 156.458 109.267 156.665 109.307 156.961C109.384 157.525 109.437 158.275 109.133 158.647C108.896 158.935 108.051 158.917 107.567 158.759C107.116 158.611 106.835 157.984 106.383 157.782C106.003 157.612 105.24 157.576 105.084 157.793C104.837 158.136 104.729 158.946 104.959 159.202C106.176 160.557 107.466 161.859 108.832 163.065C109.832 163.947 109.947 164.553 108.911 165.554C105.12 169.215 101.418 172.967 97.6843 176.686C97.0841 177.284 96.5728 177.964 95.6344 177.041C94.6683 176.091 95.2693 175.529 95.9423 174.858C99.121 171.691 102.265 168.489 105.464 165.343C106.223 164.596 106.374 164.042 105.476 163.326C104.867 162.841 104.34 162.251 103.787 161.698C102.513 160.424 101.308 160.52 100.602 162.184C100.393 162.677 100.936 163.689 101.408 164.22C102.096 164.995 102.352 165.669 101.445 166.275C101.077 166.521 100.231 166.541 99.9043 166.283C97.7865 164.611 97.8137 164.577 95.5489 167.526C96.0538 167.818 96.674 168.116 97.2265 168.51C98.0523 169.098 97.9949 169.703 97.2828 170.435C96.5537 171.185 96.0164 171.133 95.3417 170.403C93.5544 168.466 93.6963 169.116 92.2142 170.451C91.559 171.041 91.0656 172.51 89.751 171.246C89.156 170.673 89.031 170.123 89.7031 169.53C89.8596 169.392 90.01 169.247 90.1579 169.1C91.3639 167.9 91.4071 166.66 90.2873 165.378C89.0364 163.958 90.7799 163.738 91.2336 162.755C91.9583 163.374 92.6049 163.866 93.1801 164.431C94.3038 165.533 94.8123 164.384 95.4551 163.829C96.1198 163.254 96.4606 162.618 95.5709 161.902C95.1675 161.577 94.6323 161.229 94.5104 160.792C94.3759 160.311 94.4852 159.576 94.7965 159.22C95.0143 158.972 95.8665 158.991 96.2291 159.218C96.9145 159.648 97.4514 160.314 98.1085 160.937C98.5475 160.591 98.9013 160.299 99.268 160.024C100.455 159.136 100.489 158.306 99.3782 157.235C98.4855 156.374 97.8254 155.272 96.984 154.176C95.9689 155.076 95.4533 155.488 94.9908 155.952C91.9714 158.982 88.9528 162.013 85.9601 165.07C85.2925 165.752 84.7433 166.129 83.8687 165.324C82.9554 164.483 83.3934 163.926 84.0552 163.271C87.8722 159.489 91.6897 155.707 95.4698 151.888C96.2673 151.082 96.8508 151.003 97.6461 151.88C98.8718 153.231 100.186 154.504 101.474 155.798C101.954 156.281 102.423 156.836 103.159 156.087C103.838 155.394 103.404 154.951 102.97 154.36C102.446 153.646 100.914 153.202 102.136 151.869C102.828 151.115 103.488 150.938 104.213 151.807C104.412 152.047 104.606 152.36 104.871 152.463C105.367 152.655 105.913 152.719 106.438 152.836C106.526 152.244 106.891 151.489 106.655 151.088C105.178 148.576 105.008 145.945 105.765 143.233C106.039 142.251 106.533 141.282 107.134 140.459C107.413 140.077 108.3 139.775 108.716 139.937C109.518 140.249 109.647 140.93 109.273 141.868C108.667 143.388 108.128 144.994 107.958 146.606C107.85 147.633 108.458 148.736 108.813 150.058C109.456 149.577 109.807 149.372 110.087 149.097C113.287 145.951 116.456 142.774 119.682 139.654C120.46 138.902 120.534 138.329 119.975 137.373C119.275 136.175 118.729 134.852 118.342 133.517C118.075 132.595 117.699 132.215 116.747 132.218C105.938 132.246 95.1289 132.267 84.3197 132.245C82.9219 132.242 82.5706 132.802 82.5927 134.123C82.665 138.45 82.5753 142.779 82.6437 147.107C82.6643 148.41 82.236 148.842 80.9468 148.803C78.4007 148.727 75.8507 148.781 73.346 148.781C72.7119 146.445 72.8952 146.199 75.1239 146.195C76.325 146.193 77.5273 146.16 78.7268 146.204C79.6381 146.237 80.0163 145.913 80.0839 144.959C80.3951 140.573 80.4195 140.581 76.014 140.489C75.0889 140.469 74.1651 140.385 73.2793 140.333C72.8548 138.127 72.9675 137.977 74.9331 137.962C76.2384 137.952 77.5438 137.942 78.8492 137.938C79.6661 137.935 80.0094 137.596 80.0739 136.719C80.4005 132.273 80.4265 132.275 76.0042 132.227C75.482 132.221 74.9569 132.189 74.4382 132.231C73.4562 132.311 73.0464 131.958 73.0352 130.91C73.0232 129.784 73.5756 129.623 74.4942 129.649C75.903 129.69 77.3141 129.64 78.7238 129.658C79.6131 129.67 80.0087 129.342 80.0698 128.382C80.3521 123.951 80.3787 123.953 75.9899 123.953C75.4677 123.953 74.9444 123.931 74.4235 123.957C73.5508 124 73.08 123.743 73.0572 122.736C73.0339 121.703 73.4233 121.331 74.4153 121.35C75.8767 121.378 77.3396 121.321 78.8014 121.34C79.7306 121.352 80.1358 120.975 80.0683 120.022C80.0095 119.192 79.9531 118.341 80.0668 117.523C80.2903 115.914 79.5345 115.519 78.097 115.613C76.7973 115.699 75.486 115.593 74.1821 115.637C73.2615 115.668 72.9981 115.198 73 114.395C73.0019 113.61 73.2211 113.12 74.1582 113.132C76.5598 113.162 78.9627 113.151 81.3642 113.108C82.4735 113.088 82.6308 113.708 82.6272 114.61C82.6098 118.99 82.6654 123.371 82.6 127.75C82.5791 129.151 82.9899 129.664 84.4624 129.661C94.957 129.637 105.452 129.677 115.946 129.741C117.314 129.749 118.133 129.486 118.448 127.927C118.698 126.693 119.548 125.591 120 124.381C120.181 123.898 120.245 123.052 119.961 122.763C115.466 118.185 110.906 113.669 106.354 109.145C106.255 109.047 106.076 109.029 105.943 108.978C104.244 110.748 104.173 113.863 105.693 116.356C105.988 116.839 106.34 117.567 106.177 117.996C105.685 119.292 104.648 119.369 103.86 118.215C101.822 115.23 101.513 112.044 102.911 108.705C103.092 108.274 103.531 107.835 103.479 107.449C103.391 106.794 103.075 106.131 102.691 105.587C102.617 105.484 101.66 105.785 101.327 106.116C98.9946 108.432 96.6899 110.777 94.4403 113.173C93.5176 114.155 92.8348 114.186 91.8737 113.196C88.2768 109.491 84.6154 105.848 80.9788 102.181C80.7952 101.995 80.4784 101.814 80.4642 101.613C80.4192 100.979 80.4883 100.336 80.5134 99.6963C81.0944 99.7863 81.88 99.6656 82.2245 99.9991C85.3726 103.048 88.4422 106.177 91.5385 109.279C92.5068 110.249 93.4809 110.248 94.4609 109.277C96.2056 107.554 97.9773 105.857 99.6799 104.094C99.9445 103.82 99.9033 103.251 100.003 102.819C99.6002 102.928 99.1537 102.962 98.8058 103.165C98.4579 103.368 98.1852 103.721 97.9211 104.042C97.3649 104.718 96.8713 104.716 96.24 104.086C95.6499 103.496 95.2975 103.051 96.0192 102.272C96.5688 101.679 96.9249 100.907 97.3671 100.214C96.4935 100.26 95.5949 100.19 94.7506 100.372C91.6457 101.04 88.5644 98.9493 87.9247 95.6641C87.3246 92.5822 89.5558 89.5719 92.8567 89.0097C97.0688 88.2923 100.528 92.3519 99.184 96.436C99.0703 96.7816 98.8759 97.1234 98.8633 97.4721C98.8537 97.7395 99.0031 98.1241 99.2095 98.2536C99.3858 98.3643 99.7947 98.2628 100.01 98.1195C100.397 97.8627 100.748 97.5323 101.057 97.182C101.688 96.4652 102.244 96.315 103 97.087C103.802 97.9047 103.588 98.447 102.867 99.1721C102.394 99.6475 102.17 100.369 101.834 100.98C102.463 100.672 103.209 100.491 103.699 100.036C105.717 98.1593 107.658 96.1994 109.803 94.0976C107.767 92.062 105.901 90.1901 104.028 88.3264C102.327 86.6343 100.63 84.9378 98.9041 83.2714C98.3266 82.7139 98.1072 82.2192 98.7361 81.5587C99.3748 80.8879 100.012 80.8765 100.619 81.5329C101.71 82.7119 102.726 83.9626 103.849 85.1093C104.622 85.8985 105.56 86.5236 106.358 87.2909C108.314 89.1711 110.197 91.1273 112.179 92.9792C113.094 93.8344 113.235 94.408 112.222 95.3479C109.89 97.511 107.67 99.7951 105.426 102.052C104.916 102.565 104.044 102.999 104.76 103.979C105.437 104.906 106.151 104.775 107.058 104.272C110.418 102.405 113.739 102.495 116.941 104.685C117.396 104.996 117.774 105.419 118.178 105.781C117.462 107.201 116.642 107.472 115.357 106.671C113.498 105.513 111.455 105.215 109.344 105.934C108.832 106.109 108.384 106.474 107.373 107.063C108.997 108.514 110.435 109.706 111.765 111.009C114.971 114.147 118.154 117.311 121.283 120.526C122.126 121.391 122.733 121.504 123.798 120.829C124.873 120.148 126.157 119.739 127.401 119.4C128.311 119.153 128.779 118.735 128.775 117.816C128.748 111.664 128.71 105.513 128.691 99.361C128.687 98.2861 128.185 97.8565 127.135 97.9489C126.776 97.9805 126.297 98.0439 126.069 97.8556C125.653 97.5115 125.118 96.9834 125.13 96.5459C125.141 96.1455 125.746 95.6269 126.207 95.4127C126.643 95.2099 127.286 95.4633 127.737 95.2757C128.104 95.1232 128.544 94.6158 128.545 94.264C128.546 93.9128 128.11 93.3989 127.745 93.2479C127.294 93.0617 126.648 93.3249 126.217 93.1193C125.79 92.9151 125.353 92.4178 125.228 91.9642C125.016 91.2015 125.362 90.6415 126.287 90.6601C126.756 90.6696 127.294 90.7885 127.677 90.6032C128.092 90.403 128.546 89.9425 128.63 89.5248C128.683 89.2589 128.151 88.7593 127.777 88.5585C127.44 88.378 126.958 88.4092 126.546 88.4401C125.511 88.5178 125.171 88.0282 125.164 87.0481C125.157 86.0119 125.736 85.8251 126.573 85.8623C126.833 85.8739 127.096 85.8419 127.355 85.8637C128.175 85.9328 128.645 85.6784 128.624 84.746C128.602 83.804 128.067 83.6452 127.287 83.6551C125.511 83.6778 123.734 83.6219 121.961 83.681C120.852 83.7178 120.344 83.3839 120.382 82.1823C120.453 79.9422 120.439 77.6973 120.385 75.4563C120.36 74.4555 120.735 74.0129 121.725 74.0076C122.813 74.0017 122.979 74.6357 122.949 75.5444C122.901 77.003 122.951 78.4644 122.93 79.9243C122.917 80.7655 123.251 81.2079 124.134 81.1366C124.185 81.1324 124.238 81.1374 124.29 81.1363C129.559 81.0272 128.531 81.9575 128.676 76.9783C128.693 76.4051 128.71 75.8297 128.68 75.2578C128.628 74.2555 129.232 73.9935 130.063 74.0045C130.878 74.0153 131.269 74.3853 131.238 75.2703C131.185 76.7806 131.253 78.2946 131.228 79.8064C131.211 80.8012 131.625 81.136 132.636 81.1588C136.971 81.2567 136.969 81.2874 136.969 76.9625C136.969 76.3889 137.014 75.8129 136.975 75.2423C136.906 74.2256 137.507 73.9884 138.343 74.0004C139.137 74.0119 139.58 74.2974 139.561 75.2176C139.514 77.5631 139.51 79.9112 139.57 82.2562C139.598 83.3782 139.122 83.7061 138.076 83.6741C136.354 83.6216 134.63 83.671 132.906 83.6609C132.091 83.6562 131.281 83.6132 131.244 84.7677C131.203 85.9964 132.077 85.8655 132.861 85.8624C133.863 85.8583 134.927 85.685 134.806 87.2911C134.747 88.0668 134.502 88.3501 133.712 88.4569C132.801 88.5802 131.28 87.9693 131.249 89.5715C131.22 91.0961 132.724 90.3863 133.527 90.7358C134.072 90.973 134.428 91.6448 134.868 92.1222C134.39 92.474 133.937 92.8751 133.42 93.1559C133.175 93.2886 132.736 93.0789 132.507 93.2211C132.069 93.4935 131.718 93.9064 131.331 94.261C131.734 94.6092 132.098 95.0317 132.556 95.2784C132.842 95.4326 133.272 95.3234 133.637 95.3294C134.632 95.346 134.793 95.976 134.806 96.8053C134.822 97.7342 134.322 98.0009 133.525 97.9466C131.254 97.7919 131.274 98.1082 131.278 100.368C131.291 105.998 131.31 111.63 131.254 117.26C131.242 118.501 131.541 119.094 132.872 119.387C134.16 119.671 135.32 120.498 136.58 120.969C137.061 121.149 137.898 121.241 138.177 120.969C142.994 116.269 147.75 111.507 152.514 106.753C152.618 106.649 152.658 106.483 152.725 106.353C151.308 104.768 147.829 104.532 145.515 106.062C144.186 106.941 143.364 106.789 142.637 105.467C143.946 103.292 147.674 101.909 150.658 102.591C151.712 102.832 152.684 103.408 153.731 103.698C154.341 103.867 155.478 103.989 155.59 103.756C155.901 103.106 156.092 102.125 155.81 101.516C154.832 99.4073 154.321 97.2933 154.9 95.0035C155.048 94.417 155.3 93.8567 155.53 93.2131C156.989 93.9857 157.563 94.9862 157.244 96.4874C156.921 98.0103 157.486 99.3159 158.408 100.829C159.681 99.574 160.873 98.5103 161.895 97.303C162.112 97.0468 161.88 96.1137 161.56 95.7553C160.345 94.3956 159.043 93.1072 157.706 91.8652C156.897 91.1137 156.952 90.5354 157.704 89.802C159.309 88.2361 160.871 86.6253 162.445 85.0264C163.039 84.4224 163.599 83.9746 164.426 84.7452C165.241 85.5045 164.942 86.1384 164.294 86.7239C162.939 87.9468 161.551 89.132 159.976 90.5075C161.522 92.0778 162.634 93.2945 163.866 94.3749C164.085 94.5672 164.953 94.3511 165.263 94.0545C166.648 92.7307 167.939 91.3093 169.221 89.9684C171.363 91.4221 171.369 91.5075 169.753 93.0709C168.816 93.9778 167.898 94.9041 166.953 95.8035C166.343 96.3849 166.29 96.8967 166.948 97.5058C167.79 98.2842 168.594 99.1073 169.369 99.9527C170.034 100.678 170.559 100.557 171.181 99.884C172.207 98.7737 173.296 97.7213 174.351 96.638C174.963 96.0097 175.514 95.9013 176.197 96.6106C176.871 97.3097 176.765 97.8019 176.11 98.4313C174.417 100.058 172.746 101.709 171.12 103.402C170.417 104.135 169.926 104.148 169.203 103.403C167.648 101.801 166.004 100.287 164.308 98.652C163.082 99.963 161.819 101.314 160.45 102.777C161.617 103.878 163.081 104.176 164.678 103.871C166.173 103.586 167.214 104.092 168.041 105.629C166.304 106.637 164.453 106.683 162.631 106.349C161.478 106.137 160.349 105.616 159.302 105.06C158.503 104.636 157.99 104.705 157.393 105.338C156.791 105.977 156.766 106.475 157.281 107.235C159.272 110.174 159.132 114.895 156.965 117.503C156.603 117.938 155.69 118.384 155.278 118.217C154.281 117.814 154.242 116.933 154.846 116.021C156.377 113.705 156.672 111.295 155.302 108.791C155.207 108.616 155.058 108.471 154.799 108.138C153.449 109.43 152.136 110.655 150.858 111.916C147.405 115.324 143.986 118.767 140.509 122.151C139.629 123.008 139.413 123.67 140.156 124.808C140.848 125.868 141.075 127.221 141.636 128.381C141.884 128.893 142.447 129.611 142.878 129.619C146.949 129.694 151.022 129.638 155.095 129.61C155.234 129.609 155.372 129.505 155.502 129.452C155.418 126.943 153.344 124.857 150.313 124.256C149.564 124.108 148.884 124.052 148.888 123.001C148.893 121.877 149.177 121.383 150.45 121.622C154.099 122.308 156.599 124.307 157.924 127.775C158.126 128.303 158.256 128.975 158.652 129.281C159.033 129.575 159.745 129.611 160.25 129.495C160.478 129.443 160.592 128.753 160.694 128.337C160.906 127.483 160.309 126.186 161.932 126.133C162.946 126.101 163.25 126.636 163.26 127.605C163.268 128.33 162.743 129.409 164.039 129.638C165.381 129.875 165.663 128.856 166.006 127.889C167.25 124.376 169.766 122.361 173.41 121.695C174.218 121.547 174.963 121.342 175.098 122.587C175.209 123.621 174.941 124.081 173.842 124.256C170.686 124.757 168.623 126.775 168.402 129.648C171.1 129.648 173.787 129.692 176.468 129.584C176.761 129.573 177.228 128.697 177.255 128.203C177.351 126.383 177.326 124.554 177.287 122.73C177.265 121.717 177.674 121.359 178.682 121.383C180.979 121.437 183.278 121.442 185.575 121.386C186.588 121.361 186.997 121.724 186.977 122.728C186.958 123.681 186.526 123.98 185.603 123.945C184.144 123.888 182.677 124.001 181.219 123.932C180.094 123.878 179.81 124.368 179.773 125.402C179.627 129.585 179.6 129.585 183.794 129.644C184.368 129.652 184.946 129.693 185.517 129.65C186.515 129.574 186.915 129.959 186.911 130.994C186.907 131.984 186.483 132.251 185.583 132.228C184.122 132.19 182.659 132.252 181.197 132.22C180.243 132.2 179.755 132.496 179.776 133.556C179.878 138.71 179.058 137.866 183.975 137.96C184.549 137.971 185.126 137.986 185.697 137.935C186.545 137.86 186.993 138.19 187 139.058C187.006 139.896 186.749 140.456 185.753 140.445C183.299 140.42 180.844 140.422 178.39 140.449C177.32 140.461 177.244 139.763 177.24 138.99C177.233 137.166 177.3 135.337 177.197 133.518C177.172 133.077 176.618 132.312 176.284 132.299C173.687 132.197 171.084 132.243 168.501 132.243C168.325 134.4 170.055 136.675 172.343 137.477C172.981 137.701 173.768 137.714 174.25 138.11C174.725 138.502 174.901 139.256 175.209 139.851C174.67 140.093 174.091 140.605 173.599 140.532C169.99 140.003 167.575 137.881 166.107 134.611C165.916 134.184 165.903 133.612 165.603 133.315C165.14 132.858 164.5 132.58 163.935 132.225C163.694 132.729 163.433 133.224 163.217 133.738C162.95 134.371 162.882 135.403 162.443 135.588C161.225 136.102 160.787 135.588 160.743 133.947C160.702 132.443 160.196 131.895 159.083 132.368C158.632 132.56 158.261 133.24 158.103 133.772C156.995 137.509 154.397 139.592 150.718 140.42C150.176 140.542 149.148 140.282 148.975 139.909C148.546 138.981 149.002 138.214 150.099 137.956C152.325 137.434 154.194 136.394 155.251 134.255C155.497 133.757 155.659 133.217 155.937 132.495C155.206 132.389 154.665 132.246 154.122 132.241C150.675 132.207 147.228 132.238 143.783 132.171C142.504 132.146 141.801 132.455 141.517 133.874C141.269 135.111 140.467 136.228 140.05 137.446C139.87 137.973 139.787 138.863 140.089 139.177C144.645 143.908 149.271 148.571 153.971 153.34C154.731 152.636 155.232 152.125 155.78 151.673C156.475 151.1 157.186 151.036 157.864 151.739C158.582 152.483 158.169 153.041 157.585 153.581C157.547 153.616 157.506 153.653 157.481 153.697C157.111 154.367 155.707 154.688 156.695 155.817C157.724 156.993 158.325 155.869 158.969 155.293C159.578 154.748 160.094 154.442 160.849 155.111C161.547 155.728 161.698 156.249 160.935 156.884C160.735 157.051 160.561 157.248 160.374 157.43C159.812 157.979 159.391 158.503 160.156 159.257C160.913 160.002 161.44 159.685 161.948 159.012C162.296 158.552 162.621 158.075 162.887 157.703C165.287 158.984 165.344 159.242 163.787 160.851C163.249 161.407 162.711 161.887 163.465 162.674C164.282 163.525 164.847 162.96 165.426 162.384C166.758 161.06 168.102 159.748 169.41 158.401C169.94 157.855 170.36 157.701 170.962 158.327C172.698 160.13 174.464 161.906 176.245 163.666C176.963 164.374 176.595 164.978 176.001 165.328C175.619 165.553 174.79 165.58 174.508 165.32C173.097 164.02 171.8 162.595 170.046 160.785C168.869 162.155 167.781 163.343 166.807 164.618C166.595 164.896 166.659 165.547 166.833 165.914C167.071 166.412 167.536 166.802 167.788 167.101C168.917 166.984 169.546 165.191 170.49 166.621C170.811 167.106 170.435 168.05 170.153 168.782C170.456 169.627 171.434 170.42 170.203 171.451C168.99 172.466 168.656 170.927 167.783 170.684C167.263 171.071 166.691 171.498 166.138 171.909C165.08 171.142 165.067 170.16 166.101 168.963C164.721 166.87 164.405 166.839 162.684 168.649C161.941 169.432 161.206 170.222 160.35 171.133C162.106 172.753 163.746 174.266 165.297 175.697C164.177 177.922 163.721 178.005 162.237 176.552C160.709 175.055 159.212 173.524 157.644 172.069C156.876 171.357 156.918 170.843 157.658 170.152C158.992 168.906 160.26 167.59 161.551 166.299C162.158 165.691 162.556 165.002 161.803 164.272C161.046 163.539 160.536 164.174 159.968 164.678C159.446 165.14 158.837 165.719 158.22 165.782C157.836 165.82 157.254 165.05 156.985 164.528C156.874 164.313 157.329 163.78 157.571 163.421C157.713 163.21 157.944 163.06 158.129 162.876C158.65 162.359 159.263 161.903 158.526 161.062C157.79 160.221 157.268 160.722 156.7 161.227C156.196 161.675 155.688 162.118 155.074 162.658C154.498 162.151 153.97 161.685 153.331 161.122C153.948 160.43 154.575 159.87 155.006 159.187C155.231 158.831 155.112 158.258 155.148 157.782C154.61 157.76 154.043 157.626 153.543 157.754C153.189 157.844 152.895 158.264 152.632 158.584C152.041 159.301 151.477 159.346 150.799 158.679C150.124 158.014 150.024 157.441 150.704 156.676C152.245 154.943 152.225 154.91 150.611 153.294C146.628 149.308 142.617 145.35 138.665 141.335C137.865 140.523 137.28 140.4 136.262 141.03C135.177 141.702 133.912 142.141 132.671 142.491C131.741 142.753 131.222 143.08 131.225 144.138C131.249 151.855 131.246 159.573 131.221 167.291C131.217 168.48 131.769 168.777 132.861 168.767C137.299 168.723 141.738 168.795 146.175 168.712C147.656 168.684 148.077 169.218 148.011 170.624C147.897 173.071 147.905 175.524 147.925 177.975C147.933 179.051 147.53 180.232 148.832 181.06C149.084 181.219 148.884 182.676 148.463 183.171C147.734 184.03 147.779 184.583 148.392 185.435C148.76 185.948 148.959 186.717 148.897 187.336C148.872 187.574 147.92 187.783 147.368 187.883C146.863 187.975 146.315 187.972 145.809 187.882C145.301 187.792 144.478 187.633 144.402 187.344C144.255 186.786 144.343 185.97 144.68 185.522C145.394 184.577 145.495 183.931 144.639 182.967C144.257 182.537 144.212 181.103 144.523 180.9C145.466 180.284 145.275 179.497 145.28 178.706C145.292 176.672 145.305 174.637 145.23 172.606C145.215 172.184 144.823 171.776 144.605 171.362C144.304 171.75 143.777 172.122 143.748 172.529C143.679 173.47 143.207 173.632 142.419 173.64C141.573 173.648 141.127 173.332 141.173 172.454C141.227 171.438 140.609 171.258 139.767 171.265C137.469 171.283 135.171 171.264 132.874 171.272C132.039 171.274 131.208 171.419 131.209 172.474C131.21 173.65 132.156 173.494 132.928 173.5C134.704 173.512 136.479 173.54 138.254 173.507C139.189 173.49 139.556 173.849 139.539 174.798C139.498 177.144 139.505 179.491 139.542 181.837C139.557 182.748 139.268 183.153 138.288 183.153C137.261 183.154 137.075 182.639 137.079 181.783C137.085 180.323 136.996 178.863 137.007 177.404C137.014 176.411 136.598 175.981 135.601 176.003C130.395 176.117 131.39 175.247 131.289 180.077C131.266 181.172 131.261 182.268 131.294 183.362C131.317 184.146 131.061 184.975 132.1 185.516C132.415 185.68 132.364 186.767 132.256 187.392C132.219 187.606 131.506 187.781 131.084 187.833C130.467 187.908 129.825 187.917 129.209 187.839C128.737 187.778 127.96 187.621 127.894 187.362C127.742 186.762 127.875 186.06 128.012 185.424C128.166 184.709 128.61 184.031 128.648 183.321C128.749 181.397 128.674 179.464 128.725 177.536C128.755 176.391 128.283 176.017 127.137 175.999C122.938 175.934 122.938 175.896 122.933 180.054C122.932 180.628 122.903 181.203 122.935 181.775C122.984 182.632 122.783 183.143 121.751 183.154C120.7 183.164 120.395 182.736 120.415 181.751C120.461 179.457 120.463 177.161 120.414 174.868C120.392 173.823 120.846 173.489 121.822 173.51C123.544 173.549 125.268 173.529 126.991 173.527C127.784 173.526 128.614 173.605 128.668 172.428C128.725 171.22 127.908 171.262 127.099 171.262C124.906 171.261 122.712 171.28 120.519 171.257C119.642 171.247 118.943 171.378 118.981 172.475C119.016 173.507 118.317 173.644 117.528 173.664C116.632 173.686 116.421 173.193 116.378 172.369C116.358 172.001 115.853 171.658 115.569 171.303C115.267 171.702 114.717 172.095 114.705 172.502C114.64 174.846 114.319 177.283 114.846 179.51C115.252 181.223 116.538 182.654 114.72 184.254C114.633 184.33 115.194 185.054 115.35 185.512C115.55 186.099 115.821 186.756 115.712 187.315C115.656 187.606 114.863 187.853 114.373 187.933C113.765 188.032 113.108 188.021 112.503 187.9C112.009 187.802 111.236 187.546 111.164 187.229C111.037 186.668 111.141 185.783 111.519 185.435C112.431 184.594 112.23 183.874 111.542 183.189C110.715 182.367 111.024 181.652 111.454 180.806C111.809 180.108 112.195 179.33 112.217 178.578C112.297 175.869 112.296 173.153 112.186 170.446C112.134 169.149 112.504 168.708 113.833 168.723C118.218 168.774 122.606 168.669 126.991 168.718C128.291 168.733 128.703 168.318 128.695 167.022C128.647 159.566 128.654 152.11 128.694 144.653C128.701 143.428 128.365 142.789 127.076 142.474C125.837 142.171 124.716 141.413 123.494 140.997C122.963 140.816 122.065 140.737 121.749 141.042C118.293 144.372 114.918 147.785 111.529 151.184C111.356 151.357 111.262 151.608 111.015 152.012L111.015 152.012ZM130.134 121.464C125.359 121.359 120.571 125.955 120.475 130.736C120.374 135.705 124.802 140.308 129.813 140.443C134.679 140.575 139.394 136.13 139.54 131.275C139.69 126.26 135.198 121.575 130.134 121.464ZM92.4824 91.9186C93.9031 93.2424 95.1604 94.4139 96.5864 95.7425C97.2411 92.5644 95.4465 90.9431 92.4824 91.9186ZM90.7232 93.464C90.3569 95.1553 90.497 96.395 91.641 97.3105C92.5133 98.0085 93.4865 98.1114 94.6941 97.4011C93.3799 96.098 92.1515 94.8801 90.7232 93.464Z" fill="#FCD37B" fill-opacity="0.5"/>
<path d="M170.91 192.111C167.216 194.148 163.775 196.046 160.082 198.083C161.498 201.25 162.949 204.496 164.508 207.984C167.361 206.502 170.032 205.115 172.908 203.622C171.775 201.669 170.727 199.864 169.586 197.9C168.304 198.6 167.137 199.237 165.777 199.979C166.091 200.624 166.38 201.218 166.708 201.892C167.419 201.589 167.996 201.342 168.697 201.043C169.001 201.584 169.302 202.118 169.684 202.797C168.347 203.489 167.117 204.125 165.723 204.846C164.776 202.894 163.912 201.115 162.957 199.146C165.388 197.788 167.773 196.456 170.27 195.062C172.186 198.094 174.043 201.032 175.981 204.098C167.049 209.738 157.485 213.511 147.028 215.63C146.166 211.345 145.342 207.255 144.495 203.051C140.397 203.508 136.388 203.956 132.425 204.398V215.23C135.705 214.978 138.698 214.748 141.91 214.501C141.608 212.187 141.336 210.113 141.049 207.916C139.517 208.069 138.192 208.201 136.844 208.336V210.417H138.941C139.027 211.021 139.104 211.566 139.221 212.4C137.771 212.552 136.398 212.696 134.853 212.858C134.71 210.726 134.576 208.751 134.426 206.527C137.156 206.214 139.868 205.903 142.743 205.573C143.347 209.133 143.926 212.543 144.526 216.083C134.126 217.793 123.882 217.695 113.435 215.642C114.25 211.406 115.047 207.265 115.855 203.061C111.861 201.911 107.994 200.798 103.968 199.639C102.718 202.911 101.462 206.197 100.101 209.759C103.169 210.739 106.07 211.665 109.147 212.647C109.737 210.377 110.25 208.406 110.807 206.265C109.416 205.835 108.145 205.442 106.671 204.985C106.421 205.662 106.191 206.283 105.933 206.98C106.669 207.292 107.249 207.539 107.966 207.843C107.816 208.412 107.661 208.999 107.456 209.779C106.025 209.315 104.702 208.887 103.177 208.393C103.893 206.347 104.562 204.437 105.271 202.414C107.988 203.199 110.56 203.943 113.283 204.73C112.503 208.186 111.74 211.562 110.938 215.112C100.602 212.796 91.1777 208.671 82.3053 202.818C84.6925 199.227 87.039 195.697 89.4139 192.124C86.1901 189.546 83.0341 187.022 79.7661 184.409C77.3657 186.937 74.936 189.496 72.3298 192.241C74.7511 194.302 77.0429 196.252 79.5247 198.364C80.8927 196.58 82.1641 194.922 83.5496 193.114C82.4148 192.201 81.3386 191.335 80.1841 190.407C79.6872 190.938 79.2588 191.397 78.7699 191.92C79.3132 192.487 79.7904 192.986 80.324 193.544C79.9325 194.015 79.5687 194.453 79.0727 195.05C77.9421 194.113 76.8733 193.227 75.649 192.213C77.0578 190.609 78.4012 189.08 79.8632 187.416C82.0593 189.166 84.197 190.871 86.446 192.664C84.3808 195.571 82.3737 198.396 80.263 201.368C71.6182 195.282 64.5185 187.905 58.5227 179.056C62.0962 176.646 65.6031 174.282 69.1675 171.879C67.1829 168.288 65.2366 164.767 63.1851 161.055C59.9916 162.477 56.7794 163.907 53.2828 165.463C54.7626 168.311 56.1702 171.021 57.6667 173.901C59.6629 172.722 61.4678 171.655 63.3707 170.531C62.6594 169.242 62.0143 168.072 61.2878 166.755C60.6453 167.051 60.0931 167.306 59.4098 167.622C59.6951 168.338 59.9429 168.961 60.2351 169.694C59.698 169.991 59.1588 170.289 58.4982 170.654C57.768 169.288 57.1039 168.046 56.3802 166.693C58.3353 165.754 60.2233 164.847 62.1445 163.924C63.52 166.398 64.8266 168.748 66.2136 171.243C63.2268 173.126 60.2972 174.974 57.1777 176.942C51.5048 167.975 47.7624 158.416 45.6402 148.007C49.8975 147.145 54.0514 146.303 58.2284 145.458C57.7777 141.369 57.342 137.418 56.8968 133.38H46.0217C46.2803 136.619 46.5229 139.656 46.7831 142.915C49.0495 142.602 51.0644 142.324 53.3691 142.006C53.2147 140.548 53.0697 139.178 52.9072 137.642C52.1532 137.687 51.5462 137.724 50.834 137.767V139.922C50.1865 140.03 49.5933 140.129 48.7987 140.262C48.7042 138.756 48.621 137.429 48.519 135.802C50.6636 135.672 52.6702 135.549 54.756 135.422C55.0824 138.237 55.3845 140.843 55.7148 143.691C52.2621 144.289 48.8591 144.878 45.4795 145.462C43.3833 140.024 43.543 122.056 45.7778 114.435C49.8911 115.226 54.0332 116.024 58.2204 116.83C59.3642 112.848 60.476 108.978 61.6353 104.943C58.3446 103.684 55.0545 102.426 51.5283 101.077C50.5434 104.133 49.604 107.048 48.614 110.12C50.8305 110.699 52.8124 111.217 55.042 111.8C55.4551 110.397 55.8439 109.076 56.2741 107.615C55.5847 107.36 55.0055 107.146 54.2937 106.883C54.0276 107.528 53.7918 108.1 53.4732 108.873C52.9496 108.747 52.3682 108.608 51.5307 108.408C51.9911 106.923 52.4003 105.603 52.8563 104.132C54.9089 104.847 56.8217 105.514 58.8509 106.222C58.097 108.887 57.3671 111.468 56.5757 114.267C53.1413 113.484 49.7308 112.706 46.1538 111.891C48.5587 101.518 52.6093 92.1256 58.4685 83.2763C62.0915 85.6871 65.6066 88.0262 69.1587 90.3898C71.7204 87.1805 74.2398 84.0242 76.8701 80.7291C74.3605 78.3503 71.8008 75.9242 69.0441 73.3113C66.9765 75.7384 64.9929 78.067 62.898 80.5261C64.7515 81.9155 66.4319 83.1751 68.1923 84.4946C69.1216 83.3296 69.9577 82.2815 70.9297 81.063C70.4335 80.5669 69.9899 80.1233 69.2831 79.4168C68.7725 80.1876 68.3863 80.7706 67.9697 81.3997C67.322 80.9226 66.8677 80.5879 66.2026 80.0979C67.1454 78.9493 68.0249 77.8777 69.0375 76.6438C70.6907 78.089 72.2634 79.464 73.8585 80.8585C72.0675 83.1039 70.3849 85.2135 68.6179 87.4288C65.7701 85.4027 62.9006 83.3611 59.8991 81.2256C66.0293 72.5707 73.4331 65.4162 82.2267 59.488C84.6262 63.0561 86.9902 66.5713 89.3938 70.1455C92.9958 68.1519 96.5234 66.1996 100.214 64.157C98.8062 61.0039 97.3713 57.7901 95.8074 54.2875C92.962 55.7519 90.2507 57.1474 87.3628 58.6337C88.5394 60.6175 89.6094 62.4215 90.7443 64.335C92.0424 63.6157 93.2107 62.9683 94.5018 62.253C94.2284 61.6273 93.9822 61.0638 93.6777 60.3668C92.9528 60.6439 92.3244 60.8841 91.5919 61.1641C91.3058 60.6863 91.0201 60.2092 90.5952 59.4996C91.9377 58.7853 93.204 58.1115 94.5925 57.3729C95.5485 59.3756 96.4282 61.2185 97.3428 63.1343C94.8724 64.4984 92.5215 65.7966 90.0321 67.1713C88.1256 64.1571 86.271 61.2251 84.3197 58.14C93.2845 52.5302 102.874 48.6977 113.284 46.6246C114.15 50.9269 114.985 55.0751 115.816 59.2018C119.976 58.7418 123.937 58.3038 127.874 57.8684V47.0152C124.609 47.2667 121.621 47.4968 118.382 47.7463C118.695 50.0777 118.973 52.1517 119.269 54.3558C120.792 54.1895 122.111 54.0454 123.595 53.8834C123.538 53.1586 123.49 52.5485 123.434 51.8397H121.331C121.249 51.2007 121.178 50.6514 121.077 49.8632C122.541 49.6971 123.904 49.5424 125.428 49.3694C125.59 51.5449 125.738 53.518 125.902 55.7201C123.146 56.0418 120.493 56.3515 117.578 56.6919C116.985 53.2346 116.392 49.7817 115.768 46.1482C126.197 44.4984 136.437 44.6126 146.887 46.5805C146.055 50.8681 145.25 55.0194 144.444 59.1742C148.403 60.3209 152.227 61.4286 156.319 62.6137C157.558 59.3985 158.819 56.1244 160.207 52.5235C157.203 51.5497 154.306 50.6102 151.181 49.5967C150.59 51.7978 150.062 53.7689 149.471 55.9748C150.847 56.3998 152.162 56.806 153.668 57.2711C153.908 56.532 154.114 55.897 154.334 55.2178C153.639 54.9332 153.108 54.7158 152.417 54.4332C152.532 53.8749 152.652 53.2958 152.823 52.4696C154.274 52.931 155.587 53.3484 157.121 53.8362C156.412 55.8915 155.749 57.8148 155.047 59.85C152.408 59.0801 149.842 58.3318 147.034 57.5127C147.796 54.1055 148.548 50.7389 149.353 47.1417C159.674 49.4427 169.075 53.5719 178.002 59.423C175.627 62.9948 173.287 66.5149 170.889 70.1213C174.055 72.6586 177.201 75.1793 180.557 77.8689C182.934 75.3443 185.381 72.7445 187.974 69.9905C185.559 67.9482 183.258 66.0018 180.769 63.897C179.394 65.6924 178.121 67.3537 176.758 69.1329C177.897 70.0522 178.981 70.9265 180.158 71.8757C180.63 71.3362 181.04 70.8676 181.666 70.1519C181.087 69.7636 180.566 69.4132 179.946 68.9971C180.374 68.3303 180.704 67.8151 181.157 67.1088C182.348 68.1164 183.453 69.0507 184.659 70.071C183.195 71.7067 181.868 73.1888 180.417 74.8104C178.21 73.055 176.071 71.3544 173.849 69.5871C175.925 66.6705 177.934 63.8476 180.044 60.8817C188.705 66.9806 195.828 74.3972 201.793 83.2029C198.116 85.676 194.608 88.0361 191.123 90.3797C193.125 93.9823 195.058 97.4622 197.123 101.179C200.31 99.7581 203.562 98.3086 207.002 96.7755C205.537 93.9336 204.159 91.2603 202.658 88.347C200.678 89.5038 198.878 90.5564 196.931 91.694C197.656 93.0098 198.325 94.224 199.057 95.553C199.71 95.2079 200.263 94.9161 200.914 94.5722C200.659 93.9332 200.426 93.3527 200.135 92.6239C200.633 92.32 201.151 92.0036 201.834 91.5867C202.54 92.9504 203.178 94.1851 203.881 95.5441C201.927 96.4993 200.082 97.4012 198.175 98.3333C196.832 95.9307 195.514 93.5738 194.08 91.0099C197.025 89.1515 199.992 87.2792 203.114 85.3091C208.792 94.2595 212.556 103.805 214.64 114.238C210.353 115.109 206.203 115.952 202.066 116.793C202.523 120.883 202.965 124.842 203.417 128.89H214.299C214.028 125.628 213.775 122.59 213.505 119.343C211.23 119.65 209.215 119.921 206.909 120.232C207.074 121.668 207.23 123.035 207.399 124.512H209.428C209.491 123.8 209.546 123.187 209.618 122.381C210.143 122.265 210.728 122.137 211.504 121.966C211.603 123.501 211.689 124.834 211.794 126.479C209.677 126.587 207.657 126.689 205.526 126.797C205.213 124.019 204.913 121.358 204.596 118.536C208.05 117.958 211.457 117.388 215.089 116.781C216.861 127.218 216.693 137.442 214.672 147.857C210.396 147.029 206.256 146.228 202.075 145.418C200.945 149.375 199.851 153.204 198.682 157.298C201.886 158.534 205.212 159.816 208.779 161.191C209.772 158.112 210.711 155.199 211.704 152.118C209.41 151.54 207.378 151.028 205.232 150.488C204.813 151.967 204.449 153.25 204.055 154.642C204.759 154.889 205.34 155.093 206.026 155.334C206.311 154.651 206.552 154.075 206.858 153.341C207.465 153.506 208.055 153.668 208.773 153.864C208.316 155.294 207.893 156.615 207.419 158.097C205.353 157.378 203.433 156.709 201.432 156.013C202.209 153.319 202.954 150.737 203.748 147.982C207.137 148.756 210.499 149.524 214.107 150.347C211.832 160.721 207.685 170.114 201.839 178.975C198.215 176.562 194.698 174.219 191.152 171.857C188.564 175.08 186.033 178.232 183.395 181.517C185.93 183.902 188.498 186.318 191.283 188.938C193.327 186.529 195.303 184.199 197.405 181.721C195.545 180.324 193.87 179.065 192.119 177.749C191.178 178.914 190.335 179.957 189.426 181.083C189.932 181.557 190.387 181.982 190.935 182.494C191.471 181.99 191.964 181.526 192.536 180.988C193.044 181.37 193.543 181.747 194.126 182.186C193.136 183.369 192.234 184.445 191.237 185.636C189.65 184.232 188.123 182.88 186.461 181.409C188.189 179.235 189.859 177.133 191.686 174.834C194.566 176.876 197.432 178.908 200.414 181.023C194.246 189.668 186.855 196.84 178.071 202.76C175.638 199.142 173.275 195.628 170.91 192.111ZM198.892 82.3751C195.763 78.6695 192.815 75.1786 189.639 71.4169C186.408 74.7023 183.4 77.761 180.352 80.8598C174.138 74.6663 167.136 69.9034 159.214 66.245C160.73 62.8997 162.174 59.712 163.685 56.378C166.496 57.8345 169.1 59.1845 171.758 60.5618C170.534 62.6081 169.481 64.3687 168.416 66.149C167.191 65.4458 166.081 64.8083 164.838 64.0943C165.188 63.4668 165.482 62.939 165.776 62.4118C166.502 62.692 167.075 62.9134 167.737 63.1693C168.071 62.5089 168.346 61.9634 168.687 61.2888C167.302 60.5889 166.069 59.9653 164.701 59.2741C163.723 61.3388 162.831 63.2209 161.932 65.12C164.442 66.5084 166.738 67.779 169.139 69.1069C171.065 66.0474 172.942 63.067 175.01 59.7811C170.747 57.568 166.662 55.4474 162.406 53.2378C160.606 57.5063 158.943 61.4501 157.263 65.4357C149.131 62.0535 140.828 60.4389 132.45 60.0332V49.2548C135.569 49.5257 138.468 49.7774 141.564 50.0462C141.201 52.4188 140.896 54.4159 140.589 56.4242C139.128 56.239 137.929 56.0872 136.637 55.9235C136.682 55.2516 136.72 54.6964 136.761 54.0893C137.49 54.0493 138.113 54.0152 138.866 53.9741C138.921 53.2787 138.969 52.6673 139.029 51.9033C137.517 51.7558 136.143 51.6218 134.513 51.4627V58.0614C137.119 58.3429 139.721 58.6241 142.477 58.9218C143.076 55.3063 143.65 51.8364 144.289 47.9825C139.45 47.6127 134.876 47.2631 130.091 46.8975V59.9979C121.349 60.1096 113.025 61.6403 104.835 64.6863C103.534 61.2612 102.291 57.9875 100.984 54.5463C103.952 53.6168 106.696 52.7573 109.631 51.8379C110.202 54.0432 110.709 56.0023 111.242 58.0648C109.83 58.476 108.62 58.8286 107.327 59.205C107.106 58.5282 106.931 57.9962 106.742 57.4198C107.439 57.0766 108.044 56.7782 108.703 56.4538C108.453 55.7435 108.249 55.1634 108.003 54.4645C106.54 54.9554 105.221 55.398 103.771 55.8847C104.538 58.0183 105.244 59.9815 105.967 61.993C108.713 61.1901 111.231 60.4538 113.882 59.6786C113.071 56.1273 112.288 52.6962 111.428 48.9305C106.817 50.4035 102.432 51.8047 97.8821 53.2582C99.6193 57.4899 101.225 61.4004 102.893 65.4642C94.8668 68.8689 87.7775 73.5022 81.365 79.4534C78.8968 76.8425 76.4771 74.2827 73.8979 71.5544C76.29 69.5497 78.5317 67.671 80.874 65.7081C82.2946 67.6024 83.5168 69.2322 84.772 70.9061C83.6145 71.8133 82.6079 72.6024 81.5094 73.4634C81.0548 72.8633 80.6855 72.3757 80.297 71.8627C80.818 71.3664 81.2327 70.9716 81.7408 70.4877C81.323 69.9347 80.9166 69.3967 80.4355 68.7599C79.2242 69.7831 78.1509 70.6898 76.9976 71.6639C78.5102 73.3552 79.9205 74.9321 81.3444 76.5241C83.542 74.7634 85.6412 73.0816 87.7899 71.36C85.6702 68.3864 83.6182 65.5077 81.3897 62.3814C77.7254 65.4901 74.2016 68.4796 70.3198 71.7729C73.6669 74.9469 76.7481 77.8688 79.9212 80.8777C73.7031 87.1297 68.9326 94.1858 65.2352 102.048C61.8444 100.518 58.7033 99.1009 55.3929 97.6075C56.8385 94.8176 58.1634 92.2605 59.5701 89.5457C61.5297 90.7025 63.2797 91.7355 65.1463 92.8375C64.4302 94.1424 63.8032 95.2851 63.1414 96.4911C62.4419 96.0801 61.9532 95.7929 61.4096 95.4735C61.7006 94.8305 61.9572 94.2632 62.2419 93.634C61.6142 93.2584 61.0741 92.9352 60.3606 92.5083C59.6594 93.8763 59.0004 95.1617 58.2771 96.5726C60.3653 97.5578 62.2553 98.4494 64.1605 99.3483C65.5313 96.8589 66.7975 94.5596 68.1302 92.1394C65.0726 90.213 62.0883 88.3327 58.8117 86.2683C56.6129 90.4957 54.4856 94.5854 52.2576 98.8688C56.4742 100.636 60.38 102.273 64.4322 103.971C61.2044 112.028 59.3924 120.292 59.1065 128.734H48.2798C48.5588 125.573 48.8121 122.704 49.0734 119.745C51.276 120.055 53.2393 120.331 55.4091 120.636C55.2464 122.084 55.101 123.377 54.9439 124.775C54.1223 124.651 53.5748 124.569 52.9884 124.481V122.42C52.2852 122.356 51.6721 122.3 50.8509 122.224C50.7647 123.757 50.6868 125.141 50.5959 126.758H57.0699C57.3638 124.093 57.6509 121.491 57.9486 118.793C54.2849 118.187 50.8229 117.614 47.0488 116.99C46.6426 121.837 46.2582 126.422 45.8535 131.249H59.1266C59.036 140.031 60.7743 148.305 63.6717 156.455C60.2296 157.764 57.006 158.989 53.581 160.291C52.6278 157.288 51.7561 154.542 50.8353 151.642C52.9996 151.089 54.9734 150.584 57.0823 150.045C57.4753 151.385 57.8327 152.603 58.2282 153.951C57.5311 154.176 56.9606 154.361 56.3814 154.548C56.0638 153.819 55.816 153.249 55.5158 152.559C54.8225 152.807 54.2442 153.013 53.5213 153.271C53.9939 154.722 54.4222 156.038 54.8964 157.494C57.0907 156.723 59.063 156.03 61.0344 155.338C60.2262 152.569 59.4929 150.057 58.7169 147.399C55.1516 148.21 51.7303 148.989 47.9416 149.851C49.4275 154.474 50.8334 158.847 52.2944 163.391C56.5842 161.638 60.4939 160.04 64.5086 158.399C67.8819 166.463 72.5831 173.516 78.4544 179.912C75.8164 182.419 73.2663 184.842 70.5729 187.401C68.5324 184.959 66.657 182.714 64.722 180.397C66.5896 178.996 68.1821 177.801 69.9019 176.511C70.7814 177.609 71.6066 178.639 72.4745 179.722C71.898 180.211 71.465 180.578 70.9991 180.974C70.4489 180.473 69.9447 180.014 69.3964 179.516C68.861 180.005 68.4045 180.423 67.8462 180.933C68.8551 182.075 69.7726 183.114 70.7699 184.243C72.4404 182.741 73.9641 181.371 75.546 179.948C73.8004 177.763 72.1276 175.668 70.3903 173.492C67.4022 175.621 64.5334 177.664 61.4164 179.885C64.5424 183.578 67.5186 187.094 70.7494 190.911C73.9592 187.573 76.8974 184.518 79.9294 181.365C86.2044 187.61 93.259 192.396 101.089 196.018C99.5663 199.396 98.1399 202.561 96.6428 205.882C93.9028 204.461 91.2998 203.112 88.5726 201.697C89.743 199.72 90.7865 197.957 91.878 196.113C93.1133 196.815 94.223 197.446 95.4589 198.149C95.0978 198.79 94.8049 199.311 94.5152 199.826C93.8019 199.528 93.2739 199.308 92.6132 199.033C92.2726 199.655 91.9541 200.236 91.5608 200.954C92.9989 201.685 94.2334 202.313 95.5734 202.995C96.5646 200.928 97.4675 199.045 98.3963 197.108C95.9019 195.742 93.5983 194.48 91.1678 193.149C89.2388 196.209 87.36 199.19 85.2932 202.469C89.5597 204.681 93.6459 206.801 97.9005 209.007C99.6936 204.736 101.355 200.779 103.027 196.796C111.123 200.21 119.446 201.786 127.822 202.226V212.965C124.668 212.712 121.808 212.483 118.786 212.24C119.113 209.91 119.396 207.899 119.683 205.856C121.109 206.004 122.313 206.13 123.668 206.271C123.603 206.988 123.548 207.59 123.496 208.157C122.699 208.208 122.082 208.247 121.363 208.292V210.38C122.835 210.518 124.207 210.646 125.702 210.786C125.834 208.452 125.949 206.417 126.073 204.228C123.266 203.927 120.609 203.643 117.827 203.344C117.216 206.99 116.637 210.451 116 214.256C120.876 214.639 125.447 214.997 130.224 215.372V202.243C138.959 202.121 147.291 200.641 155.466 197.544C156.749 200.938 157.989 204.218 159.298 207.681C156.337 208.625 153.558 209.511 150.663 210.434C150.088 208.18 149.586 206.21 149.067 204.174C150.494 203.764 151.715 203.414 153.01 203.043C153.204 203.713 153.361 204.256 153.54 204.874C152.889 205.168 152.323 205.424 151.664 205.722C151.83 206.367 151.985 206.97 152.201 207.809C153.711 207.309 155.074 206.858 156.533 206.375C155.763 204.21 155.079 202.284 154.363 200.268C151.645 201.05 149.076 201.79 146.406 202.558C147.23 206.133 148.02 209.565 148.889 213.334C153.496 211.855 157.878 210.447 162.431 208.986C160.68 204.73 159.075 200.829 157.407 196.773C165.5 193.354 172.582 188.725 178.922 182.788C181.422 185.425 183.844 187.98 186.402 190.677C183.996 192.72 181.794 194.589 179.458 196.571C178.113 194.791 176.849 193.118 175.525 191.366C176.697 190.436 177.692 189.648 178.774 188.79C179.253 189.391 179.639 189.875 180.169 190.541C179.531 190.965 179 191.317 178.438 191.69C179.027 192.401 179.424 192.879 179.9 193.452C181.082 192.45 182.148 191.546 183.298 190.572C181.775 188.867 180.37 187.295 178.948 185.702C176.738 187.492 174.661 189.175 172.514 190.914C174.654 193.901 176.701 196.759 178.929 199.869C182.633 196.721 186.141 193.74 190.034 190.432C186.649 187.177 183.597 184.242 180.477 181.241C186.646 175.091 191.385 168.067 195.05 160.186C198.395 161.705 201.584 163.154 204.926 164.671C203.438 167.512 202.102 170.062 200.715 172.711C198.723 171.527 196.973 170.488 195.135 169.397C195.871 168.114 196.526 166.972 197.217 165.767C197.876 166.168 198.358 166.462 198.892 166.787C198.602 167.432 198.345 168.002 198.044 168.673C198.72 169.021 199.314 169.328 199.991 169.676C200.707 168.266 201.333 167.031 202.009 165.7C199.936 164.712 198.095 163.833 196.157 162.909C194.789 165.383 193.497 167.72 192.171 170.116C195.269 172.065 198.249 173.939 201.503 175.985C203.717 171.706 205.834 167.612 208.033 163.361C203.769 161.579 199.863 159.946 195.846 158.267C199.165 150.174 200.89 141.886 201.2 133.438H212.039C211.757 136.626 211.498 139.542 211.236 142.503C208.991 142.195 207.025 141.925 204.853 141.627C205.03 140.231 205.195 138.926 205.374 137.512C206.08 137.61 206.631 137.687 207.231 137.771C207.27 138.498 207.303 139.12 207.341 139.837C208.026 139.911 208.64 139.977 209.445 140.064C209.536 138.509 209.616 137.133 209.707 135.581C207.441 135.443 205.361 135.317 203.265 135.19C202.942 138.089 202.652 140.695 202.346 143.442C205.922 144.042 209.388 144.623 213.238 145.269C213.648 140.467 214.039 135.884 214.454 131.017H201.205C201.217 122.206 199.558 113.916 196.628 105.795C200.085 104.479 203.308 103.253 206.714 101.957C207.669 104.969 208.539 107.712 209.456 110.605C207.257 111.168 205.283 111.673 203.206 112.205C202.812 110.838 202.461 109.622 202.064 108.249C202.812 108.053 203.391 107.902 203.963 107.753C204.248 108.436 204.467 108.96 204.752 109.644C205.45 109.422 206.079 109.223 206.823 108.987C206.31 107.478 205.866 106.171 205.388 104.765C203.223 105.529 201.298 106.208 199.286 106.918C200.074 109.634 200.817 112.2 201.588 114.858C205.137 114.049 208.516 113.278 212.346 112.404C210.881 107.823 209.469 103.406 208.01 98.8457C203.687 100.627 199.785 102.235 195.794 103.879C192.432 95.7536 187.694 88.7328 181.823 82.3066C184.496 79.7905 187.051 77.3856 189.73 74.8642C191.745 77.2704 193.6 79.4852 195.565 81.8318C193.762 83.1956 192.134 84.4276 190.42 85.7246C189.507 84.6052 188.7 83.6154 187.833 82.5518C188.342 82.0884 188.802 81.6696 189.585 80.9567C189.977 81.6329 190.33 82.2392 190.717 82.9059C191.439 82.2741 191.908 81.8644 192.484 81.3599C191.486 80.2039 190.575 79.1497 189.581 77.9983C187.884 79.5188 186.325 80.9166 184.759 82.32C186.537 84.5427 188.178 86.5943 189.91 88.7586C192.856 86.665 195.729 84.6232 198.892 82.3751Z" fill="#FCD37B" fill-opacity="0.3"/>
<path d="M139.755 261H124.484C120.966 260.651 117.435 260.407 113.933 259.935C86.473 256.231 62.3829 245.237 42.0298 226.351C20.1354 206.036 6.8451 181.029 1.82214 151.628C0.994345 146.782 0.596505 141.864 0 136.979C0 132.66 0 128.34 0 124.021C0.124901 123.277 0.316402 122.538 0.365038 121.789C1.63357 102.241 6.81791 83.7849 16.6259 66.8355C37.3975 30.9397 68.2561 9.15925 109.15 1.83061C114.059 0.950891 119.062 0.597431 124.021 0C128.34 0 132.66 0 136.979 0C137.654 0.116062 138.326 0.252069 139.004 0.345177C145.564 1.24563 152.209 1.74074 158.672 3.09715C210.04 13.8768 250.461 56.1399 259.185 108.005C259.898 112.246 260.4 116.522 261 120.782V139.755C260.865 140.506 260.717 141.254 260.597 142.007C259.488 148.919 258.854 155.946 257.204 162.726C245.366 211.375 204.149 249.908 154.788 258.701C149.799 259.59 144.767 260.24 139.755 261ZM225.202 130.92C225.093 79.6999 184.956 37.4124 132.993 36.263C80.1688 35.0944 36.9121 76.8281 36.1815 129.077C35.4477 181.553 77.2483 224.582 129.883 225.09C182.223 225.595 224.859 183.452 225.202 130.92ZM40.0339 217.252C40.2568 217.185 40.4799 217.119 40.7028 217.053C40.7028 216.236 40.703 215.419 40.7028 214.602C40.702 211.365 40.7644 208.127 40.6731 204.892C40.6274 203.273 41.0297 202.502 42.84 202.547C46.9991 202.649 51.1638 202.64 55.3234 202.547C57.0159 202.509 57.6415 203.06 57.5988 204.784C57.5033 208.635 57.5705 212.49 57.5686 216.344C57.5676 218.398 56.5704 219.43 54.5772 219.439C50.7591 219.447 46.941 219.441 42.9915 219.441C44.7764 223.365 62.1053 236.805 66.6604 237.862C65.6365 235.906 64.7117 234.076 63.7266 232.279C62.9929 230.941 62.5183 229.717 64.3099 228.811C66.195 227.858 66.9411 228.982 67.595 230.483C68.0374 231.498 68.6316 232.447 69.3669 233.815C70.3775 232.41 71.1954 231.416 71.8576 230.327C74.2594 226.379 76.5226 222.343 79.0188 218.456C80.0929 216.783 79.7222 215.987 78.168 215.015C66.8673 207.946 57.2119 199.106 49.5251 188.166C49.1611 187.648 48.5499 187.126 47.9593 186.974C44.455 186.077 40.9108 185.336 37.4059 184.441C36.0064 184.084 35.4161 184.643 35.0479 185.871C34.473 187.788 33.8404 189.688 33.2185 191.59C31.9591 195.443 31.9606 195.425 28.1597 194.21C26.1031 193.552 24.0245 192.964 21.3259 192.155C26.6901 201.843 32.8624 209.923 40.0339 217.252ZM244.829 77.753C241.354 71.5839 238.091 65.7929 234.923 60.1679C234.227 60.2785 234.045 60.2548 233.935 60.3326C227.385 64.9444 220.852 69.5779 214.289 74.1706C213.19 74.9402 213.586 75.6138 214.095 76.4922C216.142 80.0192 218.133 83.5789 220.145 87.1263C220.495 87.744 220.848 88.3601 221.482 89.4704C222.951 85.8575 224.115 82.776 225.487 79.791C225.803 79.104 227.018 78.1774 227.514 78.3332C230.518 79.2779 233.495 80.3797 236.327 81.747C236.863 82.0056 236.896 83.7178 236.771 84.71C236.726 85.0646 235.467 85.5963 234.865 85.4859C233.286 85.196 231.743 84.6507 230.223 84.1061C228.831 83.6079 228.089 84.0507 227.57 85.3982C226.547 88.0558 225.326 90.6391 224.362 93.3164C224.018 94.2741 223.911 95.482 224.156 96.4602C225.503 101.833 226.988 107.17 228.443 112.515C228.552 112.915 228.801 113.276 229.165 114.026C229.701 112.927 230.055 112.186 230.421 111.452C230.764 110.765 230.95 109.768 231.507 109.469C232.542 108.913 233.796 108.765 234.959 108.447C235.011 109.339 235.265 110.277 235.071 111.112C234.733 112.574 234.121 113.972 233.606 115.445C234.079 115.556 234.309 115.678 234.519 115.65C240.776 114.803 247.03 113.931 253.288 113.092C254.765 112.894 255.015 112.057 254.677 110.798C252.523 102.78 250.417 94.7488 248.191 86.7506C247.629 84.7284 246.691 82.8107 245.674 80.1985C245.028 81.532 244.647 82.172 244.398 82.8599C243.271 85.9718 242.128 89.0798 241.103 92.2257C240.656 93.5985 240.003 94.1596 238.571 93.6354C235.612 92.5529 232.632 91.5285 229.674 90.4437C228.016 89.836 228.97 88.7355 229.235 87.7759C229.554 86.6239 230.151 86.0224 231.42 86.5921C232.754 87.1913 234.137 87.6914 235.439 88.3513C236.84 89.0611 237.684 88.8527 238.232 87.2736C238.888 85.3852 239.807 83.5881 240.457 81.6982C241.135 79.7276 241.855 77.9015 244.829 77.753ZM217.71 206.753C213.929 209.999 210.544 212.906 207.023 215.93C205.573 210.251 204.239 205.024 202.874 199.678C202.27 199.988 202.045 200.06 201.871 200.199C195.55 205.224 189.208 210.224 182.963 215.343C182.457 215.758 182.206 217.213 182.531 217.798C184.998 222.24 187.626 226.593 190.237 230.953C190.6 231.558 191.148 232.052 191.999 233.055C192.812 230.55 193.487 228.614 194.063 226.648C194.497 225.17 195.341 225.139 196.52 225.725C198.115 226.517 197.85 227.83 197.453 229.112C196.552 232.015 195.58 234.897 194.58 237.964C195.177 237.918 195.435 237.974 195.599 237.876C204.233 232.703 212.115 226.558 219.198 219.411C219.753 218.851 220.11 217.689 219.968 216.914C219.377 213.675 218.56 210.476 217.71 206.753ZM251.302 144.172C251.246 143.959 251.19 143.747 251.134 143.534C249.649 143.276 248.166 142.996 246.677 142.763C243.177 142.215 239.678 141.652 236.167 141.189C235.471 141.097 234.719 141.426 233.993 141.561C234.181 142.257 234.278 142.995 234.579 143.638C234.968 144.47 235.453 145.277 236.013 146.006C237.372 147.773 236.926 149.039 235.134 150.164C233.375 151.267 231.576 152.365 230.029 153.731C228.629 154.966 227.137 156.38 226.407 158.034C224.827 161.61 223.757 165.409 222.377 169.078C221.853 170.472 222.047 171.191 223.417 172.04C229.475 175.791 235.62 176.994 242.153 173.338C242.417 173.19 242.725 173.092 243.025 173.037C247.892 172.141 251.122 169.684 251.494 164.366C251.552 163.546 251.981 162.75 252.256 161.949C252.843 160.243 252.456 158.793 251.216 157.495C249.46 155.657 247.781 153.744 246.012 151.918C244.773 150.64 244.811 149.612 246.24 148.487C247.981 147.117 249.619 145.616 251.302 144.172ZM223.943 213.695C224.187 213.825 224.43 213.955 224.673 214.086C225.196 213.337 225.696 212.571 226.246 211.844C229.167 207.977 231.981 204.021 235.069 200.293C237.491 197.37 237.987 194.577 235.799 191.36C235.161 190.421 234.842 189.265 234.383 188.207C231.897 182.477 227.803 178.327 222.101 175.755C220.539 175.044 219.753 175.239 218.779 176.778C215.125 182.554 211.26 188.197 207.504 193.909C207.055 194.592 206.382 195.479 206.512 196.131C207.286 200.005 208.266 203.837 209.287 208.148C212.924 204.714 216.133 201.684 219.648 198.364C221.151 203.73 222.547 208.713 223.943 213.695ZM75.4936 26.0757C74.8871 27.675 74.5726 28.7505 74.0836 29.7397C73.1981 31.5312 72.1508 33.2433 71.2809 35.0416C70.612 36.4242 70.8438 37.3046 72.6813 37.5332C75.7357 37.9133 78.7506 38.6024 81.7998 39.0382C83.4735 39.2774 84.9068 39.6385 85.0061 41.8147C92.2289 39.1109 99.1896 36.5052 106.497 33.77C100.577 30.8691 95.0395 28.155 89.3137 25.3488C93.4675 19.6743 97.3643 14.3509 101.261 9.02745C86.9747 12.0194 73.8945 17.5401 61.8548 25.4737C61.8936 25.6744 61.9324 25.875 61.9712 26.0757H75.4936ZM118.47 5.36341C114.085 6.085 110.278 6.67989 106.49 7.3763C106.038 7.45946 105.573 8.02996 105.311 8.48745C104.519 9.87126 103.923 11.3736 103.072 12.7158C101.01 15.965 98.8563 19.1561 96.7201 22.3575C95.6593 23.9473 96.2346 24.7151 97.8551 25.478C102.697 27.7578 107.455 30.2173 112.258 32.5811C112.575 32.7371 113.008 32.7575 113.368 32.7077C115.429 32.4225 117.509 32.1995 119.529 31.7281C120.216 31.5681 120.956 30.8612 121.313 30.2082C122.791 27.508 124.052 24.6879 125.548 21.9982C126.877 19.6079 126.911 17.3423 125.542 14.9938C124.106 12.5301 122.841 9.9553 121.254 7.59575C120.567 6.57512 119.259 5.97264 118.47 5.36341ZM166.956 17.8665C166.767 18.1884 166.579 18.5103 166.391 18.8321C162.678 19.7716 158.944 20.6371 155.268 21.7036C154.369 21.9646 153.216 22.7322 152.945 23.5276C152.055 26.1398 151.439 28.8567 150.912 31.5709C150.807 32.1099 151.425 33.2108 151.935 33.3833C157.395 35.2273 162.909 36.9102 168.388 38.7008C169.796 39.1611 170.517 38.6305 171.143 37.4374C174.535 30.9655 177.95 24.5053 181.401 18.0648C182.19 16.5927 182.082 15.7311 180.329 15.1369C175.668 13.5565 171.086 11.7383 166.404 10.2228C163.253 9.20242 159.987 8.53595 156.202 7.56497C160.129 11.3269 163.542 14.5967 166.956 17.8665ZM190.104 240.992L190.12 240.221C186.917 239.594 183.728 238.875 180.505 238.38C178.982 238.146 178.311 237.75 178.656 236.054C178.991 234.406 179.674 233.845 181.348 234.271C183.228 234.749 185.159 235.023 187.088 235.389C187.157 234.812 187.241 234.629 187.183 234.522C184.458 229.44 181.756 224.345 178.923 219.324C178.68 218.894 177.425 218.624 176.869 218.848C172.306 220.687 167.775 222.61 163.299 224.652C162.715 224.919 162.05 226.111 162.188 226.693C163.928 234.026 165.819 241.323 167.641 248.637C167.926 249.782 168.519 250.155 169.639 249.816C176.802 247.648 183.538 244.514 190.104 240.992ZM51.7838 43.0661C48.8742 44.5592 46.0443 45.934 43.3093 47.4771C42.7318 47.803 42.5019 48.745 42.1119 49.4031C42.9145 49.8749 43.6865 50.6473 44.5285 50.7331C45.355 50.8174 46.2763 50.2573 47.1145 49.8862C49.4356 48.8584 51.7271 47.764 54.0461 46.7313C55.385 46.135 56.7028 46.077 57.3062 47.7012C57.8884 49.2686 56.6857 49.9262 55.5145 50.4244C53.3908 51.3276 51.265 52.2374 49.0926 53.0113C47.4057 53.6123 47.2535 54.5473 48.3671 55.7157C50.5393 57.9947 52.8384 60.1528 55.0133 62.4294C56.2559 63.73 57.1661 63.6187 58.4619 62.3742C62.1218 58.8595 65.8719 55.4326 69.7033 52.1058C71.0861 50.9052 71.3063 49.8589 70.3781 48.3441C66.3981 41.8495 62.4598 35.3293 58.493 28.8265C58.3863 28.6516 58.128 28.5693 57.4034 28.0847C51.8058 32.9479 46.1008 37.9042 40.3958 42.8606C40.5605 43.0981 40.7252 43.3356 40.8899 43.5731C43.1465 42.6729 45.3991 41.7627 47.6606 40.8751C50.4811 39.7681 50.6592 39.8617 51.7838 43.0661ZM13.9364 110.582C16.0898 109.656 17.5738 110.183 18.3886 112.161C19.5833 115.083 20.6621 118.057 22.0048 120.908C22.4277 121.806 23.4379 122.788 24.3566 123.016C26.1256 123.453 28.0234 123.494 29.8624 123.453C30.4411 123.44 31.4079 122.72 31.5091 122.191C32.5509 116.754 33.5087 111.297 34.3211 105.821C34.4265 105.11 33.762 103.781 33.1448 103.544C26.0322 100.813 18.8678 98.2146 11.6851 95.6718C11.2029 95.5011 10.0086 95.9404 9.91004 96.3035C8.86993 100.135 7.9854 104.009 6.97324 108.225C9.43177 107.932 10.0034 109.14 10.3598 110.831C10.9466 113.615 11.7616 116.35 12.4731 119.108C13.2676 122.188 14.0068 122.616 17.6654 121.92C16.4151 118.118 15.173 114.342 13.9364 110.582ZM209.962 42.2368C210.18 42.2851 210.398 42.3334 210.616 42.3817C211.784 41.0736 213.039 39.8291 214.062 38.4163C214.347 38.0233 214.194 36.8086 213.818 36.5177C208.581 32.4634 203.274 28.5004 197.976 24.5252C196.919 23.7317 196.15 24.0621 195.566 25.1802C192.068 31.8734 188.519 38.5397 185.117 45.2811C184.811 45.8892 185.136 47.3309 185.671 47.7655C189.021 50.4847 192.47 53.089 196.005 55.5619C196.525 55.9256 197.745 55.5498 198.51 55.2165C199.088 54.9648 199.394 54.1532 199.931 53.7308C204.844 49.8654 206.638 44.8884 205.846 38.6937C205.466 35.7251 206.52 35.2346 209.678 36.3606C209.772 38.2933 209.867 40.265 209.962 42.2368ZM249.26 117.568C242.751 118.457 236.893 119.221 231.055 120.116C230.571 120.19 229.869 121.147 229.868 121.695C229.86 126.006 229.933 130.321 230.163 134.625C230.197 135.258 231.115 136.274 231.747 136.38C238.962 137.588 246.204 138.631 253.43 139.774C255.206 140.055 256.003 139.538 255.967 137.643C255.864 132.176 255.893 126.707 255.782 121.24C255.752 119.714 255.418 118.194 255.223 116.67C253.458 119.008 252.228 121.386 251.087 123.805C250.481 125.088 249.736 125.887 248.231 125.227C246.73 124.57 246.413 123.425 247.055 122.004C247.618 120.758 248.268 119.552 249.26 117.568ZM205.528 53.8198C203.95 55.5877 202.843 56.9214 201.633 58.1536C200.586 59.2198 200.748 60.0878 201.68 61.1307C204.244 63.9987 206.788 66.8868 209.246 69.8451C210.304 71.1192 211.171 71.2049 212.537 70.2498C218.462 66.1038 224.459 62.0603 230.42 57.9655C230.967 57.5898 231.446 57.1148 232.312 56.3868C228.468 51.9385 224.817 47.5965 221.033 43.3735C218.234 40.25 218.364 40.5356 215.353 43.4154C208.529 49.9419 209.931 48.6227 210.335 58.0108C210.396 59.4122 210.412 60.767 208.592 60.9188C206.774 61.0704 205.929 59.9806 205.781 58.2853C205.671 57.0174 205.634 55.7432 205.528 53.8198ZM150.073 248.476C152.268 245.304 154.298 242.37 156.629 239.001C153.203 238.311 150.327 237.733 146.975 237.058C150.246 233.625 153.213 230.512 156.456 227.11C150.075 228.094 144.232 228.937 138.424 229.974C137.812 230.084 137.002 231.323 136.967 232.07C136.631 239.225 136.484 246.39 136.183 253.547C136.103 255.458 136.865 256.054 138.63 255.787C145.553 254.743 152.482 253.734 159.4 252.652C160.336 252.505 161.219 252.018 162.127 251.688C162.114 251.548 162.101 251.409 162.089 251.269C158.154 250.355 154.219 249.44 150.073 248.476ZM18.0205 186.11C18.25 186.057 18.4795 186.005 18.709 185.952C19.4157 183.213 20.1811 180.488 20.8056 177.73C21.1422 176.244 21.8227 175.888 23.2612 176.32C25.9883 177.138 28.7564 177.82 31.5083 178.554C32.8638 178.916 33.6303 178.502 34.0287 177.046C34.6157 174.9 35.0175 172.521 36.2527 170.776C38.1486 168.097 37.8731 165.693 36.6631 163.04C36.4084 162.482 36.2074 161.892 36.0452 161.299C35.6989 160.033 34.9969 159.621 33.6491 159.88C26.3893 161.276 19.1209 162.63 11.8414 163.918C10.0398 164.237 9.75247 165.058 10.337 166.64C11.6714 170.251 12.838 173.926 14.2369 177.511C15.3743 180.425 16.7504 183.247 18.0205 186.11ZM152.769 6.90826C149.818 6.4933 147.187 6.09199 144.548 5.75861C140.435 5.23905 137.473 6.79502 135.663 10.4265C135.629 10.4953 135.599 10.5663 135.565 10.635C131.174 19.3918 131.417 17.2518 135.537 26.0284C137.406 30.0117 139.67 32.2755 144.259 32.3067C146.342 32.3208 147.107 31.8605 147.499 29.9013C148.568 24.5518 149.778 19.2297 150.98 13.9075C151.482 11.6845 152.105 9.48878 152.769 6.90826ZM40.8554 60.6956C40.8554 62.3087 40.8983 63.224 40.8472 64.1339C40.701 66.7412 40.642 69.3625 40.3106 71.9478C40.0034 74.3438 43.3442 78.1344 45.7485 77.7905C46.2078 77.7248 46.7174 77.307 47.0124 76.9096C49.1706 74.0025 51.3419 71.1003 53.347 68.0887C53.7026 67.5546 53.6298 66.1914 53.2019 65.7619C47.7645 60.3043 42.2454 54.9269 36.6686 49.6116C36.3027 49.263 34.9141 49.2922 34.6478 49.6402C31.3743 53.9193 28.1944 58.2712 25.0518 62.6484C23.9318 64.2084 24.6313 65.1495 26.2961 65.7483C28.4613 66.5273 30.3654 65.9122 32.2757 64.9417C34.9299 63.5933 37.611 62.2977 40.8554 60.6956ZM43.8552 81.9301C36.9308 77.4426 30.1549 73.0704 23.4041 68.6598C22.1213 67.8216 21.4235 68.3675 20.8746 69.4932C18.9892 73.3602 17.0362 77.197 15.2651 81.116C13.9929 83.9308 12.9701 86.8584 11.836 89.7356C12.0302 89.852 12.2244 89.9683 12.4186 90.0846C14.5237 88.2041 16.7935 86.4743 18.6879 84.4013C20.623 82.2837 22.4976 82.1348 25.0442 83.172C29.4539 84.9682 33.9748 86.5016 38.4974 87.9995C39.2112 88.2359 40.6128 87.9939 40.9496 87.4819C42.1163 85.7082 42.9535 83.7176 43.8552 81.9301ZM118.371 242.669C118.371 238.492 118.446 235.104 118.318 231.723C118.286 230.889 117.7 229.459 117.183 229.369C115.004 228.988 112.755 228.997 110.53 228.922C110.41 228.918 110.241 229.431 110.147 229.721C107.853 236.819 105.573 243.921 103.269 251.016C102.856 252.289 103.048 253.057 104.553 253.283C108.202 253.831 111.843 254.44 115.478 255.075C117.057 255.35 117.722 254.809 117.785 253.174C117.93 249.408 118.198 245.646 118.371 242.669ZM5.18442 132.414C5.23797 132.414 5.29154 132.414 5.34508 132.414C5.34508 134.186 5.38442 135.958 5.33435 137.729C5.2803 139.641 5.94179 140.319 7.97616 139.903C13.8626 138.699 19.782 137.655 25.694 136.578C32.445 135.35 30.9871 136.368 31.1215 129.856C31.123 129.779 31.1152 129.701 31.1204 129.624C31.2063 128.378 30.6077 127.842 29.3786 127.702C21.9513 126.854 14.527 125.977 7.10712 125.066C5.63821 124.886 5.14951 125.505 5.17561 126.866C5.21101 128.715 5.18442 130.565 5.18442 132.414ZM84.3844 218.665C83.8998 219.1 83.3519 219.411 83.0616 219.881C79.0949 226.303 75.1719 232.752 71.2155 239.18C70.593 240.192 70.734 240.88 71.8207 241.394C75.0921 242.939 78.3548 244.503 81.6237 246.053C82.6637 246.546 83.3536 246.322 83.7215 245.136C85.9346 238.001 88.1936 230.88 90.3789 223.737C90.5571 223.154 90.5393 222.058 90.2049 221.848C88.3958 220.706 86.4582 219.768 84.3844 218.665ZM121.944 248.431C123.822 247.419 125.385 245.932 126.978 245.898C128.613 245.863 130.278 247.249 132.158 248.119C132.378 242.482 132.564 237.19 132.805 231.901C132.871 230.44 132.163 230.029 130.852 230.043C128.701 230.066 126.544 230.076 124.397 229.961C122.75 229.873 122.234 230.643 122.212 232.148C122.162 235.453 122.019 238.756 121.952 242.06C121.912 244.022 121.944 245.985 121.944 248.431ZM106.366 227.925C105.915 227.552 105.461 226.935 104.866 226.729C102.11 225.78 99.3031 224.978 96.5379 224.054C95.3018 223.641 94.7131 223.962 94.4037 225.247C93.9377 227.183 93.6427 229.269 92.6829 230.954C90.9977 233.913 91.7173 236.039 93.6743 238.575C95.3097 240.695 96.7914 241.51 99.2252 240.401C100.441 239.847 102.399 239.645 102.777 238.755C104.212 235.379 105.138 231.788 106.366 227.925ZM22.6037 87.0009C22.2239 87.2677 21.7129 87.5714 21.2668 87.9513C20.2111 88.8503 19.1963 89.7973 18.1467 90.7035C16.2902 92.3066 16.3503 92.9693 18.6321 93.8329C22.5947 95.3327 26.5921 96.7407 30.5758 98.1848C36.159 100.209 36.1103 100.191 38.02 94.6136C38.5269 93.1333 38.1044 92.5348 36.7454 92.0588C32.5288 90.5818 28.3427 89.018 24.143 87.4928C23.7099 87.3354 23.2648 87.211 22.6037 87.0009ZM6.40167 143.192C6.15576 143.361 5.90994 143.53 5.66402 143.698C6.64708 149.385 7.63009 155.072 8.61314 160.759C8.93467 160.832 9.25623 160.905 9.57776 160.977C11.929 157.778 14.3142 154.603 16.5879 151.35C16.8672 150.95 16.7881 149.775 16.4727 149.566C13.1628 147.37 9.77089 145.298 6.40167 143.192ZM31.3279 139.615C31.1213 139.5 30.9148 139.386 30.7082 139.271C28.5962 142.353 26.4552 145.416 24.4097 148.541C24.1604 148.922 24.2048 149.96 24.4838 150.15C27.5642 152.251 30.718 154.244 34.249 156.522C33.2051 150.48 32.2665 145.047 31.3279 139.615ZM48.7126 215.658C54.3211 215.545 53.6536 216.26 53.664 211.009C53.6732 206.412 54.5661 206.68 49.4238 206.706C43.5473 206.735 44.5691 206.131 44.5129 211.542C44.4635 216.289 44.082 215.663 48.7126 215.658ZM180.832 29.3848C180.422 29.5754 180.219 29.6012 180.162 29.7064C178.949 31.939 177.755 34.1818 176.553 36.4202C174.963 39.3798 175.581 41.7489 178.408 43.5273C180.326 44.734 180.871 44.4053 181.989 42.5189C184.811 37.7605 182.112 33.7274 180.832 29.3848ZM186.207 32.683C189.503 29.3139 190.875 25.6612 192.537 22.1872C191.149 21.1484 189.829 19.9955 188.344 19.12C187.624 18.6954 185.977 18.4296 185.814 18.7103C184.921 20.2471 183.683 22.0389 183.831 23.6247C184.1 26.5003 185.261 29.2925 186.207 32.683ZM22.502 186.961C22.8553 187.338 23.2311 188.094 23.7902 188.271C25.6341 188.855 27.5437 189.232 29.4332 189.666C29.4766 189.676 29.6051 189.428 29.6536 189.286C30.2521 187.537 30.9094 185.803 31.3826 184.02C31.4828 183.643 30.9957 182.775 30.6206 182.663C28.9325 182.157 27.2006 181.701 25.4553 181.537C24.8611 181.481 23.8806 182.196 23.6049 182.799C23.0707 183.969 22.9111 185.311 22.502 186.961ZM125.137 5.28016C126.468 7.98266 127.673 10.4318 129.11 13.3504C130.849 10.3874 132.265 7.97521 133.847 5.28016H125.137ZM132.204 255.672C132.448 255.38 132.691 255.087 132.934 254.795C131.398 253.529 129.883 252.235 128.309 251.017C127.939 250.731 127.174 250.425 126.921 250.601C124.906 252.006 122.971 253.526 121.011 255.011C121.119 255.231 121.226 255.452 121.335 255.672L132.204 255.672ZM45.2079 181.768C43.432 178.429 41.9279 175.602 40.4239 172.774C40.1809 172.791 39.9379 172.808 39.6949 172.825C39.0639 174.835 38.3606 176.826 37.855 178.867C37.7358 179.348 38.1788 180.404 38.5405 180.496C40.5618 181.008 42.6376 181.305 45.2079 181.768ZM81.9409 43.9576C81.9146 43.7438 81.8883 43.53 81.862 43.3162C78.5472 42.7099 75.2323 42.1035 71.1948 41.365C72.5491 43.6888 73.4859 45.4224 74.5729 47.056C74.7932 47.387 75.7283 47.614 76.0824 47.423C78.0777 46.3466 79.9962 45.1278 81.9409 43.9576ZM133.842 31.0126C132.118 28.3458 130.695 26.1446 128.993 23.5135C127.73 26.2789 126.706 28.521 125.567 31.0126H133.842ZM87.2993 248.21C91.0308 249.419 94.2336 250.462 97.4422 251.488C97.8584 251.621 98.3042 251.661 98.8337 251.764C96.1714 245.933 93.5566 245.048 87.2993 248.21ZM14.4065 142.63C15.9604 144.603 17.2497 146.698 19.4093 146.412C21.9101 146.082 23.0605 143.727 24.1522 141.122C20.7837 141.643 17.7983 142.105 14.4065 142.63ZM26.0792 157.009C26.159 156.743 26.2387 156.478 26.3186 156.213C24.5638 155.314 22.7265 153.567 21.0748 153.727C18.9337 153.936 17.9363 156.4 16.7206 158.98C20.2885 158.228 23.1838 157.619 26.0792 157.009ZM247.387 176.584C247.203 176.426 247.018 176.268 246.833 176.11C244.236 176.829 241.639 177.548 239.042 178.267C239.009 178.459 238.976 178.65 238.943 178.842C240.618 179.696 242.266 180.613 243.989 181.355C244.379 181.523 245.327 181.238 245.511 180.891C246.245 179.513 246.779 178.029 247.387 176.584ZM237.422 183.444C237.297 183.652 237.172 183.86 237.048 184.068C238.105 186.282 239.162 188.497 240.462 191.22C241.552 189.174 242.352 187.674 243.297 185.9C241.107 184.985 239.265 184.214 237.422 183.444ZM157.136 245.88C159.347 246.26 160.868 246.522 162.836 246.861C162.43 244.474 162.1 242.536 161.771 240.599C161.494 240.535 161.217 240.471 160.94 240.407C159.779 242.077 158.618 243.747 157.136 245.88ZM253.971 153.86C254.427 151.023 254.797 148.724 255.167 146.424C254.974 146.314 254.782 146.204 254.589 146.094C253.136 147.347 251.682 148.6 250.035 150.02C251.363 151.316 252.443 152.37 253.971 153.86ZM229.501 142.397C229.194 144.733 228.887 147.069 228.549 149.639C232.689 148.05 232.921 146.525 229.501 142.397ZM6.91923 112.987C6.73334 112.998 6.54734 113.01 6.36145 113.021C6.11854 115.134 5.77979 117.243 5.71408 119.361C5.70107 119.781 6.69203 120.453 7.3063 120.575C7.60108 120.634 8.50718 119.607 8.43328 119.199C8.05446 117.105 7.44688 115.053 6.91923 112.987ZM67.3606 34.289C68.209 32.6194 68.8606 31.3371 69.5471 29.9861H63.7304C65.0953 31.6039 66.0967 32.7909 67.3606 34.289ZM36.9927 66.2632C35.31 67.1888 33.9876 67.9161 32.0878 68.9611C34.018 70.1154 35.3635 70.9199 36.9927 71.8942V66.2632ZM159.531 231.279C159.283 231.131 159.036 230.984 158.789 230.837C157.582 231.911 156.374 232.986 155.167 234.06C155.264 234.291 155.36 234.522 155.456 234.753C156.958 234.963 158.459 235.173 160.347 235.438C160.013 233.736 159.772 232.507 159.531 231.279ZM159.652 16.5355C157.825 15.0565 156.526 14.0045 154.792 12.6008V17.9316C156.345 17.4853 157.625 17.1178 159.652 16.5355ZM101.703 243.264C100.066 243.767 99.1621 244.044 97.6452 244.51C98.5674 245.55 99.1387 246.194 100.104 247.283C100.774 245.599 101.113 244.748 101.703 243.264ZM91.2882 243.422C91.4073 243.18 91.5263 242.938 91.6454 242.696C91.0408 241.913 90.4363 241.13 89.8317 240.348C89.6339 240.399 89.4361 240.451 89.2384 240.503C89.189 241.339 88.874 242.302 89.19 242.964C89.3791 243.361 90.5555 243.286 91.2882 243.422Z" fill="#FCD37B" fill-opacity="0.15"/>
</svg>
