<svg xmlns="http://www.w3.org/2000/svg" viewBox="0 0 282.99 282.99"><defs><style>.cls-1{fill:#fff;}</style></defs><g id="Layer_2" data-name="Layer 2"><g id="Layer_1-2" data-name="Layer 1"><circle class="cls-1" cx="141.5" cy="141.5" r="141.5"/><path d="M277.68,140.06c0,77.37-59.57,137.58-136.26,137.35-79.81-.25-136-64-136.13-134.37C5.14,63.54,68.5,5.41,142.87,5.59,216.41,5.76,279.26,69.25,277.68,140.06ZM69,217.79l23.12,16.43c-2.67,5.09-5.19,9.92-7.76,14.83l-12.6-7.71.47-1.46c3.68-1.31,5.8,3.56,9.3,3.57,1.73-2.87,3.51-5.79,5.43-8.95l-17.15-12-15.68,19A127.65,127.65,0,0,0,92.72,265c3.48-8.67,6.83-17,10.24-25.45,9.28,2.13,18.31,4.18,27.32,6.32.53.13,1.31,1,1.29,1.43-.21,5.09-.56,10.18-.89,15.37l-15-2.25,1-2.81,8.57,1.35c.4-3.8.76-7.15,1.13-10.67l-19.47-4.84-8.4,23.73c14.89,4.53,29.6,7.65,45.2,7V247l28.39-4.59,5,15.54c-4.3,1.15-8.23,2.27-12.2,3.19-.64.15-1.5-.62-2.26-1,.53-.66.93-1.67,1.61-1.91,2.19-.79,4.49-1.29,7-2l-2.57-10.18-20.26,3c0,1.51-.11,2.79,0,4,.54,5.57,1.19,11.12,1.73,16.69.31,3.21,1.3,4.09,4.57,3.64,2.57-.36,5.11-.86,7.68-1.2,11.27-1.5,21.92-5.15,32.83-8.86-.49-1.21-.86-2.19-1.28-3.15q-4.32-10.06-8.67-20.12c-.57-1.33-1.15-2.38.66-3.46,7.31-4.36,14.52-8.89,21.93-13.45L219,235.9c-4.05,2.84-7.91,5.54-12.24,8.59-1.18-5.4,4.64-5.22,5.72-8.63l-5.88-8.28-17.27,10.94c3.83,7.43,7.53,14.63,11.32,22a131.2,131.2,0,0,0,36.41-26.89l-19.32-19.51,16.62-23.23,14.82,7.75-7.67,12.55-2.33-1.53,4.81-7.95L234.58,196l-11.91,17.13,18.81,15.5c7.93-7.49,20.38-27.8,23.57-38.41-7.67-3.06-15.35-6.19-23.08-9.16-1.74-.67-2.35-1.49-1.91-3.32,2-8.13,3.82-16.28,5.81-24.4.18-.76,1.06-2,1.58-1.94,5,.18,10.06.58,15.33.94l-2.15,14.79-2.85-.7c.45-2.94.86-5.64,1.29-8.47l-10.6-1.39c-1.65,6.52-3.28,12.91-5,19.54l23.82,8.39c4.54-14.82,7.66-29.4,7-44.95H247.19c-1.58-9.63-3.1-18.93-4.66-28.43l15.64-5c1.23,4.79,2.4,9.31,3.59,13.92l-2.8.71L256.49,112c-2.86.69-5.36,1.33-7.88,1.87-1.62.34-2.43,1.07-2.14,2.86,1,5.9,1.88,11.81,2.88,18.11,7.72-.62,15.25-1.15,22.74-1.94.67-.07,1.71-1.86,1.65-2.79-.2-3.2-.83-6.38-1.27-9.57-1.54-11.18-5.18-21.79-8.88-32.59l-25.68,11L223.35,75.41l12.7-11.08,8.68,12.37c-5.46.71-5.43-4.69-8.65-5.93l-8.4,5.94,11,17.22L260.74,82.6C253.58,69,245.09,56.78,233.8,46.45L214.1,65.56,190.9,49l7.8-14.78L211.42,42l-.51,1.4c-3.71,1.08-5.88-3.29-9.36-3.74l-5.48,9.08,17.16,11.91c5.3-6.41,10.47-12.67,15.67-19a130.63,130.63,0,0,0-38.56-23.44c-3.49,8.64-6.89,17-10.31,25.48l-28.7-6.66c.32-5.51.63-10.92.94-16.44l15,2.17-.91,2.86-8.44-1.35c-.44,3.28-.91,6.13-1.14,9a2.33,2.33,0,0,0,1.12,1.93c6,1.6,12,3.05,18.21,4.57,2.87-8,5.62-15.76,8.45-23.71-14.8-4.57-29.49-7.58-45.07-7-.07,1.39-.17,2.55-.18,3.7,0,6.9-.09,13.8.05,20.7,0,2.21-.79,3-2.85,3.33C128.72,38,121,39.27,113.19,40.58c-1.72.29-2.47-.16-3-1.92-1.26-4.41-2.78-8.75-4.3-13.45l14.7-3.68c-1.19,5.59-6.36,3.28-8.73,5.79.62,2.56,1.18,5.28,2,7.92.21.67,1.32,1.59,1.9,1.51,6.27-.77,12.51-1.72,19-2.67-.72-7.42-1.44-14.36-2-21.32-.26-3-2.05-3.4-4.52-2.91-5.29,1-10.63,1.85-15.87,3.1-8.22,2-16.38,4.24-24.88,6.46L98.72,45.48,75.12,60,64.05,47.35,75.5,39.24c1.68,1,2,2,.37,3.24-1.86,1.41-3.66,2.9-5.6,4.46l6.15,8.78,17.27-11-11.34-22c-13.68,7.18-26,15.7-36.12,26.72L65.13,69.3l-16.45,23L33.82,84.58c2.73-4.43,5.27-8.53,8.26-13.36,2.63,4.94-2.48,6.89-2.67,10.53l9,5.45c4.11-5.89,8-11.44,12-17.11l-19-15.62A127.08,127.08,0,0,0,17.85,92.93l25.54,10.25c-2.24,9.66-4.44,19.12-6.66,28.72l-16.47-1c.63-4.36,1.38-8.25,1.69-12.18.22-2.63,1.25-2.79,3.35-1.89l-1.41,8.41c3.2.43,6.06.9,9,1.12a2.54,2.54,0,0,0,2.06-1.19c1.62-6,3.07-12,4.6-18.06L15.79,98.7C11,113.34,8.25,128.05,8.6,143.64h3.87c6.94,0,13.88.09,20.82,0,2.12,0,2.78.79,3.08,2.71,1.19,7.75,2.57,15.46,3.7,23.21.15,1-.5,2.75-1.21,3-4.58,1.69-9.28,3.06-14,4.56-1.22-4.83-2.37-9.36-3.67-14.52,5.55,1,3.19,6.37,5.89,8.65l9.76-2.6-3.12-20.18c-7.41.6-14.31,1.11-21.2,1.74-2.67.25-3.65,1.65-3,4.46C10.76,160.72,11.58,166.9,13,173c1.78,7.46,4,14.82,6.07,22.5l26.06-11.14c4.92,8,9.71,15.75,14.51,23.53L47,218.9c-2.8-4-5.47-7.7-8.12-11.42,1.06-1.74,2-1.93,3.25-.33,1.36,1.8,2.82,3.53,4.44,5.54l8.82-6.12c-3.76-5.88-7.35-11.48-11-17.26l-22,11.31c7.18,13.85,15.74,26,26.81,36Z"/><path class="cls-1" d="M69,217.79,49.15,236.61c-11.07-10-19.63-22.14-26.81-36l22-11.31c3.69,5.78,7.28,11.38,11,17.26l-8.82,6.12c-1.62-2-3.08-3.74-4.44-5.54-1.21-1.6-2.19-1.41-3.25.33C41.54,211.2,44.21,215,47,218.9l12.65-11.06c-4.8-7.78-9.59-15.54-14.51-23.53L19.09,195.45C17,187.77,14.8,180.41,13,173c-1.44-6-2.26-12.23-3.59-18.31-.61-2.81.37-4.21,3-4.46,6.89-.63,13.79-1.14,21.2-1.74l3.12,20.18L27,171.22c-2.7-2.28-.34-7.61-5.89-8.65,1.3,5.16,2.45,9.69,3.67,14.52,4.77-1.5,9.47-2.87,14.05-4.56.71-.26,1.36-2.05,1.21-3-1.13-7.75-2.51-15.46-3.7-23.21-.3-1.92-1-2.75-3.08-2.71-6.94.13-13.88,0-20.82,0H8.6c-.35-15.59,2.4-30.3,7.19-44.94l23.71,8.4c-1.53,6.1-3,12.1-4.6,18.06a2.54,2.54,0,0,1-2.06,1.19c-2.89-.22-5.75-.69-9-1.12l1.41-8.41c-2.1-.9-3.13-.74-3.35,1.89-.31,3.93-1.06,7.82-1.69,12.18l16.47,1c2.22-9.6,4.42-19.06,6.66-28.72L17.85,92.93A127.08,127.08,0,0,1,41.4,54.47l19,15.62c-4,5.67-7.85,11.22-12,17.11l-9-5.45c.19-3.64,5.3-5.59,2.67-10.53-3,4.83-5.53,8.93-8.26,13.36l14.86,7.77,16.45-23L46.23,49.41c10.12-11,22.44-19.54,36.12-26.72l11.34,22-17.27,11-6.15-8.78c1.94-1.56,3.74-3,5.6-4.46,1.62-1.23,1.31-2.2-.37-3.24L64.05,47.35,75.12,60l23.6-14.49L87.51,19.41c8.5-2.22,16.66-4.48,24.88-6.46,5.24-1.25,10.58-2.07,15.87-3.1,2.47-.49,4.26-.14,4.52,2.91.6,7,1.32,13.9,2,21.32-6.53,1-12.77,1.9-19,2.67-.58.08-1.69-.84-1.9-1.51-.81-2.64-1.37-5.36-2-7.92,2.37-2.51,7.54-.2,8.73-5.79l-14.7,3.68c1.52,4.7,3,9,4.3,13.45.5,1.76,1.25,2.21,3,1.92,7.76-1.31,15.53-2.59,23.32-3.77,2.06-.32,2.89-1.12,2.85-3.33-.14-6.9-.06-13.8-.05-20.7,0-1.15.11-2.31.18-3.7,15.58-.54,30.27,2.47,45.07,7-2.83,8-5.58,15.67-8.45,23.71-6.18-1.52-12.22-3-18.21-4.57a2.33,2.33,0,0,1-1.12-1.93c.23-2.88.7-5.73,1.14-9l8.44,1.35.91-2.86-15-2.17c-.31,5.52-.62,10.93-.94,16.44L180,43.74c3.42-8.45,6.82-16.84,10.31-25.48A130.63,130.63,0,0,1,228.9,41.7c-5.2,6.31-10.37,12.57-15.67,19L196.07,48.77l5.48-9.08c3.48.45,5.65,4.82,9.36,3.74l.51-1.4L198.7,34.19,190.9,49l23.2,16.59,19.7-19.11C245.09,56.78,253.58,69,260.74,82.6L238.65,93.93l-11-17.22,8.4-5.94c3.22,1.24,3.19,6.64,8.65,5.93l-8.68-12.37-12.7,11.08,14.56,23.51,25.68-11c3.7,10.8,7.34,21.41,8.88,32.59.44,3.19,1.07,6.37,1.27,9.57.06.93-1,2.72-1.65,2.79-7.49.79-15,1.32-22.74,1.94-1-6.3-1.9-12.21-2.88-18.11-.29-1.79.52-2.52,2.14-2.86,2.52-.54,5-1.18,7.88-1.87l2.47,8.77,2.8-.71c-1.19-4.61-2.36-9.13-3.59-13.92l-15.64,5c1.56,9.5,3.08,18.8,4.66,28.43h27.12c.68,15.55-2.44,30.13-7,44.95l-23.82-8.39c1.68-6.63,3.31-13,5-19.54l10.6,1.39c-.43,2.83-.84,5.53-1.29,8.47l2.85.7,2.15-14.79c-5.27-.36-10.3-.76-15.33-.94-.52,0-1.4,1.18-1.58,1.94-2,8.12-3.85,16.27-5.81,24.4-.44,1.83.17,2.65,1.91,3.32,7.73,3,15.41,6.1,23.08,9.16-3.19,10.61-15.64,30.92-23.57,38.41l-18.81-15.5L234.58,196l9.41,5.67-4.81,7.95,2.33,1.53,7.67-12.55-14.82-7.75-16.62,23.23,19.32,19.51a131.2,131.2,0,0,1-36.41,26.89c-3.79-7.37-7.49-14.57-11.32-22l17.27-10.94,5.88,8.28c-1.08,3.41-6.9,3.23-5.72,8.63,4.33-3.05,8.19-5.75,12.24-8.59l-11.11-12.65c-7.41,4.56-14.62,9.09-21.93,13.45-1.81,1.08-1.23,2.13-.66,3.46q4.37,10.05,8.67,20.12c.42,1,.79,1.94,1.28,3.15-10.91,3.71-21.56,7.36-32.83,8.86-2.57.34-5.11.84-7.68,1.2-3.27.45-4.26-.43-4.57-3.64-.54-5.57-1.19-11.12-1.73-16.69-.13-1.25,0-2.53,0-4l20.26-3,2.57,10.18c-2.55.68-4.85,1.18-7,2-.68.24-1.08,1.25-1.61,1.91.76.35,1.62,1.12,2.26,1,4-.92,7.9-2,12.2-3.19l-5-15.54L143.69,247v27.1c-15.6.68-30.31-2.44-45.2-7l8.4-23.73,19.47,4.84c-.37,3.52-.73,6.87-1.13,10.67l-8.57-1.35-1,2.81,15,2.25c.33-5.19.68-10.28.89-15.37,0-.47-.76-1.3-1.29-1.43-9-2.14-18-4.19-27.32-6.32C99.55,248,96.2,256.29,92.72,265a127.65,127.65,0,0,1-38.59-23.44l15.68-19L87,234.5c-1.92,3.16-3.7,6.08-5.43,8.95-3.5,0-5.62-4.88-9.3-3.57l-.47,1.46,12.6,7.71c2.57-4.91,5.09-9.74,7.76-14.83Zm53.23,35.58c-.54-.78-.93-2.06-1.64-2.27-3.61-1.07-7.3-1.85-11.22-2.79-1.84,5.48-3.64,10.84-5.53,16.43a132.07,132.07,0,0,0,36,5.5V243.51L175,237.77c2.32,7.13,4.76,14.64,7.25,22.32-7.57,2.94-14.78,5.72-22.93,5-.48-3.27-.93-6.31-1.38-9.38l9-2.48c-2.21-2.53-11.72-2.28-13.5.1a2.45,2.45,0,0,0-.53,1.46c.28,4.92.64,9.83,1,15.07,12.61-1.13,24.43-3.65,35.86-8.74-3.54-8.35-7-16.45-10.52-24.82l29.24-18,16.24,18L206,249.94l-5.71-9.28,7.17-5.08-2.06-2.5-11.36,7c2.8,5.32,5.44,10.31,8.1,15.35,10.86-6,20.6-12.73,29-21.56L211.8,214.41c3.84-4.57,7.81-8.86,11.27-13.53s6.36-9.65,9.56-14.58l22,11.06-12.2,19.76-8.58-6.58,4.75-7.62-2.88-1.55L228,212.63l13.16,10.81a127.93,127.93,0,0,0,18.64-30.69l-24.81-10.08,8.55-35.16,23.9,1.14c-1.16,7.34-2.18,14.25-3.42,21.12a3,3,0,0,1-2.35,1.63c-2.84-.35-5.64-1.07-8.54-1.68.43-3.08.8-5.8,1.18-8.53l-1-.32c-4.1,3.2-2.93,8.53-4.84,12.83l16.54,5.47a131.05,131.05,0,0,0,5.54-35.67H243.69l-5.82-35.24,22.4-7.24c3,7.64,5.77,14.87,5,22.9l-9.5,1.37c-.59-2.46-1-4.67-1.68-6.81-.2-.61-1.14-1-1.74-1.46-.41.62-1.22,1.27-1.17,1.86a90.82,90.82,0,0,0,1.26,9.59c.16.79,1.4,2,2.09,1.93,5.14-.25,10.27-.76,15.57-1.21-1.27-12.54-3.64-24.35-8.84-35.62l-24.84,10.48-18-29.18,18.07-16.19c4.56,6.23,9,12.31,13.64,18.62L240.84,83l-5.26-7.12L233.21,78c2.42,3.83,4.7,7.46,7.06,11.21l15.34-8c-6-10.88-12.83-20.57-21.6-29L214.5,70.81,186.62,50.17l10.71-21.35L217.16,41l-6.53,8.63-7.49-4.7-1.94,2.63,11.49,7.88,10.85-13.1a128,128,0,0,0-30.76-18.65c-3.46,8.48-6.78,16.61-10.13,24.8l-35.2-8.6c.36-8.08.71-15.76,1.07-23.66,6.36.87,12.26,1.56,18.11,2.56,1.72.3,4.7,1.58,4.66,2.27a40,40,0,0,1-2.1,8.89c-.07.22-1.37.19-2.08.09-1.89-.26-3.78-.63-6.78-1.15.95,1.67,1.26,3.06,1.93,3.26,3.7,1.08,7.48,1.88,11.43,2.82,1.86-5.59,3.62-10.93,5.45-16.44A131.58,131.58,0,0,0,143.33,13V39.65l-35.25,5.9L100.77,23.1c6.85-2.69,13.55-5,20.79-5.19.8,0,2.2.77,2.33,1.39.57,2.69.78,5.46,1.11,8.15-2.43.8-4.51,1.39-6.49,2.23-.6.25-.91,1.2-1.35,1.82.65.24,1.32.73,1.94.67a85,85,0,0,0,9-1.22c.85-.18,2.11-1.47,2.08-2.21-.17-5-.65-10-1.05-15.43-12.48,1.28-24.33,3.67-35.8,8.81L103.85,47l-29.29,18-16.19-18L77.05,33.31l5.67,9.29-7.1,5,1.95,2.59c3.89-2.44,7.61-4.76,11.39-7.11l-8-15.31C70.17,33.71,60.35,40.38,52,49.31L70.81,68.46l-21,28.17L28.43,85.92,40.59,66.15l8.66,6.5-4.76,7.63L47.27,82l7.81-11.36L41.94,59.8c-7.87,9.37-13.73,19.64-18.73,30.67l24.89,10.1-8.61,35.16-23.82-1.16c.79-5.16,1.39-9.75,2.21-14.3,1.74-9.74,1.79-9.73,12-6.52L28.76,122l1.23.35c3.81-3.28,2.89-8.43,4.64-12.78l-16.47-5.51a125,125,0,0,0-5.54,35.72H39.34c2,11.94,3.9,23.34,5.87,35.18l-22.29,7.21A57.41,57.41,0,0,1,17.5,162.6c-.21-2.22.17-3.71,3-3.7a45.83,45.83,0,0,0,6.64-.94c.6,2.29,1.09,4.47,1.8,6.58.21.63,1.07,1.05,1.63,1.57.41-.64,1.21-1.3,1.16-1.9a55.73,55.73,0,0,0-1.22-8.94,3.74,3.74,0,0,0-2.84-2.18c-4.84.07-9.68.52-14.82.85,1.38,12.49,3.69,24.37,8.88,35.74L46.6,179.19l18,29.19L46.53,224.57,32.93,206l9.33-5.67,5,7,2.73-1.73-7.15-11.47-15.38,8c5.9,10.72,12.65,20.48,21.44,28.77l19.31-18.67,28.26,20.89L85.66,254.43,65.83,242.28l6.61-8.62,7.5,4.76,1.77-2.77-11.38-7.8-10.66,12.9c5.92,6.08,24.14,16.9,30.81,18.27l9.87-24.18L130.14,242c5.28,1.26,5.29,1.26,5.13,6.85-.09,3-.16,6-.31,9s-.38,6.1-.58,9.26L111.3,263.8C111.76,253.8,112.75,252.84,122.23,253.37Z"/><path d="M122.23,253.37c-9.48-.53-10.47.43-10.93,10.43l23.08,3.31c.2-3.16.43-6.21.58-9.26s.22-6,.31-9c.16-5.59.15-5.59-5.13-6.85l-29.79-7.12L90.48,259c-6.67-1.37-24.89-12.19-30.81-18.27l10.66-12.9,11.38,7.8-1.77,2.77-7.5-4.76-6.61,8.62,19.83,12.15,10.76-21.37L68.16,212.17,48.85,230.84c-8.79-8.29-15.54-18.05-21.44-28.77l15.38-8,7.15,11.47-2.73,1.73-5-7L32.93,206l13.6,18.62,18.09-16.19-18-29.19L21.73,189.68c-5.19-11.37-7.5-23.25-8.88-35.74,5.14-.33,10-.78,14.82-.85a3.74,3.74,0,0,1,2.84,2.18,55.73,55.73,0,0,1,1.22,8.94c.05.6-.75,1.26-1.16,1.9-.56-.52-1.42-.94-1.63-1.57-.71-2.11-1.2-4.29-1.8-6.58a45.83,45.83,0,0,1-6.64.94c-2.83,0-3.21,1.48-3,3.7a57.41,57.41,0,0,0,5.42,19.57L45.21,175c-2-11.84-3.88-23.24-5.87-35.18H12.62a125,125,0,0,1,5.54-35.72l16.47,5.51c-1.75,4.35-.83,9.5-4.64,12.78L28.76,122l1.12-8.25c-10.21-3.21-10.26-3.22-12,6.52-.82,4.55-1.42,9.14-2.21,14.3l23.82,1.16,8.61-35.16L23.21,90.47c5-11,10.86-21.3,18.73-30.67L55.08,70.59,47.27,82l-2.78-1.67,4.76-7.63-8.66-6.5L28.43,85.92,49.82,96.63l21-28.17L52,49.31c8.37-8.93,18.19-15.6,28.94-21.51l8,15.31c-3.78,2.35-7.5,4.67-11.39,7.11l-1.95-2.59,7.1-5-5.67-9.29L58.37,46.86l16.19,18,29.29-18L93.33,22.12c11.47-5.14,23.32-7.53,35.8-8.81.4,5.38.88,10.4,1.05,15.43,0,.74-1.23,2-2.08,2.21a85,85,0,0,1-9,1.22c-.62.06-1.29-.43-1.94-.67.44-.62.75-1.57,1.35-1.82,2-.84,4.06-1.43,6.49-2.23-.33-2.69-.54-5.46-1.11-8.15-.13-.62-1.53-1.4-2.33-1.39-7.24.16-13.94,2.5-20.79,5.19l7.31,22.45,35.25-5.9V13a131.58,131.58,0,0,1,35.81,5.47c-1.83,5.51-3.59,10.85-5.45,16.44-3.95-.94-7.73-1.74-11.43-2.82-.67-.2-1-1.59-1.93-3.26,3,.52,4.89.89,6.78,1.15.71.1,2,.13,2.08-.09a40,40,0,0,0,2.1-8.89c0-.69-2.94-2-4.66-2.27-5.85-1-11.75-1.69-18.11-2.56-.36,7.9-.71,15.58-1.07,23.66l35.2,8.6c3.35-8.19,6.67-16.32,10.13-24.8A128,128,0,0,1,223.54,42.3L212.69,55.4,201.2,47.52l1.94-2.63,7.49,4.7L217.16,41,197.33,28.82,186.62,50.17,214.5,70.81,234,52.16c8.77,8.44,15.64,18.13,21.6,29l-15.34,8c-2.36-3.75-4.64-7.38-7.06-11.21l2.37-2.13L240.84,83l9.27-5.65C245.48,71,241,64.91,236.47,58.68L218.4,74.87l18,29.18,24.84-10.48c5.2,11.27,7.57,23.08,8.84,35.62-5.3.45-10.43,1-15.57,1.21-.69,0-1.93-1.14-2.09-1.93a90.82,90.82,0,0,1-1.26-9.59c-.05-.59.76-1.24,1.17-1.86.6.48,1.54.85,1.74,1.46.67,2.14,1.09,4.35,1.68,6.81l9.5-1.37c.77-8-2-15.26-5-22.9l-22.4,7.24,5.82,35.24h26.77a131.05,131.05,0,0,1-5.54,35.67l-16.54-5.47c1.91-4.3.74-9.63,4.84-12.83l1,.32c-.38,2.73-.75,5.45-1.18,8.53,2.9.61,5.7,1.33,8.54,1.68a3,3,0,0,0,2.35-1.63c1.24-6.87,2.26-13.78,3.42-21.12l-23.9-1.14-8.55,35.16,24.81,10.08a127.93,127.93,0,0,1-18.64,30.69L228,212.63l7.74-11.26,2.88,1.55-4.75,7.62,8.58,6.58,12.2-19.76-22-11.06c-3.2,4.93-6.12,9.95-9.56,14.58s-7.43,9-11.27,13.53l19.33,19.48c-8.38,8.83-18.12,15.54-29,21.56-2.66-5-5.3-10-8.1-15.35l11.36-7,2.06,2.5-7.17,5.08,5.71,9.28,18.65-13.6-16.24-18-29.24,18c3.54,8.37,7,16.47,10.52,24.82-11.43,5.09-23.25,7.61-35.86,8.74-.35-5.24-.71-10.15-1-15.07a2.45,2.45,0,0,1,.53-1.46c1.78-2.38,11.29-2.63,13.5-.1l-9,2.48c.45,3.07.9,6.11,1.38,9.38,8.15.72,15.36-2.06,22.93-5-2.49-7.68-4.93-15.19-7.25-22.32l-35.14,5.74v26.73a132.07,132.07,0,0,1-36-5.5c1.89-5.59,3.69-11,5.53-16.43,3.92.94,7.61,1.72,11.22,2.79C121.3,251.31,121.69,252.59,122.23,253.37ZM105.9,109.61c1.18-.16,2.12-.28,3-.42,2.07-.31,3.53.29,4.34,2.4,1,2.73-.24,4.58-2.13,6.19a3.64,3.64,0,0,1-5,.23c-3.07-2.4-3.3-5.72-2.7-9.09a6.65,6.65,0,0,1,5.6-5.54c6.45-1.38,11.6,2,12.54,8.69a14.17,14.17,0,0,0,6,9.88,22.85,22.85,0,0,0,15.59,4.21c8.89-.6,14.92-5.12,17.66-13.43a39.79,39.79,0,0,1,1.85-5.14c1.74-3.55,5.08-4.55,8.67-4.51,3.3,0,6.11,1.32,7.4,4.72a8.89,8.89,0,0,1-1.47,9.38,3.84,3.84,0,0,1-5.48.89c-2.3-1.5-3.4-3.67-2.62-6.38.64-2.23,2.39-2.88,4.61-2.48.92.16,1.85.26,2.78.39l.65-.73c-1.21-1.29-2.19-3.1-3.68-3.78-4.19-1.89-9.89,1.27-11,5.75a12,12,0,0,0,4.9,12.75c5.51,3.71,14.39,3.47,19.17-.51a17.12,17.12,0,0,0,4.68-19.61,4.91,4.91,0,0,0-5-3.29c-9.75.07-19.51-.08-29.25.15a7.19,7.19,0,0,0-4.83,2.4c-6.4,8.06-15.5,8.1-21.91.11a7.57,7.57,0,0,0-5.06-2.51c-8.66-.25-17.33-.11-26-.12-6.88,0-8,.78-9.2,7.49a15.26,15.26,0,0,0,.38,6.65c1.64,5.7,5.06,10.25,11.14,11.44,5.77,1.13,11.51.51,15.83-4.29,4.77-5.3,3.51-13.64-2.38-16.22C110.61,103.33,106.4,105.15,105.9,109.61Zm85.78-19.68c.07-1.13.1-2.29.21-3.45.49-5.12,0-5.66-5-5.66l-92.27,0c-1.15,0-2.3.12-3.55.18v9.4c.72,0,1.24,0,1.76,0,10.5-.17,21-.42,31.49-.47a7.54,7.54,0,0,0,6.81-3.29,12.36,12.36,0,0,1,20-.34c2,2.78,4.33,3.7,7.66,3.65C169.63,89.84,180.45,89.93,191.68,89.93Zm-53.63,70.32c1.19-2-1.11-5.58,2.67-5.59s1.3,3.85,2.78,5.62h4.24c.82-2.08,1.55-3.91,2.27-5.73l1.27.11,1.7,5.53h4.46l1.71-5.56,1.41.13c.36,1.86.73,3.72,1.08,5.54h4.89c.91-4.27,1.76-8.25,2.62-12.26H113.21c.94,4.29,1.82,8.31,2.67,12.16h4.37c.61-2.06,1.13-3.79,1.64-5.53l1,.08,1.47,5.5h4.19l2-5.6,1.09.09,1.57,5.51Zm3.26-53.43a11.71,11.71,0,0,0-.16-23.42c-6.24.06-11.15,5.28-11.13,11.82A11.31,11.31,0,0,0,141.31,106.82ZM112.06,133.1h59.31c-2.05-2-4.34-3.76-6.05-6a60.87,60.87,0,0,1-4.31-7.42c-13.37,12.1-24.38,12.09-39.07.48Zm-7,4.82.19,1.79c1.65.42,3.29,1.2,4.93,1.21,20.79.08,41.57.05,62.36,0,.86,0,1.89.28,2.55-.08a4.29,4.29,0,0,0,2.13-2.29c.12-.58-1.05-1.66-1.87-2.12a5.76,5.76,0,0,0-2.55-.2c-21,0-42-.06-63,0C108.26,136.32,106.69,137.36,105.11,137.92ZM94.25,98h34.31V92.19H94.25Zm59.84,0h34.25V92.22H154.09Zm-5.57,102.3V167.67h-5.33v33.48Zm-10.18.67V167.73h-5.48v32.6c1.08.1,1.94.15,2.8.25S137.32,200.82,138.34,201Zm14.11-1.44C158,199,158,199,158,194V167.69h-5.55Zm-28.6-31.91c0,9.52-.1,18.73.05,27.94.06,3.41,1.27,4,5.19,3.28V167.62Zm37.57,29.44c2.4-.63,5.48-.31,5.56-3.52.21-8.58.07-17.17.07-25.84h-5.63Zm13-53.22A26.11,26.11,0,0,0,170,143q-28.92-.08-57.85,0a14.9,14.9,0,0,0-3.36.9C111.31,146,171,146.13,174.38,143.84Zm-5.5,20.86v-1a12,12,0,0,0-3.1-.86q-24.54-.06-49.07,0a11,11,0,0,0-3,.89l.07,1a22.8,22.8,0,0,0,4.19.76q23.4.09,46.81,0A21.22,21.22,0,0,0,168.88,164.7Zm-53.32,2.91c0,8.45-.06,16.6,0,24.75,0,3.61,1.19,4.4,5.09,3.91V167.61Zm-4,32.43c-7.9-4.58-18.31-3.55-23.08,2.14C96.5,206.1,103.9,204.28,111.52,200Zm60.16.05c5.71,4.46,17.39,6.16,22.31,1.59C188.07,196.29,177,195.5,171.68,200.09Zm-60.87-3.43c7.65,4.91,18.15,5.81,28.48,8.92-4.27,2.83-8,5.51-9.39,11.08,3.2-5,6.33-9.66,12-9.2s8.53,5.08,10.88,9.8c-.29-5.59-5.45-7.74-8.61-11.77l25.15-7c-8.5,1.38-16.82,3.47-25.17,5.36a12.76,12.76,0,0,1-5.7.06C128.76,201.53,119.17,198.89,110.81,196.66ZM198.73,80.34c-4.74,6.2-4.69,16.67.1,21.52C202.85,95,202.8,85.63,198.73,80.34ZM84.28,80.12c-5,5.45-4.36,17.95.25,21.86C87.83,94.71,88.49,87.57,84.28,80.12ZM99,193.57c-4.76-6-14.19-8-18.93-4C84.55,195.22,92.88,197,99,193.57Zm103.71-4.42a15.47,15.47,0,0,0-19.09,4.56C190.42,197,198.91,195.08,202.69,189.15Zm-10.9-68.32c-1.29,6.07,4.47,14.26,11.51,16.38C203.91,130.21,198.19,122.08,191.79,120.83ZM78.46,111.21c3.12-7.4,1.28-16.19-4.11-20.31C71.12,97.1,72.92,106.36,78.46,111.21Zm11,72.58c-4-7.09-12.86-10.87-17.87-7.81A15.89,15.89,0,0,0,89.48,183.79ZM195.56,137c-2.7,8.19.28,14.55,5,20.76C203.86,150.44,201.65,141.26,195.56,137Zm-1.87,16.52c-4.82,5.09-5.34,15.61-1,20.47C197.12,169,197.82,157.25,193.69,153.48Zm-70.34,51c-7.56-3-15.27-1-19.11,4.87C110.51,212.56,118.66,210.54,123.35,204.5Zm80.8-93.27c5.55-4.77,7.37-14.32,4-20.19C203.15,93.89,201.08,105.27,204.15,111.23Zm4.21,14.65c6-4.36,8.64-13.68,5.73-19.78C208.66,109.7,206.32,117.59,208.36,125.88Zm-6.79,46.47c8.71-.34,15.94-5.6,16.13-11.56C211.19,160.1,203.73,165.36,201.57,172.35Zm-15.3-6.48c-5.86,4.49-8.08,14.31-4.72,19.95C187.18,180.53,189.19,172.21,186.27,165.87Zm6.9,18.24c9,.76,16-2.75,17.67-8.67C205.66,172.83,194.74,178.42,193.17,184.11Zm-96.6-18.77c-3.29,7-.41,17.79,5.23,20.49C103.42,178.29,102.41,171.44,96.57,165.34Zm81.6,43.92c-3.41-5.71-12.39-7.94-18.74-4.67C162.23,210.07,174.06,213,178.17,209.26ZM64.87,123.74c-1.86,7,2.61,17,8.26,18.48C74.25,134.1,70.57,125.86,64.87,123.74Zm16.76,33.48c5.85-4.7,8.1-14.43,4.81-20C81.16,141.1,79,149.77,81.63,157.22Zm125.64,2.48c7-2.71,12-10.88,10.82-17.28C211.86,144,207.38,151,207.27,159.7ZM88.41,153.12c-3.53,7.63-2.45,14.53,1.43,21.42C94.23,168.3,93.63,157.93,88.41,153.12ZM81.1,172.43c-2.72-7.78-11.25-13.36-16.63-11C67.14,168.15,72.64,171.86,81.1,172.43Zm136.62-48.94c-6.41,3.69-9.6,11.62-7.9,19.18C215.77,139.24,219.73,129.82,217.72,123.49Zm-142.55,36c.73-7.34-4.35-15.52-10.58-17C63.65,149.54,68.64,157.58,75.17,159.52ZM68.6,106.16c-3.27,5.48,0,16.62,5.67,19.48C76.24,117.27,74,109.52,68.6,106.16Zm10.82,31.1c7.52-2.89,12.43-10.19,11.33-16.57C84.48,122.05,79,130,79.42,137.26Zm97.07,37.22c-5.28,1.47-9.67,12.72-7.05,18.68C175.42,189.17,178.51,181,176.49,174.48Zm-70.3-.39c-2.87,5.25,2.11,17.85,7.38,18.89C114.51,185.46,112.91,178.94,106.19,174.09ZM88.11,110.66l-1-.22-5.49,9.29.72.68,7.15-2.77C89,115.15,88.56,112.91,88.11,110.66Zm113,9.18-5.61-9.33C192.56,117.82,193.59,119.5,201.13,119.84ZM97.89,72.47l-1-.44-4.63,6.58h6.59C98.52,76.38,98.21,74.42,97.89,72.47Zm92.75,6.32c-1.89-2.48-3.48-4.58-5.07-6.68l-1,.33c-.23,2.1-.46,4.19-.69,6.35Z"/><ellipse cx="141.18" cy="141.67" rx="87.37" ry="86.28"/><path class="cls-1" d="M106,113.46c.5-4.45,4.71-6.28,9.17-4.32,5.89,2.57,7.15,10.91,2.38,16.21-4.32,4.81-10.06,5.42-15.83,4.29-6.08-1.19-9.5-5.73-11.14-11.43a15.26,15.26,0,0,1-.38-6.65c1.17-6.71,2.33-7.5,9.2-7.49,8.67,0,17.34-.14,26,.12a7.57,7.57,0,0,1,5.07,2.51c6.4,8,15.5,7.94,21.9-.11a7.16,7.16,0,0,1,4.83-2.41c9.75-.23,19.5-.08,29.25-.15a5,5,0,0,1,5,3.29,17.14,17.14,0,0,1-4.69,19.61c-4.78,4-13.66,4.22-19.16.51a11.94,11.94,0,0,1-4.91-12.75c1.11-4.48,6.81-7.64,11-5.74,1.5.67,2.47,2.48,3.68,3.77l-.65.73c-.93-.13-1.86-.23-2.78-.39-2.21-.39-4,.25-4.61,2.48-.78,2.71.33,4.89,2.62,6.38a3.84,3.84,0,0,0,5.48-.89,8.88,8.88,0,0,0,1.47-9.37c-1.28-3.41-4.1-4.7-7.4-4.73-3.58,0-6.93,1-8.67,4.52a39.26,39.26,0,0,0-1.85,5.14c-2.74,8.31-8.77,12.82-17.66,13.42a22.9,22.9,0,0,1-15.59-4.2,14.21,14.21,0,0,1-6-9.89c-.93-6.67-6.09-10.07-12.54-8.68a6.63,6.63,0,0,0-5.6,5.53c-.6,3.37-.37,6.69,2.7,9.09a3.63,3.63,0,0,0,5-.23c1.89-1.61,3.18-3.46,2.13-6.19-.81-2.11-2.27-2.71-4.34-2.4C108.16,113.18,107.23,113.3,106,113.46Z"/><path class="cls-1" d="M191.82,93.79c-11.23,0-22-.1-32.87,0-3.33,0-5.62-.87-7.66-3.64a12.35,12.35,0,0,0-20,.33,7.54,7.54,0,0,1-6.82,3.29c-10.5.05-21,.3-31.48.48H91.24V84.89c1.25-.06,2.4-.18,3.55-.18l92.28,0c5,0,5.45.54,5,5.66C191.92,91.49,191.89,92.65,191.82,93.79Z"/><path class="cls-1" d="M138.19,164.1h-4.87c-.56-1.95-1.06-3.73-1.57-5.5l-1.09-.09-1.95,5.59h-4.19l-1.47-5.5-1-.07c-.52,1.73-1,3.46-1.65,5.53H116c-.84-3.85-1.73-7.88-2.67-12.17h55.94c-.86,4-1.71,8-2.62,12.26h-4.89c-.35-1.81-.72-3.67-1.08-5.53l-1.41-.14-1.71,5.57h-4.46l-1.7-5.54-1.26-.11c-.73,1.83-1.46,3.65-2.28,5.73h-4.24c-1.48-1.76,1.14-5.64-2.78-5.62S139.39,162.06,138.19,164.1Z"/><path class="cls-1" d="M141.45,110.67a11.32,11.32,0,0,1-11.29-11.6c0-6.54,4.89-11.76,11.13-11.82a11.71,11.71,0,0,1,.16,23.42Z"/><path class="cls-1" d="M112.2,137,122.08,124c14.69,11.62,25.71,11.62,39.07-.47,1.42,2.5,2.58,5.18,4.31,7.41a60,60,0,0,0,6,6Z"/><path class="cls-1" d="M105.26,141.78c1.57-.56,3.15-1.6,4.73-1.61,21-.1,42-.06,63,0a5.61,5.61,0,0,1,2.55.21c.82.45,2,1.54,1.87,2.11a4.24,4.24,0,0,1-2.12,2.29c-.67.36-1.7.09-2.56.09-20.79,0-41.57,0-62.36,0-1.64,0-3.28-.79-4.92-1.21Z"/><path class="cls-1" d="M94.39,101.81V96H128.7v5.77Z"/><path class="cls-1" d="M154.23,101.85V96.08h34.25v5.77Z"/><path class="cls-1" d="M148.67,204.15l-5.33.85V171.52h5.33Z"/><path class="cls-1" d="M138.48,204.83c-1-.15-1.85-.3-2.68-.4s-1.72-.15-2.8-.25v-32.6h5.48Z"/><path class="cls-1" d="M152.59,203.39V171.55h5.55V184.3c0,4.51,0,9,0,13.53C158.14,202.84,158.14,202.84,152.59,203.39Z"/><path class="cls-1" d="M124,171.48h5.24v31.21c-3.92.72-5.13.13-5.19-3.28C123.89,190.21,124,181,124,171.48Z"/><path class="cls-1" d="M161.57,200.91V171.56h5.62c0,8.67.15,17.25-.07,25.83C167,200.6,164,200.29,161.57,200.91Z"/><path class="cls-1" d="M174.52,147.69c-3.38,2.29-63.07,2.2-65.59,0a14.46,14.46,0,0,1,3.36-.91q28.92-.06,57.85,0A27,27,0,0,1,174.52,147.69Z"/><path class="cls-1" d="M169,168.55a22.13,22.13,0,0,1-4.11.81q-23.41.07-46.81,0a23.7,23.7,0,0,1-4.19-.77l-.07-1a11,11,0,0,1,3-.89q24.54-.1,49.07,0a12.58,12.58,0,0,1,3.11.86Z"/><path class="cls-1" d="M115.7,171.47h5.11v28.66c-3.9.48-5-.31-5.09-3.92C115.65,188.06,115.7,179.91,115.7,171.47Z"/><path class="cls-1" d="M111.67,203.89c-7.62,4.24-15,6.06-23.09,2.14C93.35,200.35,103.76,199.32,111.67,203.89Z"/><path class="cls-1" d="M171.82,203.94c5.32-4.59,16.39-3.8,22.31,1.59C189.21,210.11,177.53,208.4,171.82,203.94Z"/><path class="cls-1" d="M111,200.51c8.36,2.23,18,4.88,27.6,7.3a12.62,12.62,0,0,0,5.7-.06c8.36-1.88,16.67-4,25.17-5.36l-25.15,7c3.16,4,8.32,6.18,8.61,11.76-2.35-4.72-5.38-9.35-10.88-9.8s-8.76,4.19-12,9.21c1.42-5.57,5.12-8.26,9.4-11.09C129.1,206.32,118.6,205.43,111,200.51Z"/><path class="cls-1" d="M198.87,84.2c4.08,5.29,4.12,14.6.1,21.51C194.18,100.87,194.13,90.4,198.87,84.2Z"/><path class="cls-1" d="M84.42,84c4.22,7.45,3.55,14.59.25,21.86C80.06,101.92,79.41,89.43,84.42,84Z"/><path class="cls-1" d="M99.13,197.42c-6.11,3.43-14.44,1.66-18.94-4C84.93,189.42,94.36,191.43,99.13,197.42Z"/><path class="cls-1" d="M202.84,193c-3.79,5.93-12.27,7.86-19.1,4.56A15.49,15.49,0,0,1,202.84,193Z"/><path class="cls-1" d="M191.93,124.69c6.4,1.24,12.12,9.37,11.51,16.37C196.4,139,190.64,130.75,191.93,124.69Z"/><path class="cls-1" d="M78.61,115.07c-5.55-4.86-7.35-14.12-4.11-20.32C79.89,98.87,81.72,107.66,78.61,115.07Z"/><path class="cls-1" d="M89.62,187.64a15.89,15.89,0,0,1-17.87-7.8C76.76,176.77,85.61,180.55,89.62,187.64Z"/><path class="cls-1" d="M195.71,140.81c6.09,4.3,8.29,13.48,5,20.76C196,155.36,193,149,195.71,140.81Z"/><path class="cls-1" d="M193.83,157.34c4.13,3.77,3.43,15.46-1,20.47C188.49,173,189,162.42,193.83,157.34Z"/><path class="cls-1" d="M123.49,208.36c-4.68,6-12.83,8-19.1,4.86C108.22,207.35,115.94,205.32,123.49,208.36Z"/><path class="cls-1" d="M204.29,115.08c-3.07-6-1-17.33,4-20.19C211.66,100.76,209.84,110.31,204.29,115.08Z"/><path class="cls-1" d="M208.5,129.74c-2-8.3.3-16.19,5.73-19.79C217.14,116.05,214.52,125.38,208.5,129.74Z"/><path class="cls-1" d="M201.71,176.2c2.16-7,9.62-12.25,16.13-11.56C217.65,170.6,210.42,175.86,201.71,176.2Z"/><path class="cls-1" d="M186.41,169.73c2.93,6.33.91,14.65-4.72,19.94C178.33,184,180.55,174.21,186.41,169.73Z"/><path class="cls-1" d="M193.31,188c1.57-5.69,12.49-11.28,17.67-8.67C209.32,185.22,202.29,188.72,193.31,188Z"/><path class="cls-1" d="M96.71,169.19c5.84,6.1,6.85,13,5.24,20.5C96.3,187,93.42,176.21,96.71,169.19Z"/><path class="cls-1" d="M178.31,213.11c-4.11,3.73-15.94.81-18.74-4.66C165.92,205.17,174.9,207.41,178.31,213.11Z"/><path class="cls-1" d="M65,127.59c5.7,2.12,9.38,10.37,8.26,18.48C67.62,144.59,63.15,134.59,65,127.59Z"/><path class="cls-1" d="M81.77,161.07c-2.63-7.45-.47-16.12,4.81-20C89.88,146.64,87.62,156.37,81.77,161.07Z"/><path class="cls-1" d="M207.41,163.56c.11-8.69,4.59-15.75,10.82-17.28C219.42,152.68,214.41,160.84,207.41,163.56Z"/><path class="cls-1" d="M88.55,157c5.22,4.81,5.83,15.18,1.43,21.42C86.1,171.51,85,164.61,88.55,157Z"/><path class="cls-1" d="M81.24,176.29c-8.46-.57-14-4.28-16.63-11C70,162.92,78.52,168.5,81.24,176.29Z"/><path class="cls-1" d="M217.86,127.34c2,6.33-2,15.75-7.9,19.18C208.26,139,211.45,131,217.86,127.34Z"/><path class="cls-1" d="M75.31,163.37c-6.53-1.94-11.52-10-10.57-17C71,147.86,76,156,75.31,163.37Z"/><path class="cls-1" d="M68.74,110c5.39,3.36,7.64,11.12,5.67,19.48C68.72,126.63,65.47,115.5,68.74,110Z"/><path class="cls-1" d="M79.56,141.11c-.47-7.24,5.06-15.21,11.33-16.57C92,130.92,87.08,138.22,79.56,141.11Z"/><path class="cls-1" d="M176.63,178.33c2,6.5-1.06,14.69-7,18.68C167,191.05,171.35,179.81,176.63,178.33Z"/><path class="cls-1" d="M106.33,178c6.72,4.84,8.32,11.36,7.39,18.88C108.44,195.79,103.46,183.19,106.33,178Z"/><path class="cls-1" d="M88.25,114.52c.45,2.24.89,4.48,1.39,7l-7.15,2.78-.72-.69,5.49-9.29Z"/><path class="cls-1" d="M201.27,123.7c-7.54-.35-8.56-2-5.61-9.34Z"/><path class="cls-1" d="M98,76.32c.32,2,.63,3.91,1,6.15H92.43l4.63-6.59Z"/><path class="cls-1" d="M190.78,82.65h-6.72c.23-2.17.46-4.26.69-6.35l1-.33Z"/></g></g></svg>