<svg xmlns="http://www.w3.org/2000/svg" viewBox="0 0 282.99 282.99"><defs><style>.cls-1{fill:#fff;}</style></defs><g id="Layer_2" data-name="Layer 2"><g id="Layer_1-2" data-name="Layer 1"><circle class="cls-1" cx="141.5" cy="141.5" r="141.5"/><path d="M141.76,5.58c75.27,0,135.92,60.87,136,136.41,0,74.7-61.37,135.55-136.62,135.42C66.2,277.27,5.27,216.29,5.29,141.48,5.3,66.23,66.21,5.58,141.76,5.58Zm22.92,64.11c-.59.32-.84.37-.94.52q-10.55,17.45-21,34.93a3.36,3.36,0,0,0-.45,2.73c2.16,4,4.55,7.92,7.15,12.37l13.79-24,39.48,68.22h-28c1.88,3.54,3.63,6.5,5.05,9.61,1.26,2.75,3.28,3.74,6.16,3.72,10.5-.07,21,0,31.49-.12,6.11-.07,7.41-2.36,4.46-7.65q-9-16.25-18.18-32.43-14.61-25.65-29.33-51.24C171.15,80.76,167.9,75.23,164.68,69.69Zm-9.85,90.66,13.3,23.25H90.63l12.81-23.95c-3.85,0-7.09.23-10.28-.06-3.55-.32-5.71,1.27-7.34,4.14-4.89,8.62-9.84,17.2-14.72,25.82-2,3.56-1.17,5.85,2.74,7.22a12.7,12.7,0,0,0,4.13.52q54.06.09,108.12.09c1.58,0,3.16-.14,5.38-.25-.95-1.87-1.6-3.29-2.38-4.64-4.66-8-9.59-15.84-14-24C169.57,158.32,165.6,158.62,154.83,160.35ZM90,145l39.2-68.93,14.23,24.62c2-3.66,3.55-6.71,5.3-9.65,1.61-2.69,1.43-5.12-.13-7.82C143.7,74.68,139,66,134,57.46c-.94-1.6-2.82-3.67-4.27-3.68s-3.38,2-4.31,3.63q-28.65,49.08-57.08,98.3c-.4.7-.67,1.48-1.12,2.48a18.26,18.26,0,0,0,1.85.21c11.47.13,22.93.32,34.4.33,3.51,0,7-.63,9-4,1.75-3,3.26-6.15,5.11-9.67Zm71.48-1.52L129,88.88,97.83,143.5c3.71,0,6.74-.25,9.71.06,3.91.42,6.22-1.35,8.09-4.5,3.69-6.2,7.54-12.3,11.32-18.43.92-1.49,1.87-3,2.92-4.63,5.28,8.81,10.25,17.22,15.37,25.54a4.28,4.28,0,0,0,2.89,1.87C152.33,143.61,156.55,143.49,161.52,143.49Zm-.69-39.64c-1.62,2.71-2.74,5-4.24,7-2.56,3.38-2.39,6.57-.41,10.17,3.56,6.49,6.85,13.12,10.25,19.69.7,1.36,1.38,2.74,2.25,4.49-9.47,0-18.33-.05-27.18.05-1.44,0-3.52.2-4.17,1.11-2.58,3.61-4.7,7.53-7.16,11.63h61.66ZM101.32,177h61.16c-1.46-2.69-3-4.92-3.93-7.39-1.65-4.46-4.55-5.81-9.22-5.58-8.05.38-16.14.11-24.81.11,4.45-7.88,8.73-15.18,12.71-22.64,1-1.87,2-4.58,1.38-6.28-1.5-3.94-4-7.5-6.38-11.73ZM256.91,80.12,228.86,92.75c.83,1.63,1.45,2.83,2.19,4.25,3-1.44,5.84-2.82,8.68-4.08a6.93,6.93,0,0,1,8.83,3.2,6.58,6.58,0,0,1-3.67,8.51c-2.91,1.29-5.79,2.64-8.85,4l2,4,27.58-12.4c-2.49-1.54-4.34-2.78-6.28-3.87-4.64-2.62-4.82-3.06-3.72-8.14C256.18,85.87,256.41,83.43,256.91,80.12ZM168.4,46l14.51-6.33c2.12,4.62,4.1,9,6.5,14.2l10.78-27.58L186,32.34,179.11,18C175.43,27.64,172.08,36.36,168.4,46Zm-8.89-15.06,7.78-6.83-9.85-12-11.7,9.58L152.08,30l-9.44,7.87L146,41.77l9.35-7.66,7.71,9.27c3.92-2.48,3.92-2.47,1.41-5.81C162.91,35.51,161.38,33.43,159.51,30.92Zm81.41,116.17,8.79,19.53,6.06-7.63c1.43,2.9,2.67,5.43,4.17,8.5l12.1-17.2Zm-182,52.21c-1.41-3-2.78-3.13-5-1.13C48.35,203,42.63,207.66,37,212.38c-2.92,2.45-2.92,2.46.46,5.43,1.69-1.38,3.41-2.82,5.16-4.22s3.64-2.87,5.62-4.41c1.56,7.81.84,9.69-6.09,15.45l3.47,2.9C53,221.34,60.31,215.3,67.7,209.15l-3.12-3.42-10.85,9C51.78,208,54.45,203.22,58.88,199.3Zm210.74-85.14L240,119c.52,4.7.52,4.67,4.52,4,4.76-.77,9.53-1.48,13.38-2.07l2.34,7.57c-4.54.83-9.46,2.09-14.45,2.52-3.45.3-4.41,1.39-3.15,5l29.23-4.6c-2.25-2.09-3.79-3.75-5.56-5.12-2.13-1.64-2.54-3.18-.82-5.42A77.06,77.06,0,0,0,269.62,114.16ZM90.33,30.45c8.26-1.2,9.21-.63,12.17,6.53,1.41,3.42,3,6.76,4.64,10.38L111,45.28c-2.05-5-3.65-9.84-6-14.27-1.15-2.17-3.51-4.85-5.64-5.15-5.21-.75-10.6-.25-16.48-.25L95,52.36l4.1-2.16C96.1,43.42,93.23,37,90.33,30.45Zm-73.91,138c2.51-2.16,4.78-4.14,7.07-6.09s4.68-2.6,7.49-1.44A63.65,63.65,0,0,0,38.77,164a4.22,4.22,0,0,0,3.72-1.19c1.16-1.69-.38-2.53-1.92-3.14-2.71-1.08-5.36-2.27-8.36-3.56,1.89-1.53,3.38-2.75,4.89-3.95s3-2.29,4.53-3.51l-3-3.41A23.63,23.63,0,0,0,35,147.9c-5.36,6-11.27,6.58-18.18,2.59-3.24-1.87-3.47-1.45-4.42,2.86l9.7,4.33-8.77,7ZM49.85,95.53c-1-3.1-2.45-3.73-5.11-2a88.25,88.25,0,0,1-8.2,4.1L34.08,87.22,18.83,99.39l27,10.45c2.26-3.7,2.24-3.77-1.3-5.15-2.05-.8-4.11-1.57-6.7-2.56ZM135.61,25.2l-2.79-3.65c-1.52,1.05-2.85,1.95-4.16,2.89s-2.55,1.86-4.06,3c-.89-2.29-1.15-3.95,1-5.34,2-1.29,3.82-2.81,5.72-4.24,3.26-2.46,3.25-2.46-.19-5.4l-8.06,5.74c-.92-4.85-1.59-5.18-5.24-3q1.78,12.89,3.6,25.81c.23,1.59.56,3,2.76,2.66,1.89-.32,2.56-1.33,2.2-3.18a27.71,27.71,0,0,0-.66-4.14c-.93-2.6.29-4,2.25-5.39C130.45,29.21,132.8,27.32,135.61,25.2Zm31.75,221.09L151.62,239l3.29,22.41a43.35,43.35,0,0,0-5.5-2.35c-3-.79-2.73,1.77-3.5,3.69l15.92,8c-1.31-8.32-2.46-15.68-3.68-23.5,1.53.76,2.58,1.29,3.63,1.8s2.1,1,3.28,1.48C165.82,249.1,166.47,247.9,167.36,246.29Zm20.45-16.13c-1.82,1.66-3.45,2.91-4.78,4.41-1.92,2.18-3.77,3.77-6.84,1.84-.44-.28-2.15.44-2.35,1a3.45,3.45,0,0,0,.44,3c2.41,2.33,6.85,2.21,9.45,0,.94-.79,1.79-1.68,2.86-2.69,2.23,5.16,4.27,9.87,6.33,14.61-2.43.66-5,.69-6.61,2s-2.56,3.74-3.13,5.86c-.17.64,1.9,1.88,3.4,3.27,1.29-8.72,8.55-5,12.93-7.33C195.64,247.53,191.87,239.16,187.81,230.16ZM52.15,61.09c-1.9-1-3.68-2.55-4.28-2.18-4.73,2.88-9.24,6.14-14.32,9.62L57.75,86l2.48-3.69L48.82,73.91l8.69-6.16c-1.52-3.31-3.32-3.25-5.64-1.59s-4.82,3.16-7.24,4.73l-3.15-2.26ZM218.84,39.63c-5.26.77-10.14,1.43-15,2.3-.51.09-1.21,1.45-1.13,2.14.5,4.13,1.08,8.26,1.94,12.32a3.27,3.27,0,0,0,2.6,1.82c4.18-.4,8.33-1.07,12.46-1.82.66-.12,1.71-1.22,1.64-1.73C220.66,49.73,219.74,44.82,218.84,39.63Zm35.52,145.05-19.11-7.13c-2.12,4.16-2.11,4.15,1.55,5.58,5.06,2,10.11,4,15.54,6.12l-6.48,3.62,2,3.69,13.9-6.3c-1.72-4.26-3.19-8.16-4.91-11.95-.35-.76-1.63-1.1-2.47-1.64-.55,1.11-1.53,2.21-1.54,3.31C252.89,181.35,253.7,182.72,254.36,184.68ZM225.59,236.5c1.12-2.7,1.09-4.34-2.17-4.28a37.9,37.9,0,0,1-4.43-.66c-4.31-.46-7.7-2.16-10-6.08-1.28-2.18-3.25-3.94-5.07-6.08l-3.55,2.74c2.38,2.83,4.48,5.42,6.68,7.93a9.88,9.88,0,0,1,2.34,9,53.72,53.72,0,0,0-.46,7.37h3.94c.45-2.33.88-4.52,1.31-6.73.37.13.61.13.72.26.81.87,1.6,1.76,2.38,2.65,2.58,2.93,2.61,2.93,5.13-.32l-4.65-6.53ZM72.26,227.07c-2.54-6.39-3.44-6.93-6.52-4.2,4.63,8,1.08,14.12-4.7,19.65,3.81,3.54,3.81,3.53,6.67-.12.71-.9,1.44-1.78,2.46-3.05.44,1.51.5,2.81,1.16,3.66a4,4,0,0,0,2.82,1.52c.62,0,1.69-1.46,1.7-2.27a11,11,0,0,0-1-4.66c-1.19-2.51-.61-4.48,1-6.52,2.16-2.8,4.17-5.71,6.43-8.83l-4-2.75ZM24,197.74l27.05-12c-.72-3.69-2.21-4.67-5.23-2.82-1.83,1.12-3.94,1.74-5.86,2.72a4.5,4.5,0,0,1-5.61-.73c-2.56-2.28-5.28-4.36-8.63-7.09C25.11,184.66,24.58,190.76,24,197.74Zm33.67-156c6.4,7.87,12.52,15.37,18.82,23.11l3.6-3.44c-5.52-3.6-5.31-8.28-2.9-13.35a1.53,1.53,0,0,0,0-.32c1.13-4.6.67-5.16-4-4.41-4.82.77-9.37,1-12-4.66ZM237,201.29l-7.91,10.36c-1.58-3.75-3-7.15-4.52-10.71l-4.23,1.84,7.48,18.67L236,210.89l4.95,11.29,4.34-2ZM27.09,129.4c-2.35-3.62-4.48-7-6.69-10.29-2.52-3.81-3.68-3.77-6.54.24L26.52,138.4c4.76-5.08,9.15-9.8,13.57-14.5,2.81-3,2.78-3.27-.83-5.66ZM236.8,66.54c2.09,2.57.14,8,6.42,6.82-.8-5.21-1.59-10.29-2.48-16L217.31,76.11l3.18,3.45C226.06,75.11,231.35,70.88,236.8,66.54ZM101.31,233.36c-3.51,9-6.94,17.92-10.34,26.68,2.89,2,4.42,1.53,5.27-1.53.68-2.48,1.81-4.84,2.73-7.26,2-5.39,4.09-10.78,6.21-16.35Zm29.2,35.44-8-10.27,6.1-5.58-2.65-3.7-10.29,8.63,11.5,13.51Zm7.59-14.58c-3.31-3.93-6.37-7.79-9.73-11.36-.67-.72-2.5-.34-3.79-.47.16,1.11,0,2.46.54,3.28,1.88,2.67,4,5.15,6.09,7.7l-6.54,5.83c1.89,2.05,3.52,2.77,5.69,1C132.74,258.19,135.26,256.39,138.1,254.22ZM233.67,138.4A92.18,92.18,0,1,1,141.5,46.22,92.17,92.17,0,0,1,233.67,138.4Z"/><path class="cls-1" d="M256.91,80.12c-.5,3.31-.73,5.75-1.25,8.13-1.1,5.08-.92,5.52,3.72,8.14,1.94,1.09,3.79,2.33,6.28,3.87l-27.58,12.4-2-4c3.06-1.39,5.94-2.74,8.85-4a6.58,6.58,0,0,0,3.67-8.51,6.93,6.93,0,0,0-8.83-3.2c-2.84,1.26-5.63,2.64-8.68,4.08-.74-1.42-1.36-2.62-2.19-4.25Z"/><path class="cls-1" d="M168.4,46c3.68-9.62,7-18.34,10.71-27.94L186,32.34l14.19-6.07L189.41,53.85c-2.4-5.24-4.38-9.58-6.5-14.2ZM179,28.57c-1.16,3.17-2.1,5.73-3.3,9l6.12-3C180.89,32.57,180.09,30.87,179,28.57Zm11,14.08,2.88-7.84C186.91,36.27,186.55,37.24,190,42.65Z"/><path class="cls-1" d="M159.51,30.92c1.87,2.51,3.4,4.59,5,6.65,2.51,3.34,2.51,3.33-1.41,5.81l-7.71-9.27L146,41.77l-3.35-3.87L152.08,30l-6.34-8.39,11.7-9.58,9.85,12Zm-7-8.3,3.52,3.91,4.5-3.36-3.83-4.11Z"/><path class="cls-1" d="M240.92,147.09l31.12,3.2-12.1,17.2c-1.5-3.07-2.74-5.6-4.17-8.5l-6.06,7.63Zm12.34,6.33h-4.68l1.86,3.81Z"/><path class="cls-1" d="M58.88,199.3c-4.43,3.92-7.1,8.72-5.15,15.41l10.85-9,3.12,3.42C60.31,215.3,53,221.34,45.62,227.53l-3.47-2.9c6.93-5.76,7.65-7.64,6.09-15.45-2,1.54-3.81,3-5.62,4.41s-3.47,2.84-5.16,4.22c-3.38-3-3.38-3-.46-5.43,5.63-4.72,11.35-9.34,16.85-14.21C56.1,196.17,57.47,196.35,58.88,199.3Z"/><path class="cls-1" d="M269.62,114.16a77.06,77.06,0,0,1-4.12,6.7c-1.72,2.24-1.31,3.78.82,5.42,1.77,1.37,3.31,3,5.56,5.12L242.65,136c-1.26-3.61-.3-4.7,3.15-5,5-.43,9.91-1.69,14.45-2.52l-2.34-7.57c-3.85.59-8.62,1.3-13.38,2.07-4,.65-4,.68-4.52-4Z"/><path class="cls-1" d="M90.33,30.45c2.9,6.51,5.77,13,8.78,19.75L95,52.36,82.9,25.61c5.88,0,11.27-.5,16.48.25,2.13.3,4.49,3,5.64,5.15,2.34,4.43,3.94,9.25,6,14.27l-3.87,2.08c-1.63-3.62-3.23-7-4.64-10.38C99.54,29.82,98.59,29.25,90.33,30.45Z"/><path class="cls-1" d="M16.42,168.44l-3.1-3.71,8.77-7-9.7-4.33c.95-4.31,1.18-4.73,4.42-2.86,6.91,4,12.82,3.45,18.18-2.59a23.63,23.63,0,0,1,3.62-2.67l3,3.41c-1.57,1.22-3.06,2.35-4.53,3.51s-3,2.42-4.89,3.95c3,1.29,5.65,2.48,8.36,3.56,1.54.61,3.08,1.45,1.92,3.14A4.22,4.22,0,0,1,38.77,164,63.65,63.65,0,0,1,31,160.91c-2.81-1.16-5.27-.45-7.49,1.44S18.93,166.28,16.42,168.44Z"/><path class="cls-1" d="M49.85,95.53l-12,6.6c2.59,1,4.65,1.76,6.7,2.56,3.54,1.38,3.56,1.45,1.3,5.15l-27-10.45L34.08,87.22l2.46,10.37a88.25,88.25,0,0,0,8.2-4.1C47.4,91.8,48.86,92.43,49.85,95.53Zm-17.79,4.53c-.27-1.91-.5-3.49-.78-5.48L27,98.08Z"/><path class="cls-1" d="M135.61,25.2c-2.81,2.12-5.16,4-7.63,5.73-2,1.36-3.18,2.79-2.25,5.39a27.71,27.71,0,0,1,.66,4.14c.36,1.85-.31,2.86-2.2,3.18-2.2.38-2.53-1.07-2.76-2.66q-1.8-12.91-3.6-25.81c3.65-2.18,4.32-1.85,5.24,3l8.06-5.74c3.44,2.94,3.45,2.94.19,5.4-1.9,1.43-3.73,3-5.72,4.24-2.15,1.39-1.89,3.05-1,5.34,1.51-1.11,2.77-2.06,4.06-3s2.64-1.84,4.16-2.89Z"/><path class="cls-1" d="M167.36,246.29c-.89,1.61-1.54,2.81-2.3,4.2-1.18-.53-2.24-1-3.28-1.48s-2.1-1-3.63-1.8c1.22,7.82,2.37,15.18,3.68,23.5l-15.92-8c.77-1.92.48-4.48,3.5-3.69a43.35,43.35,0,0,1,5.5,2.35L151.62,239Z"/><path class="cls-1" d="M187.81,230.16c4.06,9,7.83,17.37,11.7,25.94-4.38,2.32-11.64-1.39-12.93,7.33-1.5-1.39-3.57-2.63-3.4-3.27.57-2.12,1.51-4.56,3.13-5.86s4.18-1.31,6.61-2c-2.06-4.74-4.1-9.45-6.33-14.61-1.07,1-1.92,1.9-2.86,2.69-2.6,2.22-7,2.34-9.45,0a3.45,3.45,0,0,1-.44-3c.2-.57,1.91-1.29,2.35-1,3.07,1.93,4.92.34,6.84-1.84C184.36,233.07,186,231.82,187.81,230.16Z"/><path class="cls-1" d="M52.15,61.09,41.48,68.63l3.15,2.26c2.42-1.57,4.91-3,7.24-4.73s4.12-1.72,5.64,1.59l-8.69,6.16L60.23,82.3,57.75,86,33.55,68.53c5.08-3.48,9.59-6.74,14.32-9.62C48.47,58.54,50.25,60.08,52.15,61.09Z"/><path class="cls-1" d="M218.84,39.63c.9,5.19,1.82,10.1,2.53,15,.07.51-1,1.61-1.64,1.73-4.13.75-8.28,1.42-12.46,1.82a3.27,3.27,0,0,1-2.6-1.82c-.86-4.06-1.44-8.19-1.94-12.32-.08-.69.62-2,1.13-2.14C208.7,41.06,213.58,40.4,218.84,39.63ZM216.2,51.94l-1.56-7.18-6.56,1.18c.37,2.57.72,5,1.09,7.52Z"/><path class="cls-1" d="M254.36,184.68c-.66-2-1.47-3.33-1.47-4.7,0-1.1,1-2.2,1.54-3.31.84.54,2.12.88,2.47,1.64,1.72,3.79,3.19,7.69,4.91,11.95l-13.9,6.3-2-3.69,6.48-3.62c-5.43-2.14-10.48-4.14-15.54-6.12-3.66-1.43-3.67-1.42-1.55-5.58Z"/><path class="cls-1" d="M225.59,236.5l-7.82-.74c1.69,2.38,3.17,4.45,4.66,6.53-2.53,3.25-2.56,3.25-5.14.32-.78-.89-1.57-1.78-2.38-2.65-.11-.13-.35-.13-.72-.26-.43,2.21-.86,4.4-1.31,6.73h-3.94a53.72,53.72,0,0,1,.46-7.37,9.88,9.88,0,0,0-2.34-9c-2.2-2.51-4.3-5.1-6.68-7.93l3.55-2.74c1.82,2.14,3.79,3.9,5.07,6.08,2.29,3.92,5.68,5.62,10,6.08a37.9,37.9,0,0,0,4.43.66C226.68,232.16,226.71,233.8,225.59,236.5Z"/><path class="cls-1" d="M72.26,227.07l6-7.57,4,2.75c-2.26,3.12-4.27,6-6.43,8.83-1.59,2-2.17,4-1,6.52a11,11,0,0,1,1,4.66c0,.81-1.08,2.25-1.7,2.27A4,4,0,0,1,71.33,243c-.66-.85-.72-2.15-1.16-3.66-1,1.27-1.75,2.15-2.46,3.05-2.86,3.65-2.86,3.66-6.67.12,5.78-5.53,9.33-11.69,4.7-19.65C68.82,220.14,69.72,220.68,72.26,227.07Z"/><path class="cls-1" d="M24,197.74c.6-7,1.13-13.08,1.72-20,3.35,2.73,6.07,4.81,8.63,7.09a4.5,4.5,0,0,0,5.61.73c1.92-1,4-1.6,5.86-2.72,3-1.85,4.51-.87,5.23,2.82Z"/><path class="cls-1" d="M57.65,41.76l3.56-3.07c2.65,5.64,7.2,5.43,12,4.66,4.66-.75,5.12-.19,4,4.41a1.53,1.53,0,0,1,0,.32c-2.41,5.07-2.62,9.75,2.9,13.35l-3.6,3.44C70.17,57.13,64.05,49.63,57.65,41.76Z"/><path class="cls-1" d="M237,201.29l8.22,18.94-4.34,2L236,210.89l-8.11,10.56-7.48-18.67,4.23-1.84c1.51,3.56,2.94,7,4.52,10.71Z"/><path class="cls-1" d="M27.09,129.4l12.17-11.16c3.61,2.39,3.64,2.68.83,5.66-4.42,4.7-8.81,9.42-13.57,14.5L13.86,119.35c2.86-4,4-4,6.54-.24C22.61,122.42,24.74,125.78,27.09,129.4Z"/><path class="cls-1" d="M236.8,66.54c-5.45,4.34-10.74,8.57-16.31,13l-3.18-3.45,23.43-18.79c.89,5.75,1.68,10.83,2.48,16C236.94,74.59,238.89,69.11,236.8,66.54Z"/><path class="cls-1" d="M101.31,233.36l3.87,1.54c-2.12,5.57-4.16,11-6.21,16.35-.92,2.42-2,4.78-2.73,7.26C95.39,261.57,93.86,262,91,260,94.37,251.28,97.8,242.41,101.31,233.36Z"/><path class="cls-1" d="M130.51,268.8l-3.33,2.59-11.5-13.51L126,249.25l2.65,3.7-6.1,5.58Z"/><path class="cls-1" d="M138.1,254.22c-2.84,2.17-5.36,4-7.74,6-2.17,1.8-3.8,1.08-5.69-1l6.54-5.83c-2.05-2.55-4.21-5-6.09-7.7-.57-.82-.38-2.17-.54-3.28,1.29.13,3.12-.25,3.79.47C131.73,246.43,134.79,250.29,138.1,254.22Z"/><path d="M179,28.57c1.1,2.3,1.9,4,2.82,5.93l-6.12,3C176.89,34.3,177.83,31.74,179,28.57Z"/><path d="M190,42.65c-3.48-5.41-3.12-6.38,2.88-7.84Z"/><path d="M152.54,22.62l4.19-3.56,3.83,4.11-4.5,3.36Z"/><path d="M253.26,153.42l-2.82,3.81-1.86-3.81Z"/><path d="M32.06,100.06l-5-2,4.24-3.5C31.56,96.57,31.79,98.15,32.06,100.06Z"/><path d="M216.2,51.94l-7,1.52c-.37-2.57-.72-5-1.09-7.52l6.56-1.18Z"/><path d="M264.15,154.46l-2.82,3.81c-.71-1.47-1.24-2.55-1.86-3.81Z"/><path d="M32.25,188.5l-4.35,1.87c.12-1.62.2-2.82.3-4.22Z"/><path d="M72.9,46.7c-.66,1.67-1.12,2.87-1.72,4.41l-2.8-3.19Z"/><path class="cls-1" d="M164.6,79.93c3,5.22,6.11,10.43,9.12,15.68q13.85,24.15,27.65,48.32c5.78,10.16,11.47,20.36,17.15,30.57,2.78,5,1.55,7.15-4.21,7.22-9.89.12-19.79.05-29.69.11-2.71,0-4.63-.91-5.81-3.51-1.35-2.93-3-5.71-4.76-9h26.38c-12.59-21.77-24.82-42.89-37.23-64.33l-13,22.65c-2.46-4.19-4.7-7.87-6.75-11.66a3.21,3.21,0,0,1,.43-2.57q9.85-16.51,19.84-32.94C163.81,80.28,164.05,80.23,164.6,79.93Z"/><path class="cls-1" d="M155.32,165.42c10.15-1.63,13.89-1.92,19.11,7.7,4.15,7.67,8.8,15.07,13.2,22.61.73,1.26,1.34,2.6,2.24,4.37-2.1.1-3.58.24-5.07.24q-51,0-102-.09a12.05,12.05,0,0,1-3.89-.49c-3.69-1.29-4.48-3.45-2.58-6.81,4.6-8.13,9.26-16.22,13.88-24.35,1.53-2.71,3.57-4.2,6.92-3.9,3,.27,6.06.06,9.69.06-4.17,7.79-8,15.05-12.09,22.58h73.09Z"/><path class="cls-1" d="M94.22,151h26c-1.74,3.31-3.17,6.28-4.82,9.11-1.88,3.23-5.19,3.82-8.49,3.82-10.82,0-21.63-.19-32.44-.31a15.83,15.83,0,0,1-1.75-.2c.43-.95.68-1.68,1.06-2.34q26.86-46.38,53.83-92.7c.87-1.5,2.69-3.43,4.06-3.42s3.14,2,4,3.47c4.71,8,9.14,16.24,13.8,24.31,1.47,2.54,1.64,4.83.12,7.37-1.65,2.77-3.11,5.65-5,9.1-4.53-7.86-8.83-15.3-13.41-23.22Z"/><path class="cls-1" d="M161.62,149.52c-4.68,0-8.66.11-12.62-.08a4.05,4.05,0,0,1-2.73-1.76c-4.82-7.85-9.51-15.78-14.49-24.09-1,1.57-1.88,3-2.75,4.37-3.57,5.78-7.2,11.54-10.67,17.38-1.77,3-4,4.64-7.64,4.25a91.41,91.41,0,0,0-9.15-.06L130.91,98Z"/><path class="cls-1" d="M161,112.13l29.23,51.05H132.06c2.32-3.86,4.33-7.56,6.75-11,.62-.86,2.58-1,3.93-1.05,8.36-.09,16.71,0,25.64,0-.82-1.64-1.46-3-2.13-4.23-3.2-6.2-6.3-12.45-9.66-18.57-1.87-3.4-2-6.4.38-9.59A76.49,76.49,0,0,0,161,112.13Z"/><path class="cls-1" d="M104.86,181.14,134,130.68c2.25,4,4.61,7.35,6,11.07.61,1.6-.36,4.16-1.3,5.92-3.75,7-7.78,13.92-12,21.34,8.17,0,15.8.27,23.39-.1,4.41-.21,7.14,1.06,8.69,5.26.86,2.33,2.34,4.43,3.72,7Z"/></g></g></svg>