<svg xmlns="http://www.w3.org/2000/svg" viewBox="0 0 282.99 282.99"><defs><style>.cls-1{fill:#fff;}</style></defs><g id="Layer_2" data-name="Layer 2"><g id="Layer_1-2" data-name="Layer 1"><circle class="cls-1" cx="141.5" cy="141.5" r="141.5"/><circle cx="141.5" cy="141.54" r="115.34"/><path d="M141.48,277.41c-75.66,0-136.21-60.82-136.19-136.79,0-74.79,61.32-135.26,137.27-135,74.71.22,135.59,61.63,135.14,137.23C277.26,216.72,216.19,277.41,141.48,277.41Zm86.39-189.2c4.57,1,7-1.6,5.82-5.88-1.12-4-4.76-6.71-9.53-6.89-3.78-.14-7.57,0-11.34-.13-4-.17-7.72-1.11-10.23-4.61-2.32-3.22-2.09-6.62.57-8.64,2.86-2.17,5-1.67,7.84,1.86a8.34,8.34,0,0,0,.78.7c1.73-2.68,1.51-4.89-.94-7.05-3-2.59-6.18-2.73-9.69-1.72-4.55,1.32-9.05,2.84-13.66,3.89-3.8.86-6.79-1.08-7.56-4.31-.6-2.54,1.31-5.69,4.33-6.77,1.07-.39,2.6-.75,3.4-.26,1.29.78,2.13,2.27,3.21,3.52,2.3-1.45,2.09-3.29.59-5.35-2.44-3.34-6.59-4.35-10.68-2.19-3,1.61-5.85,3.65-8.78,5.47-4,2.48-8.28,3.27-12.61,1.14a6.17,6.17,0,0,1-3.12-3.65c-.74-3.88,4.38-8.46,8.42-7.85l1,3c3.4-1.46,4-3.59,1.72-6.18-2.92-3.37-8.23-3.8-12.31-.58-3.21,2.53-6,5.6-9,8.34-3.4,3.06-7.3,5.44-12,4.18-1.8-.48-3.72-2.59-4.43-4.4A5.77,5.77,0,0,1,131,38.67c1.28-1.18,3.66-1.19,5.64-1.73-.68-4-3-5.62-6.77-3.42a21.36,21.36,0,0,0-6.44,6.4c-2.55,3.71-4.35,7.93-6.81,11.7a6.09,6.09,0,0,1-8.26,2c-2.38-1.47-3.21-4.9-1.89-7.79s3-3.36,7.49-2.34c-.7-1.38-1.5-2.87-2.74-3.54A6.82,6.82,0,0,0,102,43,19.43,19.43,0,0,0,100,49.32c-.83,5.25-2.51,10-6.35,13.85C91.84,65,89.7,66.41,87,65.33c-2.92-1.15-3.65-3.78-3.86-6.56s.75-4.83,3.51-5.8l2.78,2.22c.4-5.14-2.32-7.25-6.88-5.75-4.27,1.4-5.62,4.74-5.88,8.75-.29,4.52-.35,9-.67,13.57s-2.27,7.87-6.43,9.71a5.14,5.14,0,0,1-6.81-2c-1.61-2.36-1.49-4.63.78-6.62a23.17,23.17,0,0,0,1.64-1.76c-2.46-1.93-4.34-1.21-6.2.52-3.34,3.07-3.35,6.66-2.13,10.67,1.44,4.72,2.85,9.47,3.82,14.3A5.35,5.35,0,0,1,56.16,103c-2.84.53-5.84-1.74-7-5.07-1.2-3.55,1-4.67,3.88-5.35-1.66-2.91-3.64-2.69-5.79-1.1-3.32,2.44-4.22,6.85-2,11,1.52,2.84,3.77,5.31,5.13,8.21a23.24,23.24,0,0,1,2.39,8.51c.12,2.8-.58,6.11-3.83,7.22s-5.37-1.21-7.21-3.29A6.19,6.19,0,0,1,40.37,119c.05-.77,1.85-1.41,3-2.23-.87-2.34-3-3.23-5.14-1.68a10.56,10.56,0,0,0-3.69,5.56c-.86,3.62,1.1,6.65,3.56,9.26,2.81,3,5.78,5.83,8.36,9a10.8,10.8,0,0,1,2.22,10A5.46,5.46,0,0,1,43,153.11c-2.86-.38-4.89-1.65-4.74-5a7.55,7.55,0,0,0-.48-2c-3.74.7-4.9,2.37-4,5.62,1.17,4.18,4.24,6.47,7.95,8.39a90.3,90.3,0,0,1,11.81,7.19c2.35,1.72,2.32,5.54.64,7.64s-5.41,2.59-8.3,1-2.86-3.9-1.4-6.78c-1.35.4-2.68.85-3.31,1.78a6.58,6.58,0,0,0,2.07,9.34,19.07,19.07,0,0,0,7.19,2.56,24.68,24.68,0,0,1,13.33,6c2.17,2,3.51,4.28,2.29,7.16s-3.92,3.81-6.69,3.54a9.36,9.36,0,0,1-4.91-2.45c-.41-.38.67-2.42,1.06-3.67-4.38-.67-6.83,2.49-5.15,7,1.59,4.32,5.21,5.44,9.3,5.68,4.53.26,9.08.29,13.59.69,4,.35,7.4,2.22,8.87,6a6.93,6.93,0,0,1-.53,5.65,6.92,6.92,0,0,1-5.19,2.36c-1.53-.06-3-1.87-4.47-2.9-2,3.5-1.12,6.41,2.7,7.76a10.32,10.32,0,0,0,5,.6c2.94-.52,5.77-1.65,8.68-2.4a63.68,63.68,0,0,1,9.71-2.15,5.72,5.72,0,0,1,5.8,4.67,6.18,6.18,0,0,1-4.12,6.58c-3.23,1.09-5.45,0-6.36-3.48-2.46,1.5-2.52,3.28-1.29,5.3,2.19,3.59,6.67,4.82,10.81,2.65C106,235.91,109,233.84,112,232c4-2.52,8.3-3.21,12.59-1a6.32,6.32,0,0,1,3.11,3.71c.7,3.76-4.7,8.3-8.65,7.58l-.86-2.92c-3.6,1.78-4.06,3.93-1.51,6.56,2.14,2.21,5,3.16,7.7,2.08a35.9,35.9,0,0,0,8.4-5.11c2.37-1.83,4.18-4.38,6.52-6.26,3.44-2.76,7.37-4.07,11.79-2.45,2.67,1,4,3.56,3.3,6.58-.66,2.84-2.43,4.23-5.45,3.72a18.16,18.16,0,0,0-1.85-.12c-.6,2.63.69,4,2.78,4.46,3,.73,5.87.21,7.8-2.51,1.24-1.75,2.2-3.69,3.31-5.54,2.21-3.69,4.28-7.48,6.72-11,1.75-2.53,4.56-2.85,7.28-1.72,2.56,1.06,3.32,3.46,2.79,5.93-.36,1.67-1.17,3.77-2.46,4.58s-3.4.17-5.8.17c1,1.11,1.6,2.36,2.63,3a6.52,6.52,0,0,0,9.1-2.1,23.18,23.18,0,0,0,2.94-8.38,22.23,22.23,0,0,1,5.66-12.08c1.81-2,3.91-3.48,6.82-2.56s3.64,3.14,4,5.73c.36,2.94-.4,5.31-3.41,6.59l-2.5-1.93c-.94,3.74.15,5.43,3.51,5.85a7.91,7.91,0,0,0,8.69-7.28c.45-4.6.54-9.25.74-13.88.24-5.68,2.82-9.88,7-11.39,2.78-1,4.92,0,6.47,2.22s1.46,4.43-.65,6.38a26.15,26.15,0,0,0-1.8,2c3.23,2.23,5.25.66,7.13-1.6a8.54,8.54,0,0,0,1.49-8.52c-1.18-3.79-2.7-7.49-3.72-11.33a14,14,0,0,1-.26-6.31,5,5,0,0,1,5.7-4.17,7,7,0,0,1,5.85,5.68c.5,3-1.27,4.22-4,4.5,1.73,2.55,2.68,2.84,4.87,1.76a7.17,7.17,0,0,0,3.17-9.9c-2.27-4.76-4.89-9.35-7.15-14.11a9.17,9.17,0,0,1,.93-9.79,4.29,4.29,0,0,1,5.13-1.7c3.34,1,6.12,3.61,5.91,6.44-.09,1.21-1.67,2.3-3,4,.85.49,2.12,1.85,3.33,1.79,2.77-.14,4.4-2.26,5-4.8a11,11,0,0,0-2.9-10.46c-2.64-2.85-5.59-5.45-7.93-8.52a20.81,20.81,0,0,1-3.56-7.42c-.63-2.52-.09-5.53,2.48-6.81a9,9,0,0,1,6.06-.45c3.08.92,2.76,3.81,2.17,6.41,4.45-.13,5.89-2.19,4.53-6-1.19-3.35-3.53-5.48-6.64-7.13a138.61,138.61,0,0,1-12.47-7.4c-2.38-1.6-2.92-4.21-1.7-6.92s3.6-3.43,6.2-2.91c1.59.31,3.66,1.08,4.34,2.3s.17,3.43.17,5.94c1.21-1,2.45-1.67,3-2.69,2.11-3.61.68-8-3.43-10a27.23,27.23,0,0,0-7.11-2,22.19,22.19,0,0,1-12.09-5.71c-2.09-2-3.75-4.32-2.32-7.43,1.14-2.46,4.94-3.92,8.16-3.27C229.78,83.14,230.54,85.18,227.87,88.21Zm-125.63-57,9.62-3.08c-4-5.92-4.35-7.88-1.89-10,1.55-1.34,3.07-1.46,4.18-.37-1.39,1.47-3.07,2.5-3.46,3.89-.28,1,1,3.41,1.9,3.55a9.08,9.08,0,0,0,5.67-.93c2.58-1.54,3.08-4.35,2.24-7.15s-2.6-5.21-5.88-5.77C109.09,10.43,102,16.82,103,22,103.52,24.84,102.55,28,102.24,31.24ZM265,113.32c-1.28-1.31-2.24-3-3.6-3.43-1-.31-3.41.88-3.57,1.7a8.5,8.5,0,0,0,.76,5.64c1.42,2.29,3.94,3.16,6.8,2.41,4.32-1.14,6.83-4.33,6.27-8.1-.77-5.18-5.83-9.71-10.22-9.57-3.19.1-6.39-.36-9.7-.58.88,2.73,2,6.14,3.1,9.64,5.43-4.06,7.73-4.48,10-1.94C266.34,110.73,266.28,112.27,265,113.32Zm-81-81.22c-1.11-5.45-.56-7.59,2.37-8.69,1.73-.65,3.78-1.46,4.86,1.37a29.06,29.06,0,0,0-3,0c-2.37.24-3.15,1.84-2.69,3.88.66,2.9,4.93,4.69,7.64,3.39a7.79,7.79,0,0,0,1.43-13.14c-3.62-2.81-10.42-2.37-13.33,1.19-2.22,2.72-4,5.81-6.08,8.9.7.3,1.05.49,1.43.62ZM29,170.77c-4.62,4-6.42,4.55-8.83,2.63-1.36-1.09-2.69-2.35-1.84-3.77,1.86.93,3.38,2.23,5,2.31,1,.05,3.12-1.69,3.07-2.55-.09-1.95-.67-4.64-2-5.56a9.84,9.84,0,0,0-6.84-1.22c-4.08.85-5.82,4.29-5.08,8.41.86,4.75,5.44,8.7,9.81,8.76,3.22,0,6.44.44,9.76.69ZM250.9,183c5.77-1,8.1-.21,9.06,2.89.68,2.19.27,3.16-1.75,4a6.91,6.91,0,0,1,0-1.29c.37-1.83-.11-3.51-2-3.72-1.34-.15-3.46.34-4.07,1.29a8,8,0,0,0-1.28,5.53,6.65,6.65,0,0,0,5.89,4.82,7.68,7.68,0,0,0,8.25-4.32c1.87-4.11.95-9.59-2.33-12.11-2.71-2.08-5.68-3.83-8.66-5.81-.37.82-.67,1.37-.87,2C252.4,178.4,251.71,180.54,250.9,183Zm-81.56,80.82a7.81,7.81,0,0,0,1.72-1.31c.74-1.05,2.07-2.43,1.81-3.26a5,5,0,0,0-3.06-2.68c-4-1.13-7.68,3-6.75,7.32,1,4.54,4,6.91,8.21,6.51,4.75-.45,9.66-5.27,9.71-9.38.05-3.48.28-7,.42-10.34l-9.69,3.13c2.35,2.84,5.37,5.37,2.68,9.17C173.3,264.52,171.78,265.63,169.34,263.82Zm79.17-55.62a7,7,0,0,0,.1-2c-.36-1.3-.54-3.18-1.44-3.68s-2.88-.05-3.9.67c-2.57,1.83-2.53,5.76-.22,8.64a7.44,7.44,0,0,0,10.16,1.31c4.29-3.19,4.66-11.29.88-15.06-2.33-2.32-4.33-5-6.5-7.49l-4.55,9c6,.49,7.59,1.38,7.93,4.46C251.17,205.82,251.31,207.76,248.51,208.2ZM33,98.74c-5.9,1.27-8.86.08-9.55-3.47-.35-1.74-.18-3.25,1.7-3.66.49,1.87.46,3.68,1.35,4.72,2,2.32,5.89.54,6.71-2.93a5.84,5.84,0,0,0-2-6.08,7.21,7.21,0,0,0-7.44-1.81c-6.13,2-7.91,11.63-2.78,16,2.67,2.25,5.79,4,9,6.15ZM189.3,258.28c.83-1,1.56-1.77,2.14-2.64a3.19,3.19,0,0,0-1.57-4.73,5.92,5.92,0,0,0-7.45,4,7.79,7.79,0,0,0,8.61,9.57c4.28-.65,9-5.76,8.6-10-.31-3.56-1.44-7-2.28-10.86l-8,4.13c4.48,3.43,5.73,5.77,4.52,8.44C193,257.85,191.86,259.15,189.3,258.28ZM35.24,73.49a8.64,8.64,0,0,0-.12,2.59c.36,1.21.76,2.89,1.65,3.33a4.28,4.28,0,0,0,3.67-.62c3.19-2.37,3.25-6.08.4-8.92-3.1-3.09-8.3-3.28-11.05-.41-3.44,3.59-3.44,10.88-.19,14.2,2.32,2.37,4.38,5,6.63,7.58L41,82.07c-6-.29-8.13-1.38-8.46-4.3C32.28,75.84,32.24,73.81,35.24,73.49ZM94.52,23.63c-.59.75-1.06,1.1-1.2,1.56-.44,1.39-1.49,3.41-.94,4.09a5.68,5.68,0,0,0,4.31,1.57c3.47-.26,5.32-3.12,4.78-6.68-.65-4.25-4.16-7.3-8-6.92-4.58.46-9.4,5.23-9.18,9.81.17,3.68,1.23,7.32,2,11.34l8.37-4.17C91.58,32,88.44,30.1,90,26,90.59,24.22,91.66,22.71,94.52,23.63ZM200.6,40.05c1.17-6.8,2.37-8.66,5.49-8.55,1.79.05,3.29.65,3.45,3.16a6.83,6.83,0,0,0-2.06-.27c-1.34.28-3.44.4-3.78,1.2a5.19,5.19,0,0,0,.64,4.25c1.8,2.66,5.4,2.85,8,.78,3.57-2.88,4.32-8,1.6-11.16-3.25-3.74-10.53-4.28-14.13-1.09-2.71,2.4-5.48,4.73-8.17,7.05ZM24.41,188.34a27.09,27.09,0,0,0,2.55,2,3.28,3.28,0,0,0,5-2.17,6,6,0,0,0-7.35-6.87c-4.77,1.11-7.33,4.91-6.26,9.29,1.22,5,7,8.85,11.5,7.74,3.06-.76,6.17-1.29,9.34-1.94l-4.07-8.22c-2.42,2.65-4.16,6.18-8.45,4.58C24.83,192.11,23.46,190.93,24.41,188.34ZM259.32,93.66c-.62-.57-1-.9-1.39-1.28-1.31-1.42-3-2.29-4.47-.78A5.78,5.78,0,0,0,252.09,96c.68,3.83,4.09,5.55,7.86,4.4,4.46-1.35,6.71-5.3,5.39-9.46-1.67-5.28-7.12-8.6-11.6-7.32-2.91.84-5.94,1.27-9.05,1.91,1.14,2.32,2.53,5.14,4.05,8.2,2.41-3,4.44-6.42,8.81-4.5C259.11,89.91,260.51,91.1,259.32,93.66ZM92.43,256.85a3.88,3.88,0,0,0,1.33.14c1.39-.44,3.64-.68,3.91-1.52a5.46,5.46,0,0,0-1-4.49c-1.94-2.21-4.6-2.18-7.06-.63a7.76,7.76,0,0,0-.18,12.87c3.26,2.25,9.75,2,12.36-1s4.42-6.17,6.77-9.54l-8.41-2.8c.22,6.73-.35,8-3.71,8.92C94.51,259.4,93.08,259.17,92.43,256.85Zm-.34-10.46-8.87-4.47c-.71,6.37-1.94,8.26-5.24,8.36-2,.06-3.5-.48-3.7-3.11l1.77.34c1.92.36,4.13.45,4.38-1.88a6.31,6.31,0,0,0-1.94-4.52c-2.3-2.16-5.32-1.63-7.74.85-2.89,3-3.38,7-1.2,10,3.15,4.3,11.22,4.78,15,1C86.91,250.72,89.47,248.68,92.09,246.39ZM48,57.06c-.31,2.39-1.16,4.27-.6,5.53,1.26,2.8,5,2.39,6.75-.5a6.62,6.62,0,0,0-1.51-8.71,7.44,7.44,0,0,0-9.77-.17A10.52,10.52,0,0,0,40,64.71c1.49,3.49,3.59,6.73,5.59,10.37l5.65-7.79c-3-1.86-7.46-2.43-6.29-7.34C45.18,58.86,46.83,58.1,48,57.06Zm201.9,19c-1.64-.91-3.1-2.27-4.65-2.38-1-.08-2.67,1.44-3.15,2.6a4.15,4.15,0,0,0,2.26,5.44,11.47,11.47,0,0,0,6.32,1c3.27-.55,5.08-3.06,5.46-6.38a9,9,0,0,0-4.71-8.55c-6.09-3.31-11.12-.24-16.5,2.64,1.51,2,2.87,3.84,4.28,5.74,4-4.78,6.33-5.87,8.94-4.25C250,73.07,251,74.56,249.88,76.07Zm-115-59.53c-3-.11-4.94.68-4.54,3.8.28,2.19,2.47,3.27,5.34,2.73a6.49,6.49,0,0,0,5.12-5.89,7.64,7.64,0,0,0-4.7-7.72c-4.6-1.87-10.74,1.16-12.69,6.56-1.15,3.17-1.77,6.54-2.73,10.19l9.46-1.37c-2.23-6.34-2.22-8.12.08-9.56C131.91,14.21,133.44,14.34,134.86,16.54ZM33.91,206c1.7.9,3.17,2.28,4.56,2.21,1.22,0,3.27-1.7,3.32-2.72a7.8,7.8,0,0,0-1.95-5A5.87,5.87,0,0,0,33,199.05c-2.67,1-4.66,2.59-5.12,5.64-.81,5.39,2.67,9.84,8.29,10.63,4.82.68,8.58-1.77,12.75-3.85l-4.38-6c-2.25,2.8-4,6.12-8.14,4.75C34.19,209.53,33.16,207.93,33.91,206ZM225.76,46.9l-.83.82c-.49-.33-1-.69-1.48-1-2.54-1.48-4.81-.23-4.85,2.7,0,2.76,1.76,4.11,4.14,4.6a6.65,6.65,0,0,0,7.52-3.15,7.16,7.16,0,0,0-.39-8.71,10.48,10.48,0,0,0-12.65-2.61c-3.06,1.49-5.95,3.33-9.23,5.2l7.5,5.57c3.92-6.25,5.09-7.37,7.44-6.35C224.08,44.48,224.83,45.9,225.76,46.9ZM75.82,237.15,68,231.34c-2.7,5.94-4.29,7.5-7.14,6.53-1-.35-1.67-1.71-2.59-2.71,2.44,0,4.35.49,5.68-.18.81-.4,1.43-3.16.87-3.87a9.52,9.52,0,0,0-4.93-3.39c-3.35-.71-6.64,2.21-7.37,5.78A7,7,0,0,0,55,240.74a10.22,10.22,0,0,0,10.9,1.8C69.21,241.18,72.26,239.11,75.82,237.15ZM232.6,214.54c3.12,1.94,7.34,2.61,6.43,7.21-.22,1.15-2.15,2-3.51,3.12.52-2.38,1.44-4.09,1-5.36-.33-1-2.68-2.28-3.49-1.93a7.63,7.63,0,0,0-3.9,3.75c-1.53,4,1.54,8.3,5.93,8.9a7.16,7.16,0,0,0,7.31-3.12,10.38,10.38,0,0,0,.88-11.28c-1.49-2.94-3.25-5.73-5.19-9.11a14.44,14.44,0,0,1-.74,1.35C235.82,210.16,234.29,212.23,232.6,214.54ZM77,33a11.67,11.67,0,0,0-1.76,2.82,4.43,4.43,0,0,0,.11,3.2,4.35,4.35,0,0,0,3,1.88c3.57,0,6.42-3.95,5.73-7.51a7.68,7.68,0,0,0-9.59-6.24c-4.93,1.34-8.81,7.4-7.28,11.67,1.11,3.09,2.55,6.05,4,9.37l5.75-4.29c-2.4-2.69-6.08-4.38-4.34-8.53C73.27,33.68,74.44,32.14,77,33ZM16.35,148.61c1.33,1.49,2.21,3.37,3.57,3.81,2.76.9,4.93-2.37,4-5.59a6.58,6.58,0,0,0-7.22-4.7,7.13,7.13,0,0,0-6.86,6.51,10.67,10.67,0,0,0,7.65,11c3,.93,6,1.58,9.49,2.49l-1.34-9.64c-3.38,1.22-6.33,3.66-9.27.37C15.06,151.46,14.92,149.8,16.35,148.61Zm190.12,100.1a11,11,0,0,1,1.28-1.45c1.57-1.26,2.29-3,.88-4.43a5.54,5.54,0,0,0-4.13-1.44c-4.56.63-6.31,6.35-3.35,10.43a7.7,7.7,0,0,0,9.83,2.26c4.13-2,6.91-7.08,5.64-10.9-1-3.13-2.53-6.11-4-9.45l-6,4.35c2.85,2.41,6.19,4.41,4.56,8.6C210.57,248.25,209.24,249.88,206.47,248.71ZM111,262.32a6.34,6.34,0,0,0,2.2.14c1.25-.49,3.07-.94,3.44-1.88a4.7,4.7,0,0,0-1-3.91c-2-2.35-4.74-2.46-7.21-.6s-3.86,4.43-3.28,7.57a7.38,7.38,0,0,0,5.52,6.11c4.62,1.38,10.73-.68,11.9-4,1.08-3,2.29-6,3.5-9.18L119,255.36c.66,6.26-.22,8.46-3.55,9.4C113.31,265.37,112,264.56,111,262.32ZM267.3,133.61a35,35,0,0,0-2.07-3.19c-1.5-1.82-3.18-1.25-4.31.26-2.06,2.75-.67,7.1,2.5,8.48a7.41,7.41,0,0,0,10.55-6.7c0-4.1-1.72-7.55-5.4-9.23s-7.58-2.4-11.8-3.67c.54,3.65,1,6.6,1.43,9.65,3.18-.84,6.12-3.6,9.12-.43C268.54,130.07,269.28,131.68,267.3,133.61Zm-3.76,37.95c0-.59,0-1.12,0-1.64.22-2.92-1-4.5-3.26-4.38-1.93.11-4.15,2.8-4,4.82.32,3.75,3.28,7,6.63,7.33,3.79.34,7.22-2.33,8.19-6.37,1-4.22-.85-9.74-3.7-10.88-3.21-1.29-6.43-2.53-9.76-3.84-.33,2.18-.7,4.76-1.11,7.5,4.88-1.3,7.35-.69,8.58,2.05C266.1,168.27,266.43,170.35,263.54,171.56ZM163.13,255.72l-9.57,1.34c1.22,3.31,3.67,6.38.36,9.16-1,.81-2.82.6-4.26.86l-.24-1.12a27.22,27.22,0,0,0,2.72-1.59,3,3,0,0,0-.21-4.89,6.13,6.13,0,0,0-8.12,2.5,7.55,7.55,0,0,0,6.25,10.92,10.67,10.67,0,0,0,10.44-7.2C161.54,262.67,162.15,259.49,163.13,255.72ZM172.46,19.6c-.86-.12-1.47-.41-1.87-.23-1.3.59-3.59,1.35-3.58,2,0,1.57.73,3.77,1.92,4.55,3.12,2,8.95-1.2,9.55-4.94.68-4.18-1.37-7.65-5.23-8.85-4.56-1.42-10.42.33-12,3.85-1.36,3-2.34,6.13-3.56,9.39l7,1c.14-7.1.7-8.46,3.64-9.23C170.15,16.65,171.66,17,172.46,19.6ZM26.08,125.3l1.2-7.23c-6.5.44-8.62-.39-9.46-3.62-.49-1.91-.06-3.37,1.91-3.82.41,1.64.41,3.46,1.3,4.55.62.75,3,1.11,3.66.55a7,7,0,0,0,2.56-4.35c.21-3.28-2.58-6.36-5.57-7a7.37,7.37,0,0,0-8.26,4.2c-2.33,4.62-.45,11.56,3.4,13C19.88,122.66,22.87,124,26.08,125.3Zm-.86,11.32c-6.8,1.45-8.93,1.07-10.1-1.88-.77-1.94-.75-3.73,1.71-4.82a5.07,5.07,0,0,0,.13,1.8c.68,1.31,1.25,3.14,2.36,3.61.91.39,2.88-.52,3.77-1.45,3.14-3.27,1.31-8.28-3.49-9.76-2.85-.87-5.67-.68-7.76,1.72a9.87,9.87,0,0,0-1.77,10.59c1,2.69,2.39,4.74,6.23,4,2.12-.39,4.62,1.12,6.91,1.89a9,9,0,0,1,2,1.42ZM131.07,266.08a22.69,22.69,0,0,0,3.57-.83,3.14,3.14,0,0,0,1.14-4.83,5.81,5.81,0,0,0-9.63.47c-1.65,2.68-2.44,5.6-.51,8.49,2.13,3.2,5.39,4.28,9,3.85,2.87-.35,6.46-1.05,6.66-4.44.25-4.07-.14-8.05,3.82-11.26h-7.62c1.66,6.19,1.32,8.47-1.52,9.89C134.16,268.34,132.52,268.14,131.07,266.08Zm8-241.87h7.34c-1.08-3.53-2.65-7.07,1.35-9.67,1.78-1.16,3.43-.86,4.91,1.08-1.18.33-2.21.54-3.18.9A3.13,3.13,0,0,0,148,21.46a6,6,0,0,0,9.5-.16c2.8-3.82,2.13-8.66-1.52-11.08-4.07-2.7-11.09-1.83-13.22,1.69a3,3,0,0,0-.43,2.1C143.37,17.87,142,21,139,24.21ZM60.92,44.52c-.79,1.26-1.47,2.22-2,3.26-1,2,.08,3.44,1.71,4.21,2.45,1.15,6.89-1.37,7.52-4.05,1.3-5.51-4.1-10.83-9.49-9.19-3.72,1.14-6.56,3.55-7.27,7.48-.28,1.5.48,3.42,1.31,4.82,1.62,2.73,3.62,5.24,5.55,8-.06.06.56-.5,1.21-1,1-.81,2-1.61,3.15-2.52-5.56-3.05-6.92-4.81-6.12-7.81C57,45.64,58,44.08,60.92,44.52Zm177.61,15.7c-.89-.54-1.34-.81-1.78-1.1-1.8-1.2-3.58-2.22-5.32.08s-1.21,4.41.77,6.28a6.41,6.41,0,0,0,7.74,1.1c3-1.41,4.82-3.55,4.62-7-.25-4.24-4.31-8.8-8.55-9.29-1.14-.13-3,.09-3.47.82-2.21,3.46-5.36,5.14-9.93,5.76l5,4.66c1.86-3.3,3.24-6.71,7.5-6C237.22,55.91,238.88,57.12,238.53,60.22ZM223,237.12a25.53,25.53,0,0,0,1.79-2.83c.94-2,.27-3.69-1.75-4.45-2.88-1.09-7.13,1.75-7.54,4.84a7.73,7.73,0,0,0,9.39,8.46,10.45,10.45,0,0,0,7.79-7.83c.3-1.1.21-3-.49-3.57-3.09-2.46-5.64-5.12-5.57-9.79l-5,4.59c3.21,2,7,3.43,5.59,8.09C226.69,236.46,225.59,237.86,223,237.12Zm44.38-85.44a8.43,8.43,0,0,0-.74-2.16c-.77-1.11-1.71-2.9-2.62-2.93a5.31,5.31,0,0,0-3.78,2.09,5.47,5.47,0,0,0,1.16,7.52c3,2.53,7.12,2.73,9.82.46,3.91-3.26,4.37-10.29.83-14a3.59,3.59,0,0,0-2.41-1.29c-4,.52-7.62.13-10.93-3.54v7.41c5.93-1.57,8.18-1.26,9.68,1.28C269.54,148.43,269.62,150.2,267.41,151.68ZM45.51,221.81c.77.51,1.23.77,1.65,1.09,1.84,1.39,3.64,2,5.27-.26A4.18,4.18,0,0,0,52,216.8a6.49,6.49,0,0,0-7.93-1.62c-3.36,1.46-5.18,4.21-4.86,7.25a10.53,10.53,0,0,0,8.39,9.08,5.17,5.17,0,0,0,4.11-1.36,11.35,11.35,0,0,1,8.82-4.67L56,220.71c-1.71,3.58-3.52,6.46-7.71,5.47C46.34,225.72,45,224.58,45.51,221.81Z"/><path class="cls-1" d="M102.24,31.24c.31-3.23,1.28-6.4.73-9.27-1-5.15,6.12-11.54,11.65-10.59,3.28.56,5,2.85,5.88,5.77s.34,5.61-2.24,7.15a9.08,9.08,0,0,1-5.67.93c-.87-.14-2.18-2.55-1.9-3.55.39-1.39,2.07-2.42,3.46-3.89-1.11-1.09-2.63-1-4.18.37-2.46,2.12-2.09,4.08,1.89,10Z"/><path class="cls-1" d="M265,113.32c1.24-1,1.3-2.59-.17-4.23-2.26-2.54-4.56-2.12-10,1.94-1.13-3.5-2.22-6.91-3.1-9.64,3.31.22,6.51.68,9.7.58,4.39-.14,9.45,4.39,10.22,9.57.56,3.77-1.95,7-6.27,8.1-2.86.75-5.38-.12-6.8-2.41a8.5,8.5,0,0,1-.76-5.64c.16-.82,2.6-2,3.57-1.7C262.8,110.32,263.76,112,265,113.32Z"/><path class="cls-1" d="M184.09,32.1l-7.34-2.46c-.38-.13-.73-.32-1.43-.62,2.09-3.09,3.86-6.18,6.08-8.9,2.91-3.56,9.71-4,13.33-1.19a7.79,7.79,0,0,1-1.43,13.14c-2.71,1.3-7-.49-7.64-3.39-.46-2,.32-3.64,2.69-3.88a29.06,29.06,0,0,1,3,0c-1.08-2.83-3.13-2-4.86-1.37C183.53,24.51,183,26.65,184.09,32.1Z"/><path class="cls-1" d="M29,170.77l3,9.7c-3.32-.25-6.54-.65-9.76-.69-4.37-.06-9-4-9.81-8.76-.74-4.12,1-7.56,5.08-8.41a9.84,9.84,0,0,1,6.84,1.22c1.38.92,2,3.61,2,5.56.05.86-2,2.6-3.07,2.55-1.58-.08-3.1-1.38-5-2.31-.85,1.42.48,2.68,1.84,3.77C22.55,175.32,24.35,174.77,29,170.77Z"/><path class="cls-1" d="M250.9,183c.81-2.46,1.5-4.6,2.23-6.72.2-.59.5-1.14.87-2,3,2,5.95,3.73,8.66,5.81,3.28,2.52,4.2,8,2.33,12.11a7.68,7.68,0,0,1-8.25,4.32,6.65,6.65,0,0,1-5.89-4.82,8,8,0,0,1,1.28-5.53c.61-1,2.73-1.44,4.07-1.29,1.91.21,2.39,1.89,2,3.72a6.91,6.91,0,0,0,0,1.29c2-.88,2.43-1.85,1.75-4C259,182.79,256.67,182,250.9,183Z"/><path class="cls-1" d="M169.34,263.82c2.44,1.81,4,.7,5-.84,2.69-3.8-.33-6.33-2.68-9.17l9.69-3.13c-.14,3.37-.37,6.86-.42,10.34,0,4.11-5,8.93-9.71,9.38-4.24.4-7.23-2-8.21-6.51-.93-4.35,2.73-8.45,6.75-7.32a5,5,0,0,1,3.06,2.68c.26.83-1.07,2.21-1.81,3.26A7.81,7.81,0,0,1,169.34,263.82Z"/><path class="cls-1" d="M248.51,208.2c2.8-.44,2.66-2.38,2.46-4.18-.34-3.08-1.93-4-7.93-4.46l4.55-9c2.17,2.52,4.17,5.17,6.5,7.49,3.78,3.77,3.41,11.87-.88,15.06a7.44,7.44,0,0,1-10.16-1.31c-2.31-2.88-2.35-6.81.22-8.64,1-.72,3-1.18,3.9-.67s1.08,2.38,1.44,3.68A7,7,0,0,1,248.51,208.2Z"/><path class="cls-1" d="M33,98.74l-3,8.89c-3.25-2.19-6.37-3.9-9-6.15-5.13-4.34-3.35-14,2.78-16a7.21,7.21,0,0,1,7.44,1.81,5.84,5.84,0,0,1,2,6.08c-.82,3.47-4.73,5.25-6.71,2.93-.89-1-.86-2.85-1.35-4.72-1.88.41-2.05,1.92-1.7,3.66C24.09,98.82,27.05,100,33,98.74Z"/><path class="cls-1" d="M189.3,258.28c2.56.87,3.74-.43,4.52-2.16,1.21-2.67,0-5-4.52-8.44l8-4.13c.84,3.82,2,7.3,2.28,10.86.38,4.28-4.32,9.39-8.6,10a7.79,7.79,0,0,1-8.61-9.57,5.92,5.92,0,0,1,7.45-4,3.19,3.19,0,0,1,1.57,4.73C190.86,256.51,190.13,257.27,189.3,258.28Z"/><path class="cls-1" d="M35.24,73.49c-3,.32-3,2.35-2.74,4.28.33,2.92,2.47,4,8.46,4.3l-4.73,9.17C34,88.64,31.92,86,29.6,83.66c-3.25-3.32-3.25-10.61.19-14.2,2.75-2.87,8-2.68,11.05.41,2.85,2.84,2.79,6.55-.4,8.92a4.28,4.28,0,0,1-3.67.62c-.89-.44-1.29-2.12-1.65-3.33A8.64,8.64,0,0,1,35.24,73.49Z"/><path class="cls-1" d="M94.52,23.63c-2.86-.92-3.93.59-4.57,2.34-1.51,4.13,1.63,6,4.69,8.26L86.27,38.4c-.73-4-1.79-7.66-2-11.34-.22-4.58,4.6-9.35,9.18-9.81,3.82-.38,7.33,2.67,8,6.92.54,3.56-1.31,6.42-4.78,6.68a5.68,5.68,0,0,1-4.31-1.57c-.55-.68.5-2.7.94-4.09C93.46,24.73,93.93,24.38,94.52,23.63Z"/><path class="cls-1" d="M200.6,40.05l-9-4.63c2.69-2.32,5.46-4.65,8.17-7,3.6-3.19,10.88-2.65,14.13,1.09,2.72,3.11,2,8.28-1.6,11.16-2.57,2.07-6.17,1.88-8-.78a5.19,5.19,0,0,1-.64-4.25c.34-.8,2.44-.92,3.78-1.2a6.83,6.83,0,0,1,2.06.27c-.16-2.51-1.66-3.11-3.45-3.16C203,31.39,201.77,33.25,200.6,40.05Z"/><path class="cls-1" d="M24.41,188.34c-.95,2.59.42,3.77,2.23,4.45,4.29,1.6,6-1.93,8.45-4.58l4.07,8.22c-3.17.65-6.28,1.18-9.34,1.94-4.48,1.11-10.28-2.72-11.5-7.74-1.07-4.38,1.49-8.18,6.26-9.29a6,6,0,0,1,7.35,6.87,3.28,3.28,0,0,1-5,2.17A27.09,27.09,0,0,1,24.41,188.34Z"/><path class="cls-1" d="M259.32,93.66c1.19-2.56-.21-3.75-1.77-4.44-4.37-1.92-6.4,1.45-8.81,4.5-1.52-3.06-2.91-5.88-4.05-8.2,3.11-.64,6.14-1.07,9.05-1.91,4.48-1.28,9.93,2,11.6,7.32,1.32,4.16-.93,8.11-5.39,9.46-3.77,1.15-7.18-.57-7.86-4.4a5.78,5.78,0,0,1,1.37-4.39c1.43-1.51,3.16-.64,4.47.78C258.28,92.76,258.7,93.09,259.32,93.66Z"/><path class="cls-1" d="M92.43,256.85c.65,2.32,2.08,2.55,4,2,3.36-1,3.93-2.19,3.71-8.92l8.41,2.8c-2.35,3.37-4.28,6.71-6.77,9.54s-9.1,3.2-12.36,1a7.76,7.76,0,0,1,.18-12.87c2.46-1.55,5.12-1.58,7.06.63a5.46,5.46,0,0,1,1,4.49c-.27.84-2.52,1.08-3.91,1.52A3.88,3.88,0,0,1,92.43,256.85Z"/><path class="cls-1" d="M92.09,246.39c-2.62,2.29-5.18,4.33-7.5,6.59-3.82,3.74-11.89,3.26-15-1-2.18-2.95-1.69-7,1.2-10,2.42-2.48,5.44-3,7.74-.85a6.31,6.31,0,0,1,1.94,4.52c-.25,2.33-2.46,2.24-4.38,1.88l-1.77-.34c.2,2.63,1.71,3.17,3.7,3.11,3.3-.1,4.53-2,5.24-8.36Z"/><path class="cls-1" d="M48,57.06c-1.15,1-2.8,1.8-3,2.89-1.17,4.91,3.32,5.48,6.29,7.34l-5.65,7.79c-2-3.64-4.1-6.88-5.59-10.37a10.52,10.52,0,0,1,2.87-11.5,7.44,7.44,0,0,1,9.77.17,6.62,6.62,0,0,1,1.51,8.71c-1.77,2.89-5.49,3.3-6.75.5C46.82,61.33,47.67,59.45,48,57.06Z"/><path class="cls-1" d="M249.88,76.07c1.12-1.51.1-3-1.75-4.14-2.61-1.62-4.91-.53-8.94,4.25-1.41-1.9-2.77-3.73-4.28-5.74,5.38-2.88,10.41-6,16.5-2.64a9,9,0,0,1,4.71,8.55c-.38,3.32-2.19,5.83-5.46,6.38a11.47,11.47,0,0,1-6.32-1,4.15,4.15,0,0,1-2.26-5.44c.48-1.16,2.13-2.68,3.15-2.6C246.78,73.8,248.24,75.16,249.88,76.07Z"/><path class="cls-1" d="M134.86,16.54c-1.42-2.2-3-2.33-4.66-1.26-2.3,1.44-2.31,3.22-.08,9.56l-9.46,1.37c1-3.65,1.58-7,2.73-10.19,2-5.4,8.09-8.43,12.69-6.56a7.64,7.64,0,0,1,4.7,7.72,6.49,6.49,0,0,1-5.12,5.89c-2.87.54-5.06-.54-5.34-2.73C129.92,17.22,131.85,16.43,134.86,16.54Z"/><path class="cls-1" d="M33.91,206c-.75,2,.28,3.57,2.5,4.3,4.18,1.37,5.89-1.95,8.14-4.75l4.38,6c-4.17,2.08-7.93,4.53-12.75,3.85-5.62-.79-9.1-5.24-8.29-10.63.46-3.05,2.45-4.6,5.12-5.64a5.87,5.87,0,0,1,6.83,1.36,7.8,7.8,0,0,1,1.95,5c0,1-2.1,2.67-3.32,2.72C37.08,208.24,35.61,206.86,33.91,206Z"/><path class="cls-1" d="M225.76,46.9c-.93-1-1.68-2.42-2.83-2.92-2.35-1-3.52.1-7.44,6.35L208,44.76c3.28-1.87,6.17-3.71,9.23-5.2a10.48,10.48,0,0,1,12.65,2.61,7.16,7.16,0,0,1,.39,8.71A6.65,6.65,0,0,1,222.74,54c-2.38-.49-4.18-1.84-4.14-4.6,0-2.93,2.31-4.18,4.85-2.7.51.3,1,.66,1.48,1Z"/><path class="cls-1" d="M75.82,237.15c-3.56,2-6.61,4-9.94,5.39a10.22,10.22,0,0,1-10.9-1.8,7,7,0,0,1-2.43-7.24c.73-3.57,4-6.49,7.37-5.78a9.52,9.52,0,0,1,4.93,3.39c.56.71-.06,3.47-.87,3.87-1.33.67-3.24.18-5.68.18.92,1,1.58,2.36,2.59,2.71,2.85,1,4.44-.59,7.14-6.53Z"/><path class="cls-1" d="M232.6,214.54c1.69-2.31,3.22-4.38,4.73-6.47a14.44,14.44,0,0,0,.74-1.35c1.94,3.38,3.7,6.17,5.19,9.11a10.38,10.38,0,0,1-.88,11.28,7.16,7.16,0,0,1-7.31,3.12c-4.39-.6-7.46-4.87-5.93-8.9a7.63,7.63,0,0,1,3.9-3.75c.81-.35,3.16.94,3.49,1.93.43,1.27-.49,3-1,5.36,1.36-1.16,3.29-2,3.51-3.12C239.94,217.15,235.72,216.48,232.6,214.54Z"/><path class="cls-1" d="M77,33c-2.53-.83-3.7.71-4.39,2.37-1.74,4.15,1.94,5.84,4.34,8.53l-5.75,4.29c-1.43-3.32-2.87-6.28-4-9.37-1.53-4.27,2.35-10.33,7.28-11.67a7.68,7.68,0,0,1,9.59,6.24c.69,3.56-2.16,7.5-5.73,7.51a4.35,4.35,0,0,1-3-1.88,4.43,4.43,0,0,1-.11-3.2A11.67,11.67,0,0,1,77,33Z"/><path class="cls-1" d="M16.35,148.61c-1.43,1.19-1.29,2.85,0,4.28,2.94,3.29,5.89.85,9.27-.37L27,162.16c-3.49-.91-6.53-1.56-9.49-2.49a10.67,10.67,0,0,1-7.65-11,7.13,7.13,0,0,1,6.86-6.51,6.58,6.58,0,0,1,7.22,4.7c1,3.22-1.21,6.49-4,5.59C18.56,152,17.68,150.1,16.35,148.61Z"/><path class="cls-1" d="M206.47,248.71c2.77,1.17,4.1-.46,4.72-2,1.63-4.19-1.71-6.19-4.56-8.6l6-4.35c1.42,3.34,2.91,6.32,4,9.45,1.27,3.82-1.51,8.92-5.64,10.9a7.7,7.7,0,0,1-9.83-2.26c-3-4.08-1.21-9.8,3.35-10.43a5.54,5.54,0,0,1,4.13,1.44c1.41,1.47.69,3.17-.88,4.43A11,11,0,0,0,206.47,248.71Z"/><path class="cls-1" d="M111,262.32c1,2.24,2.29,3.05,4.43,2.44,3.33-.94,4.21-3.14,3.55-9.4l7.14,1.21c-1.21,3.16-2.42,6.14-3.5,9.18-1.17,3.32-7.28,5.38-11.9,4a7.38,7.38,0,0,1-5.52-6.11c-.58-3.14.77-5.69,3.28-7.57s5.25-1.75,7.21.6a4.7,4.7,0,0,1,1,3.91c-.37.94-2.19,1.39-3.44,1.88A6.34,6.34,0,0,1,111,262.32Z"/><path class="cls-1" d="M267.3,133.61c2-1.93,1.24-3.54,0-4.83-3-3.17-5.94-.41-9.12.43-.45-3.05-.89-6-1.43-9.65,4.22,1.27,8.2,2,11.8,3.67s5.44,5.13,5.4,9.23a7.41,7.41,0,0,1-10.55,6.7c-3.17-1.38-4.56-5.73-2.5-8.48,1.13-1.51,2.81-2.08,4.31-.26A35,35,0,0,1,267.3,133.61Z"/><path class="cls-1" d="M263.54,171.56c2.89-1.21,2.56-3.29,1.6-5.41-1.23-2.74-3.7-3.35-8.58-2.05.41-2.74.78-5.32,1.11-7.5,3.33,1.31,6.55,2.55,9.76,3.84,2.85,1.14,4.72,6.66,3.7,10.88-1,4-4.4,6.71-8.19,6.37-3.35-.31-6.31-3.58-6.63-7.33-.18-2,2-4.71,4-4.82,2.31-.12,3.48,1.46,3.26,4.38C263.5,170.44,263.54,171,263.54,171.56Z"/><path class="cls-1" d="M163.13,255.72c-1,3.77-1.59,7-2.63,10a10.67,10.67,0,0,1-10.44,7.2A7.55,7.55,0,0,1,143.81,262a6.13,6.13,0,0,1,8.12-2.5,3,3,0,0,1,.21,4.89,27.22,27.22,0,0,1-2.72,1.59l.24,1.12c1.44-.26,3.28-.05,4.26-.86,3.31-2.78.86-5.85-.36-9.16Z"/><path class="cls-1" d="M172.46,19.6c-.8-2.65-2.31-3-4.21-2.46-2.94.77-3.5,2.13-3.64,9.23l-7-1c1.22-3.26,2.2-6.41,3.56-9.39,1.61-3.52,7.47-5.27,12-3.85,3.86,1.2,5.91,4.67,5.23,8.85-.6,3.74-6.43,7-9.55,4.94-1.19-.78-1.91-3-1.92-4.55,0-.68,2.28-1.44,3.58-2C171,19.19,171.6,19.48,172.46,19.6Z"/><path class="cls-1" d="M26.08,125.3c-3.21-1.31-6.2-2.64-9.26-3.76-3.85-1.41-5.73-8.35-3.4-13a7.37,7.37,0,0,1,8.26-4.2c3,.65,5.78,3.73,5.57,7a7,7,0,0,1-2.56,4.35c-.69.56-3,.2-3.66-.55-.89-1.09-.89-2.91-1.3-4.55-2,.45-2.4,1.91-1.91,3.82.84,3.23,3,4.06,9.46,3.62Z"/><path class="cls-1" d="M25.22,136.62v7.14a9,9,0,0,0-2-1.42c-2.29-.77-4.79-2.28-6.91-1.89-3.84.72-5.19-1.33-6.23-4a9.87,9.87,0,0,1,1.77-10.59c2.09-2.4,4.91-2.59,7.76-1.72,4.8,1.48,6.63,6.49,3.49,9.76-.89.93-2.86,1.84-3.77,1.45-1.11-.47-1.68-2.3-2.36-3.61a5.07,5.07,0,0,1-.13-1.8c-2.46,1.09-2.48,2.88-1.71,4.82C16.29,137.69,18.42,138.07,25.22,136.62Z"/><path class="cls-1" d="M131.07,266.08c1.45,2.06,3.09,2.26,4.92,1.34,2.84-1.42,3.18-3.7,1.52-9.89h7.62c-4,3.21-3.57,7.19-3.82,11.26-.2,3.39-3.79,4.09-6.66,4.44-3.62.43-6.88-.65-9-3.85-1.93-2.89-1.14-5.81.51-8.49a5.81,5.81,0,0,1,9.63-.47,3.14,3.14,0,0,1-1.14,4.83A22.69,22.69,0,0,1,131.07,266.08Z"/><path class="cls-1" d="M139,24.21C142,21,143.37,17.87,142.29,14a3,3,0,0,1,.43-2.1c2.13-3.52,9.15-4.39,13.22-1.69,3.65,2.42,4.32,7.26,1.52,11.08a6,6,0,0,1-9.5.16,3.13,3.13,0,0,1,1.49-4.94c1-.36,2-.57,3.18-.9-1.48-1.94-3.13-2.24-4.91-1.08-4,2.6-2.43,6.14-1.35,9.67Z"/><path class="cls-1" d="M60.92,44.52C58,44.08,57,45.64,56.47,47.64c-.8,3,.56,4.76,6.12,7.81-1.14.91-2.15,1.71-3.15,2.52-.65.53-1.27,1.09-1.21,1-1.93-2.71-3.93-5.22-5.55-8-.83-1.4-1.59-3.32-1.31-4.82.71-3.93,3.55-6.34,7.27-7.48,5.39-1.64,10.79,3.68,9.49,9.19-.63,2.68-5.07,5.2-7.52,4.05-1.63-.77-2.76-2.19-1.71-4.21C59.45,46.74,60.13,45.78,60.92,44.52Z"/><path class="cls-1" d="M238.53,60.22c.35-3.1-1.31-4.31-3.39-4.68-4.26-.76-5.64,2.65-7.5,6l-5-4.66c4.57-.62,7.72-2.3,9.93-5.76.47-.73,2.33-1,3.47-.82,4.24.49,8.3,5,8.55,9.29.2,3.49-1.64,5.63-4.62,7a6.41,6.41,0,0,1-7.74-1.1c-2-1.87-2.55-3.93-.77-6.28s3.52-1.28,5.32-.08C237.19,59.41,237.64,59.68,238.53,60.22Z"/><path class="cls-1" d="M223,237.12c2.56.74,3.66-.66,4.22-2.49,1.41-4.66-2.38-6.06-5.59-8.09l5-4.59c-.07,4.67,2.48,7.33,5.57,9.79.7.56.79,2.47.49,3.57a10.45,10.45,0,0,1-7.79,7.83,7.73,7.73,0,0,1-9.39-8.46c.41-3.09,4.66-5.93,7.54-4.84,2,.76,2.69,2.42,1.75,4.45A25.53,25.53,0,0,1,223,237.12Z"/><path class="cls-1" d="M267.41,151.68c2.21-1.48,2.13-3.25,1-5.14-1.5-2.54-3.75-2.85-9.68-1.28v-7.41c3.31,3.67,7,4.06,10.93,3.54a3.59,3.59,0,0,1,2.41,1.29c3.54,3.69,3.08,10.72-.83,14-2.7,2.27-6.8,2.07-9.82-.46a5.47,5.47,0,0,1-1.16-7.52,5.31,5.31,0,0,1,3.78-2.09c.91,0,1.85,1.82,2.62,2.93A8.43,8.43,0,0,1,267.41,151.68Z"/><path class="cls-1" d="M45.51,221.81c-.5,2.77.83,3.91,2.76,4.37,4.19,1,6-1.89,7.71-5.47l4.56,4.77a11.35,11.35,0,0,0-8.82,4.67,5.17,5.17,0,0,1-4.11,1.36,10.53,10.53,0,0,1-8.39-9.08c-.32-3,1.5-5.79,4.86-7.25A6.49,6.49,0,0,1,52,216.8a4.18,4.18,0,0,1,.42,5.84c-1.63,2.25-3.43,1.65-5.27.26C46.74,222.58,46.28,222.32,45.51,221.81Z"/><path d="M224.33,208.18c-.55-2.22-.55-4.8-1.76-6.58-3.36-4.94-10.25-4.63-13.72.87-1.79,2.86-2.58,6.53-3.11,9.94-.64,4.12-.27,8.4-.85,12.54-.27,1.88-1.76,3.6-2.7,5.39l-1-.45c.37-1.71.76-3.41,1.1-5.12.79-4-.35-7.64-3.09-9.2-3.39-1.92-6.61-1.18-9.66,1-5,3.56-6.62,8.76-7.21,14.5-.35,3.4-.8,6.77-4.78,9.28.68-2.34,1-4,1.64-5.54,1.27-3.33.21-5.88-2.46-7.93-2.47-1.9-6.29-2.21-8.68,0a41.53,41.53,0,0,0-6.45,8.26c-1.64,2.62-2.59,5.65-4,8.4a6.19,6.19,0,0,1-6.1,3.51c.1-.3.09-.57.21-.65,4.71-3.06,6-5.94,4.35-9.76a9.52,9.52,0,0,0-11.16-4.95,21.23,21.23,0,0,0-6.78,3.54c-3.14,2.46-5.9,5.38-8.87,8.05-2.31,2.08-4.88,3.53-8.91,2.64,2.16-1.36,4-2.3,5.55-3.52,5.12-4,5.31-10.62.13-13a14.79,14.79,0,0,0-8.66-1.33c-3.43.71-6.72,2.66-9.77,4.56-3.2,2-6.11,4.43-11.28,3.89,1.5-.64,2.13-1,2.8-1.19,4.94-1.71,7.77-6,6.54-10-1.35-4.33-6-6.57-11.06-5.22-4.66,1.24-9.24,2.8-13.93,3.92-1.83.44-3.85.07-5.79.07v-.89a7.55,7.55,0,0,1,1.41-.13c3.45.27,6.28-.83,7.67-4.11a8.75,8.75,0,0,0-1.54-9.35c-2.46-3-5.87-4.34-9.62-4.67-4.3-.37-8.62-.46-12.93-.67-3.07-.16-5.62-1.22-7-3.69,3.06.17,6.35,1,9.36.37,6-1.18,7.79-5.88,4.75-11.25-2.83-5-7.36-7.31-12.88-8.11a40.1,40.1,0,0,1-6.94-1.3c-1.59-.53-2.92-1.82-4.37-2.77l.45-.83c1.58.5,3.14,1.07,4.73,1.49,3.84,1,6.7-.14,8.53-3.4s1.34-6.5-1.88-8.83A101,101,0,0,0,42,158.19c-3.42-1.79-6.26-3.68-6.58-8.76.82,1.27,1.28,1.88,1.63,2.54a6.59,6.59,0,0,0,6.67,3.66A6.71,6.71,0,0,0,50,150.87c1.42-4.53,1.31-9-1.81-12.85-2.92-3.59-6.12-7-9.23-10.4a8.76,8.76,0,0,1-2.2-8.5,20.31,20.31,0,0,0,1.76,3c1.66,1.93,3.15,4.19,5.23,5.53,3.38,2.19,7,1,9.22-2.38,2.75-4.29,2.6-8.81.52-13.22a44.86,44.86,0,0,0-4.33-6.77c-2-2.77-3.52-5.62-2.88-10,.58,1.39.91,2.1,1.17,2.84,1.79,5,5.85,7.6,10.1,6.33,4.09-1.22,6.54-6.32,5.18-11.17-1.23-4.43-2.86-8.76-4-13.23-.49-2-.09-4.2-.09-6.31l.9,0a17.07,17.07,0,0,1,.11,1.88c-.17,3.18.87,5.79,3.78,7.28,3.08,1.57,6.08,1,8.82-1a13,13,0,0,0,5.6-10.41c.25-4.19.14-8.43.73-12.57.38-2.6,1.77-5.06,2.7-7.58l1.08.31c-.32,1.9-.62,3.81-1,5.71-.66,3.71.57,7.23,3.25,8.83,3.15,1.87,6.2,1.28,9.09-.65,4.63-3.1,6.7-7.67,7.46-13a36.61,36.61,0,0,1,1.28-6.61c.54-1.59,1.8-2.93,2.74-4.39l.88.46c-.46,1.45-1,2.9-1.39,4.36-1.22,4.11-.21,7.1,3,8.94,3.67,2.12,6.49,1.84,9.27-2a119,119,0,0,0,8.19-13.42c2.05-3.74,3.52-5.06,7.49-5.26-.18.29-.25.59-.43.69-4.18,2.37-5.85,5.29-5,8.68S131.82,50,136,50.21a13.89,13.89,0,0,0,10.29-3.89c2.89-2.6,5.71-5.27,8.54-7.94a8.86,8.86,0,0,1,8.55-2.29c-2.12,1.3-4.29,2.28-6,3.78-2.68,2.36-4,5.6-2.69,9s4.49,4.8,8,5.17c5.39.56,9.84-1.67,13.92-4.94,2.62-2.1,5.28-4.17,9.55-3.29-1.16.58-1.93,1-2.71,1.36-4.51,2.17-6.39,6-4.91,9.92,1.36,3.6,6,6,10.15,4.89,5.18-1.37,10.26-3.1,15.47-4.35,1.66-.4,3.57.24,5.37.4l-.05,1.16h-2.95a7.25,7.25,0,0,0-6.75,10.13c2.65,6.4,8.4,7.44,14.33,8a38.39,38.39,0,0,0,6.16,0,14.57,14.57,0,0,1,11,4.09c-1.47-.23-2.94-.53-4.42-.69-3.58-.38-7.24-.72-9.86,2.49-2,2.4-1.95,5.12-.65,7.87a13.82,13.82,0,0,0,8,7.59,52.87,52.87,0,0,0,8.76,2c3.15.51,6.16,1.09,8.19,4.68-2.31-.66-4.17-1.24-6.06-1.73-3.49-.91-6,.23-7.82,3.45s-1.66,6.12,1.35,8.31A129,129,0,0,0,242.33,124c3.17,1.75,5.85,3.53,6.1,8.24a22.63,22.63,0,0,1-1.67-2c-1.74-2.79-4-4.48-7.5-3.75a8.47,8.47,0,0,0-6.4,6.91,12.68,12.68,0,0,0,2.78,10.58c2.86,3.37,5.79,6.69,8.85,9.88,2.38,2.48,3.2,5.25,2.32,9.16a17.5,17.5,0,0,0-1-2.17c-1.17-1.77-2.14-3.79-3.67-5.18-2.18-2-4.87-3.38-8-2.07-3.47,1.47-4.66,4.61-5.16,8-.71,4.88,1.06,9.1,4.08,12.84,2.74,3.39,4.78,7,4.27,11.76-.56-1.29-1.09-2.59-1.67-3.87-1.84-4.09-5.63-6.14-9.34-5.07a7.64,7.64,0,0,0-5.25,9.17c1.18,5.76,2.86,11.42,4.13,17.17.33,1.5-.1,3.16-.17,4.74ZM82.52,163.58l-.09-.09c2.73,6.77,8.9,10.62,13.52,15.77,2.72,3,3.56,2.91,6.6.1s6.07-5.36,9.64-8.51c0,1.7,0,2.52,0,3.35.1,4.93-.94,10.24.54,14.72,3.78,11.53,11.32,20.39,22.61,25.5,3.92,1.77,8.25.06,10.78-3.61l1.81-2.67.6.35-1.1,3.32c2.33-.59,4.51-1.36,5.77-2.89,9.32-11.26,21.09-21.24,20-38.2l.95.13,13,12c4.91-5.9,9.42-11.54,14.18-17,2-2.28,3.26-4.47,1.93-7.43,2.12-.89,3.88-1.71,2.91-4.36a2.09,2.09,0,0,1,.84-1.83c2.85-1.21,3.08-3,1.9-5.42a18.47,18.47,0,0,0,.5-5.06c0-.61-.18-1.41.14-1.79,2.38-2.89,1.86-5-1.89-6.35,1-1.29,2-2.1,2.44-3.14s.35-2.72-.15-3c-3-1.78-2-3.43-.35-5.45,1.33-1.67,1.2-3.2-1.21-3.89a17.71,17.71,0,0,1-1.82-.72c.77-2.33,1.49-4.54,2.37-7.21l-4.89.57.71-5.38-6.84,2.14c.36-3.65,2.37-7.34.44-11.12l-3.19,1.34c-1.54-3.3,1.36-7.6-2.7-10.19l-1.71,2.13-6.28-7.59-1.59,2.7a24.79,24.79,0,0,0-2-4,6.23,6.23,0,0,0-2.67-2.1,56.55,56.55,0,0,0-6.56-1.88,22.32,22.32,0,0,0-3-.31,9.56,9.56,0,0,0,.24,2.65c4.43,11.49,4.9,23.31,3,35.32-.4,2.45-1.27,4.77-4,5.87-3.49-3.36-3.73-7.76-4-12.24-6.2,4-6.2,4-7.7,3.16,1.09-1.22,2.18-2.39,3.21-3.6a21.82,21.82,0,0,0-4-32.18,22.15,22.15,0,0,0-28.53,33.69l4,4a17.09,17.09,0,0,1-5.66-1c-1.61-.6-3.11-1.49-4.94-2.38l-6.65,12.34-1-.34c-3.6-15-3.52-29.79,3.44-44.19-4.17-2.27-5.83,1.88-8.48,3.32l-.91-2.23c-1.56,2.61-2.9,4.85-4.6,7.67l-1.43-4.69-3.26,6.91L96,83.24,93.1,89.79l-2.23-1.2-2.33,7c-2.66-1.55-3.52-.37-3.72,2s-.51,4.72-.78,7.24l-3.92-3.22c-1.94,5,1.36,8.64,2.13,13.06l-6.78-3.79c-1.07,4.79,4.07,6.31,4.77,10.09l-7.84,2.54,5.84,4.26-6.53,4,5.16,3.46L71.73,139l3.84,2.58a21.66,21.66,0,0,0,3.1,16.12c5.53-5.53,12.78-7.48,19.57-10.32a31.17,31.17,0,0,1-20.17,11.38Z"/><path d="M166.09,125.33c-.09,6.25-4.8,9.34-10.57,7.45-3.78-1.24-5.5-3.73-6.41-7.2-.61-2.3-2-2.87-4.4-3.09-5.88-.54-10.14.62-12.72,6.7-1.8,4.25-6.73,4.08-10.6,4.39-1.36.1-3.46-2.13-4.29-3.76-2.22-4.38,2.18-11.54,7.09-12.06,6.62-.71,13.23-1.46,19.85-2.14a15.68,15.68,0,0,1,3.21.11c3.41.35,6.8,1,10.21,1.07C162.78,116.9,166.16,120.06,166.09,125.33Z"/><path d="M128.27,182.87c.66.73,1.15,1.29,1.65,1.83,5.43,5.85,11.29,6.89,18.26,3a25.84,25.84,0,0,1,8.93-3.18c3.46-.52,6.69-2.59,10.46-4.18-.58,1.75-.8,3.51-1.68,4.84-2.88,4.4-5.49,9.15-9.18,12.8-3.43,3.41-8.51,2.58-12.78,1.14-3.87-1.3-7.35-2.55-10.7.85a1.37,1.37,0,0,1-1.17.37c-3.2-1.25-6.78-2-9.46-4-3.36-2.48-4.73-6.56-5-10.78-.26-3.36.84-4.08,4-2.72C123.77,183.8,125.94,185.52,128.27,182.87Z"/><path d="M173.31,163.17c-.93-5.27-1.8-10-2.56-14.76a3.15,3.15,0,0,1,.71-2c4.19-5.65,5.51-12.1,4.9-18.89a13.45,13.45,0,0,0-2.75-6.32,4.86,4.86,0,0,1-.88-5c.79-2.31,1.44-4.66,2.48-8.07,2.92,2.83,5.79,4.93,7.79,7.67,5.79,7.92,6.1,16.68,3,25.75C183.35,149.39,179,156.2,173.31,163.17Z"/><path d="M109.58,159.56a9.45,9.45,0,0,1-1.53-.87c-11.49-9.8-15-27.06-7.73-40.15,1.13-2,3.79-3.27,5.86-4.71.37-.26,1.47.13,2,.54,2.08,1.68,2.91,6.75,1.27,8.9-3.57,4.69-3.65,9.67-1.68,14.92a13.16,13.16,0,0,0,1.48,3.54C113.76,147.47,111.86,153.31,109.58,159.56Z"/><path d="M138,112.11c.67-6,1.3-11.81,2-18l-8.69.71V90.27H138c-1.32-4.24-6.81-8.21-.78-12.74a8.81,8.81,0,0,1,10.52.41c3.2,2.74,3,4.58-1.48,12.55l6.69-.36v4.66l-8.41-.72c.66,6.17,1.27,12,1.91,18Zm4.05-23.44c4.61-4.5,5.58-6.79,3.78-8.61a5.43,5.43,0,0,0-7.1-.15C136.75,81.69,137.48,83.68,142.06,88.67Z"/><path d="M161.17,175.8c0-5.28-.61-10.18.26-14.81.41-2.21,3.64-3.89,5.87-6.09C170.73,164.05,168.68,170.78,161.17,175.8Z"/><path d="M115.42,159.57c5.44.24,6.53,1.32,6.61,6,0,2.37,0,4.75,0,7.12a3.52,3.52,0,0,1-.24.9c-4.69.32-6.21-.94-6.35-5.4C115.35,165.37,115.42,162.58,115.42,159.57Z"/><path d="M122.42,141.67c.06.52.17,1,.18,1.55,0,3.43,0,6.87,0,10.29-3.71.31-8.54-3-8.9-5.93S116.91,142.13,122.42,141.67Z"/><path d="M189.5,129.57c1.92-5.36,10.75-9.86,17.84-9.3C206,124.84,196,130.17,189.5,129.57Z"/><path d="M208.67,128.81c-3.86,5.13-12.94,7.3-18.86,4.49C192.9,129.41,205.18,126.48,208.67,128.81Z"/><path d="M84.43,146.64l-8.16.57-.7-1.08c1.3-1.31,2.41-3.41,3.94-3.79,4.78-1.19,9.73-1.74,14.61-2.54l.43,1.09-6.42,4.75Z"/><path d="M84.43,146.64l3.7-1,7.7-2.07c-.88,5.26-11.3,9.89-20,8.32,2.28-1.62,3.84-2.82,5.5-3.86A22.55,22.55,0,0,1,84.43,146.64Z"/><path d="M209.12,136.43c-5.19,5.17-15.42,4.75-19.75-.6,5.65-.27,11.13-.59,16.61-.72C206.93,135.08,207.89,135.89,209.12,136.43Z"/><path d="M93.86,158.69l8.35-5.4.89.21c-.35,1.3-.27,3.14-1.12,3.81-4.7,3.71-9.62,7.13-14.43,10.63-2.39-3-.13-4.63,1.46-6.42Z"/><path d="M89.68,171.91c.25-1.48-.05-3.63.83-4.32,4.54-3.64,9.38-6.91,14.11-10.31l.87.57c-.13.92.08,2.22-.45,2.69-4.62,4.07-9.37,8-14.08,12Z"/><path d="M175,104c-.7-7.5-1.41-15-2.15-23,3.48,1.32,4.92,3.67,4.81,6.57-.21,5.49-.85,11-1.31,16.44Z"/><path d="M93.86,158.69,89,161.52l-6.58,2,.09.09c.56-1,.88-2.34,1.72-2.92,4.48-3.09,9.07-6,13.66-8.93a4.84,4.84,0,0,1,1.83-.51,8.84,8.84,0,0,1,1.66.14Z"/><path d="M105.57,111.2c-3.58-6.66-3.77-21.28.07-24.88.4,8.51.78,16.68,1.16,24.85Z"/><path d="M185.35,113.42c-.19-7.89,4.45-14.17,6.9-21.19C193.85,100.54,190.75,107.34,185.35,113.42Z"/><path d="M193.58,173.81c-5.65-2.06-13.57-8.54-16.25-13.14C181.42,159.86,192.08,168.3,193.58,173.81Z"/><path d="M188.3,139.48l19.51,3.11C204.29,147.57,192.5,145.64,188.3,139.48Z"/><path d="M75.6,132.51c4.34-3.47,12.29-2.36,18.15,2.29C87.35,136.38,81.55,135.14,75.6,132.51Z"/><path d="M186.31,145.66l19.21,8.93c-2.26,1.94-3.4,1.93-7,.57C192.76,152.94,186.73,148.65,186.31,145.66Z"/><path d="M183.92,151.47c6.43-.66,16.17,5.26,17.71,10.56C194.5,160.57,190,155.15,183.92,151.47Z"/><path d="M86.86,101.22,97,118.64C90.35,117.31,85.23,108.85,86.86,101.22Z"/><path d="M82.35,107.29l14.27,15C90.75,122.68,83.08,114.87,82.35,107.29Z"/><path d="M99.3,115.67c-6.13-2.7-9.86-12.08-7.49-18.8Z"/><path d="M102.11,111.72c-1.9-7.13-4.92-14.11-2.55-21.8l1-.14q1.52,10.86,3,21.74Z"/><path d="M189,177c-5.59-3-10.06-7.29-14.42-12.34C178.63,164,188.26,172.24,189,177Z"/><path d="M181.12,156.19c4.88,3.67,9.78,7.33,14.61,11.06.45.35.87,1.47.67,1.75a2.3,2.3,0,0,1-1.89.82,6.27,6.27,0,0,1-2.42-1.46c-3.44-2.94-6.87-5.9-10.22-8.94a12.2,12.2,0,0,1-1.72-2.56Z"/><path d="M168.82,146.1c-1.84,3.34-3.7,6-7.68,6.55V142.12Z"/><path d="M199.89,165.26c-7-1.1-14.6-6.38-17-11.79C189.14,156.73,195,159.57,199.89,165.26Z"/><path d="M189.05,123.85c4.33-5.53,10-8,15.83-10.7C203.13,118.09,195.05,123.61,189.05,123.85Z"/><path d="M74.92,140.38c2.09-4.51,13.73-5.46,18.65-1.68Z"/><path d="M77.31,124.47A23.57,23.57,0,0,1,95,131.23C90.74,132.06,83.88,129.46,77.31,124.47Z"/><path d="M109.83,165c-2.22,6.39-7,10.13-13.08,12.53C99,171.17,105.16,168.84,109.83,165Z"/><path d="M187.65,120.58c2.12-6.48,8-8.1,12.59-11.39C200.05,113.86,194.71,118.73,187.65,120.58Z"/><path d="M196.18,99.89c2.19,5-3.12,13.89-9.72,16Z"/><path d="M93.59,174.05c2.8-6.05,9-8.43,13.75-12.94C107.05,165.33,100.12,172,93.59,174.05Z"/><path d="M207.54,149c-6.75,2.43-16.25-.4-20.09-5.62Z"/><path d="M179.82,85.3c3.6,7.68.13,14.75-1.09,22l-1.24-.11Q178.65,96.25,179.82,85.3Z"/><path d="M80.52,116l15.15,10.13C91.25,127.92,82.62,122,80.52,116Z"/><path d="M100.28,110.61c-4.39-3.83-7-13.48-5-19.07Z"/><path d="M110.42,139.25c-3.58-4.74-3.17-9.85,1-14.34C113.43,129.89,110.54,134.28,110.42,139.25Z"/><path d="M173.66,134.86c-1.37-3.6-2.61-6.42-3.47-9.35-.28-1,.43-2.25.69-3.38,1,.71,2.31,1.21,2.83,2.16C175.46,127.45,175.17,130.77,173.66,134.86Z"/><path d="M187.54,90.92c2.15,4.24-.5,13.9-4.83,17.38Z"/><path d="M111.25,81.23c-1,5.46-1.87,10.51-2.86,16C105.73,91.56,107,84.47,111.25,81.23Z"/><path d="M180.88,105.55c1-5.45,1.94-10.9,3.08-17.25.84,1.07,1.56,1.59,1.49,2-1,5.18-2.16,10.34-3.27,15.5Z"/><path d="M168,139.21c-1.69-1.18-3.37-2.37-5.33-3.76l4.19-6.12,1.86,9.27Z"/><path d="M141.91,185.84c-1.57-2-1.53-17.13,0-21.46Z"/><path d="M186,179.82l-11.77-11C178.14,169.85,186.23,177.3,186,179.82Z"/><path d="M116.05,131.66l3.8,4.46-4.46,1.35C115.6,135.64,115.77,134.12,116.05,131.66Z"/><path class="cls-1" d="M231.61,85.92c2.79-3.16,2-5.29-2-6.1-3.35-.68-7.33.85-8.51,3.42-1.5,3.25.24,5.65,2.42,7.75a23.23,23.23,0,0,0,12.61,6,28.78,28.78,0,0,1,7.43,2c4.28,2,5.78,6.66,3.58,10.43-.62,1.06-1.92,1.73-3.17,2.8,0-2.62.61-4.8-.18-6.2s-2.88-2.07-4.53-2.4c-2.71-.54-5.21.24-6.47,3s-.71,5.55,1.77,7.23a144.23,144.23,0,0,0,13,7.72c3.24,1.72,5.68,3.94,6.92,7.43,1.42,4-.08,6.16-4.73,6.29.63-2.71,1-5.73-2.26-6.69a9.34,9.34,0,0,0-6.32.47c-2.69,1.34-3.25,4.48-2.59,7.11a21.82,21.82,0,0,0,3.71,7.74c2.45,3.2,5.53,5.91,8.28,8.89a11.51,11.51,0,0,1,3,10.92c-.64,2.65-2.34,4.87-5.24,5-1.25.07-2.58-1.36-3.47-1.87,1.41-1.79,3.06-2.94,3.15-4.2.23-2.95-2.68-5.68-6.16-6.72a4.5,4.5,0,0,0-5.36,1.78,9.59,9.59,0,0,0-1,10.22c2.36,5,5.1,9.75,7.47,14.71,2,4.15.48,8.47-3.31,10.34-2.29,1.13-3.28.82-5.09-1.83,2.88-.3,4.72-1.52,4.19-4.7a7.28,7.28,0,0,0-6.1-5.93,5.25,5.25,0,0,0-6,4.36,14.66,14.66,0,0,0,.28,6.58c1.06,4,2.64,7.87,3.88,11.83a8.9,8.9,0,0,1-1.55,8.88c-2,2.36-4.08,4-7.45,1.67.61-.69,1.19-1.47,1.88-2.11,2.2-2,2.27-4.36.68-6.66s-3.85-3.37-6.75-2.32c-4.36,1.58-7,6-7.31,11.89-.21,4.83-.3,9.68-.77,14.48a8.26,8.26,0,0,1-9.07,7.6c-3.5-.44-4.64-2.2-3.66-6.11l2.6,2c3.15-1.34,3.94-3.81,3.56-6.88-.33-2.71-1.24-5.07-4.13-6s-5.22.57-7.11,2.68A23.11,23.11,0,0,0,186,235.09a24,24,0,0,1-3.07,8.75,6.81,6.81,0,0,1-9.49,2.19c-1.07-.65-1.75-1.94-2.74-3.11,2.5,0,4.73.64,6-.18s2.19-3,2.57-4.77c.56-2.58-.23-5.08-2.91-6.19-2.84-1.18-5.77-.84-7.6,1.8-2.55,3.69-4.7,7.64-7,11.5-1.16,1.92-2.16,3.95-3.45,5.78-2,2.83-5,3.38-8.15,2.62-2.18-.52-3.52-1.91-2.9-4.66a17.39,17.39,0,0,1,1.94.13c3.15.53,5-.92,5.68-3.88.73-3.16-.66-5.86-3.44-6.87-4.62-1.69-8.72-.32-12.3,2.55-2.44,2-4.33,4.62-6.81,6.53a37.25,37.25,0,0,1-8.76,5.34c-2.83,1.13-5.8.14-8-2.17-2.66-2.74-2.19-5,1.58-6.85l.9,3.05c4.11.75,9.75-4,9-7.91a6.55,6.55,0,0,0-3.24-3.87c-4.48-2.3-8.94-1.58-13.14,1-3.15,2-6.19,4.14-9.47,5.86-4.32,2.26-9,1-11.28-2.77-1.28-2.11-1.22-4,1.35-5.53,1,3.66,3.26,4.77,6.63,3.63a6.45,6.45,0,0,0,4.31-6.87,6,6,0,0,0-6.06-4.87A65.12,65.12,0,0,0,86,227.62c-3,.78-6,1.95-9.06,2.5a10.85,10.85,0,0,1-5.27-.62c-4-1.42-4.9-4.45-2.82-8.11,1.55,1.08,3.07,3,4.66,3A7.19,7.19,0,0,0,79,222a7.22,7.22,0,0,0,.56-5.89c-1.54-4-5.09-6-9.26-6.33-4.71-.41-9.46-.44-14.19-.71-4.26-.25-8-1.42-9.7-5.93-1.76-4.74.8-8,5.37-7.35-.4,1.31-1.53,3.44-1.1,3.83a9.68,9.68,0,0,0,5.12,2.56c2.89.29,5.73-.74,7-3.69S62.61,193,60.34,191a25.71,25.71,0,0,0-13.91-6.31,19.91,19.91,0,0,1-7.5-2.68,6.87,6.87,0,0,1-2.16-9.75c.65-1,2-1.44,3.45-1.85-1.52,3-1.69,5.35,1.46,7.07s6.84,1.22,8.66-1.06,1.79-6.17-.66-8a93.19,93.19,0,0,0-12.33-7.5c-3.87-2-7.07-4.41-8.29-8.76-.95-3.4.26-5.14,4.16-5.87a8.14,8.14,0,0,1,.5,2.13c-.15,3.49,2,4.81,4.94,5.21a5.69,5.69,0,0,0,6-4.37,11.3,11.3,0,0,0-2.31-10.47c-2.7-3.3-5.8-6.27-8.73-9.39-2.57-2.72-4.61-5.88-3.71-9.66a10.88,10.88,0,0,1,3.84-5.8c2.21-1.62,4.46-.69,5.36,1.76-1.24.85-3.11,1.52-3.17,2.32a6.52,6.52,0,0,0,1.49,4.37c1.93,2.17,4.27,4.54,7.53,3.43s4.12-4.61,4-7.53a24.14,24.14,0,0,0-2.48-8.88c-1.42-3-3.77-5.6-5.36-8.56-2.35-4.38-1.41-9,2.06-11.53,2.25-1.65,4.31-1.89,6,1.14-3,.72-5.3,1.88-4.05,5.59,1.17,3.47,4.3,5.84,7.26,5.3a5.59,5.59,0,0,0,4.69-6.72c-1-5-2.48-10-4-14.93-1.28-4.19-1.27-7.93,2.21-11.14,1.95-1.8,3.91-2.56,6.48-.54-.59.63-1.1,1.3-1.72,1.84-2.36,2.07-2.49,4.44-.81,6.91a5.36,5.36,0,0,0,7.1,2.09c4.34-1.91,6.39-5.55,6.71-10.13s.4-9.45.71-14.16c.27-4.19,1.68-7.67,6.13-9.14,4.76-1.55,7.6.64,7.18,6l-2.9-2.32c-2.88,1-3.87,3.21-3.66,6s1,5.65,4,6.85c2.84,1.13,5.07-.4,7-2.26,4-4,5.75-9,6.62-14.44a20.33,20.33,0,0,1,2.15-6.66,7.14,7.14,0,0,1,9.57-3.09c1.3.7,2.13,2.26,2.86,3.7-4.7-1.06-6.44-.57-7.81,2.44s-.52,6.6,2,8.13a6.37,6.37,0,0,0,8.63-2.12c2.57-3.94,4.44-8.35,7.1-12.21a22.44,22.44,0,0,1,6.72-6.69c3.95-2.29,6.36-.63,7.07,3.58-2.06.56-4.55.56-5.89,1.8a6,6,0,0,0-1.37,5.36c.75,1.9,2.75,4.09,4.63,4.6,4.88,1.31,8.95-1.17,12.5-4.37,3.17-2.86,6.07-6.06,9.41-8.7,4.27-3.37,9.81-2.91,12.85.61,2.34,2.69,1.75,4.92-1.79,6.44-.36-1-.71-2.08-1.06-3.09-4.22-.63-9.56,4.15-8.79,8.2a6.46,6.46,0,0,0,3.27,3.81c4.51,2.22,9,1.39,13.15-1.2,3.06-1.89,6-4,9.16-5.7,4.28-2.25,8.6-1.2,11.14,2.28,1.58,2.16,1.8,4.07-.61,5.58-1.12-1.3-2-2.85-3.34-3.67-.84-.51-2.44-.13-3.55.27-3.15,1.13-5.15,4.42-4.52,7.07.8,3.37,3.92,5.4,7.89,4.5,4.81-1.1,9.51-2.69,14.25-4.06,3.66-1.06,7-.91,10.11,1.79,2.56,2.25,2.79,4.56,1,7.36a9,9,0,0,1-.81-.73c-3-3.68-5.19-4.21-8.18-1.94-2.78,2.11-3,5.66-.6,9,2.63,3.66,6.53,4.63,10.68,4.82,3.94.17,7.89,0,11.84.13,5,.19,8.77,3,9.94,7.19C239,84.25,236.39,87,231.61,85.92Zm-3.69,125.2.74.13c.08-1.65.52-3.38.18-4.94-1.32-6-3.07-11.91-4.3-17.92a8,8,0,0,1,5.47-9.58c3.87-1.11,7.83,1,9.75,5.3.6,1.33,1.16,2.69,1.74,4,.53-4.93-1.6-8.73-4.46-12.27-3.15-3.9-5-8.3-4.25-13.4.51-3.54,1.75-6.81,5.38-8.35,3.24-1.37,6.05.11,8.33,2.16,1.6,1.44,2.61,3.55,3.83,5.4a18.69,18.69,0,0,1,1,2.27c.92-4.09.07-7-2.42-9.57-3.19-3.32-6.25-6.78-9.23-10.3a13.22,13.22,0,0,1-2.9-11.05,8.81,8.81,0,0,1,6.68-7.2c3.66-.77,6,1,7.82,3.91a25.37,25.37,0,0,0,1.74,2.1c-.26-4.92-3.06-6.77-6.36-8.61a134.39,134.39,0,0,1-14.15-9c-3.13-2.28-3.31-5.28-1.41-8.67s4.52-4.55,8.17-3.6c2,.51,3.91,1.12,6.32,1.81-2.12-3.75-5.26-4.36-8.54-4.89a55.31,55.31,0,0,1-9.15-2A14.43,14.43,0,0,1,219.63,89c-1.36-2.87-1.37-5.71.68-8.22,2.73-3.34,6.54-3,10.28-2.59,1.55.16,3.08.47,4.62.72a15.21,15.21,0,0,0-11.53-4.27,41.7,41.7,0,0,1-6.42,0c-6.19-.57-12.19-1.65-15-8.33a7.57,7.57,0,0,1,7-10.57c1,0,2.05,0,3.08,0l0-1.22c-1.88-.17-3.88-.83-5.61-.42-5.43,1.31-10.74,3.12-16.15,4.54-4.3,1.13-9.16-1.34-10.58-5.1-1.55-4.11.42-8.08,5.12-10.35.81-.39,1.62-.81,2.83-1.42-4.45-.92-7.24,1.24-10,3.44-4.25,3.41-8.9,5.73-14.52,5.15-3.65-.38-7-1.8-8.34-5.4s0-7,2.82-9.42c1.78-1.57,4-2.59,6.26-3.95a9.27,9.27,0,0,0-8.93,2.4c-2.94,2.78-5.9,5.57-8.9,8.29a14.53,14.53,0,0,1-10.74,4c-4.39-.2-8.16-2.8-9.07-6.31s.82-6.58,5.18-9.06c.19-.11.27-.42.45-.72-4.14.21-5.68,1.59-7.81,5.49a124.63,124.63,0,0,1-8.55,14c-2.9,4-5.85,4.26-9.68,2-3.33-1.92-4.39-5.05-3.12-9.33.45-1.52,1-3,1.46-4.55l-.93-.48c-1,1.52-2.29,2.93-2.86,4.58a37.91,37.91,0,0,0-1.33,6.9c-.8,5.57-3,10.33-7.78,13.56-3,2-6.21,2.63-9.49.68-2.8-1.67-4.09-5.34-3.4-9.21.36-2,.67-4,1-6l-1.13-.32c-1,2.63-2.42,5.19-2.81,7.9-.63,4.32-.51,8.75-.77,13.12a13.61,13.61,0,0,1-5.84,10.87c-2.86,2-6,2.65-9.21,1-3-1.56-4.12-4.28-3.94-7.59a16.4,16.4,0,0,0-.12-2l-.93,0c0,2.2-.42,4.51.08,6.59,1.14,4.66,2.84,9.18,4.14,13.8,1.41,5.07-1.14,10.39-5.41,11.66-4.45,1.33-8.68-1.34-10.55-6.61-.27-.77-.62-1.51-1.21-3-.67,4.54.93,7.52,3,10.4a46.75,46.75,0,0,1,4.52,7.07c2.17,4.61,2.32,9.32-.54,13.8-2.28,3.55-6.1,4.76-9.63,2.48-2.16-1.4-3.72-3.76-5.46-5.77a21.66,21.66,0,0,1-1.83-3.18,9.16,9.16,0,0,0,2.29,8.88c3.25,3.58,6.59,7.1,9.63,10.85,3.26,4,3.38,8.68,1.89,13.41a7,7,0,0,1-6.58,5,6.88,6.88,0,0,1-7-3.82c-.36-.7-.84-1.33-1.7-2.66.33,5.3,3.3,7.28,6.86,9.15A106.83,106.83,0,0,1,50.74,167c3.35,2.44,3.8,5.95,2,9.23s-4.9,4.61-8.9,3.54c-1.67-.44-3.3-1-4.94-1.56l-.47.87c1.51,1,2.9,2.34,4.55,2.89a42,42,0,0,0,7.25,1.36c5.76.83,10.49,3.25,13.44,8.46,3.17,5.6,1.32,10.51-5,11.74-3.14.62-6.57-.21-9.76-.38,1.43,2.58,4.08,3.68,7.29,3.84,4.5.23,9,.32,13.5.71,3.9.34,7.46,1.7,10,4.86a9.14,9.14,0,0,1,1.61,9.76c-1.45,3.43-4.4,4.58-8,4.29a8.13,8.13,0,0,0-1.47.14v.93c2,0,4.13.38,6-.07,4.89-1.17,9.67-2.8,14.54-4.09,5.32-1.42,10.13.93,11.53,5.44,1.29,4.15-1.66,8.67-6.81,10.45-.7.25-1.37.58-2.93,1.25,5.4.56,8.43-2,11.78-4.06,3.18-2,6.61-4,10.19-4.76a15.51,15.51,0,0,1,9,1.39c5.4,2.52,5.21,9.44-.14,13.59-1.65,1.29-3.53,2.27-5.79,3.68,4.2.94,6.88-.58,9.3-2.75,3.1-2.79,6-5.84,9.25-8.4a22.36,22.36,0,0,1,7.07-3.7c4.66-1.41,9.93,1.14,11.65,5.17s.38,7-4.53,10.19c-.13.08-.12.35-.22.68a6.45,6.45,0,0,0,6.36-3.67c1.51-2.87,2.51-6,4.22-8.77a43.17,43.17,0,0,1,6.73-8.62c2.5-2.35,6.48-2,9.06,0,2.79,2.14,3.89,4.8,2.56,8.28-.62,1.62-1,3.34-1.71,5.78,4.15-2.62,4.63-6.13,5-9.68.61-6,2.31-11.42,7.53-15.14,3.18-2.26,6.54-3,10.08-1,2.85,1.62,4.05,5.47,3.22,9.6-.36,1.78-.76,3.56-1.14,5.34l1.08.47c1-1.87,2.54-3.66,2.81-5.62.61-4.32.23-8.79.9-13.09.55-3.56,1.37-7.39,3.24-10.37,3.61-5.74,10.81-6.07,14.32-.91C227.35,206.1,227.35,208.8,227.92,211.12Z"/><path class="cls-1" d="M141.23,89.92c-4.58-5-5.31-7-3.32-8.76a5.44,5.44,0,0,1,7.1.15C146.81,83.13,145.84,85.42,141.23,89.92Z"/><path class="cls-1" d="M81.69,164.83,77.25,160a31.17,31.17,0,0,0,20.16-11.38c-6.79,2.84-14,4.79-19.57,10.32a21.65,21.65,0,0,1-3.1-16.12l-3.84-2.58L76,136.44,70.88,133l6.53-4-5.84-4.27,7.85-2.54c-.71-3.78-5.85-5.3-4.78-10.08l6.78,3.78c-.77-4.42-4.07-8-2.13-13.06l3.92,3.22c.27-2.52.58-4.88.78-7.24s1.06-3.54,3.72-2l2.33-7L92.27,91l2.89-6.55,1.35,5.41c1.17-2.46,2-4.31,3.26-6.91l1.43,4.69c1.7-2.82,3-5.06,4.6-7.66l.91,2.23c2.65-1.45,4.31-5.6,8.48-3.33-7,14.4-7,29.18-3.44,44.19l1,.35,6.65-12.35c1.83.89,3.33,1.78,5,2.38a17,17,0,0,0,5.65,1l-4-4a22.15,22.15,0,0,1,28.54-33.69,21.83,21.83,0,0,1,4,32.18c-1,1.21-2.12,2.38-3.21,3.61,1.5.85,1.5.85,7.7-3.17.27,4.49.51,8.88,4,12.24,2.71-1.1,3.58-3.42,4-5.87,1.94-12,1.47-23.83-3-35.32a9.52,9.52,0,0,1-.24-2.64,20.61,20.61,0,0,1,3,.3,58.6,58.6,0,0,1,6.56,1.88,6.3,6.3,0,0,1,2.67,2.1,25.61,25.61,0,0,1,2,4c.59-1,1-1.75,1.58-2.69l6.28,7.58,1.71-2.12c4.06,2.58,1.16,6.88,2.7,10.18l3.19-1.33c1.93,3.78-.08,7.46-.44,11.11l6.84-2.14-.71,5.38,4.89-.57c-.88,2.68-1.6,4.88-2.37,7.21a17.71,17.71,0,0,0,1.82.72c2.41.69,2.54,2.22,1.21,3.89-1.61,2-2.62,3.68.35,5.45.51.3.48,2.11.15,3s-1.39,1.85-2.44,3.14c3.75,1.3,4.27,3.46,1.89,6.35-.32.38-.14,1.19-.14,1.79a18.09,18.09,0,0,1-.5,5.06c1.18,2.42.95,4.21-1.89,5.42a2,2,0,0,0-.84,1.83c1,2.65-.8,3.47-2.92,4.36,1.33,3,.07,5.16-1.93,7.43-4.76,5.42-9.27,11.06-14.18,17l-13-12-.95-.13c1.1,17-10.67,26.94-20,38.2-1.26,1.53-3.44,2.3-5.77,2.89l1.1-3.32-.6-.34c-.61.88-1.21,1.77-1.81,2.66-2.53,3.67-6.86,5.38-10.78,3.61-11.29-5.11-18.83-14-22.61-25.49-1.48-4.49-.44-9.8-.54-14.73,0-.83,0-1.65,0-3.35-3.57,3.15-6.66,5.77-9.64,8.51s-3.88,2.92-6.59-.1c-4.63-5.15-10.8-9-13.53-15.77l6.58-2c-1.58,1.79-3.85,3.39-1.46,6.42,4.81-3.5,9.73-6.92,14.43-10.63.85-.67.77-2.51,1.12-3.81l-.89-.21L93,159.94l7.53-7.33a8.84,8.84,0,0,0-1.66-.14,4.84,4.84,0,0,0-1.83.51c-4.59,2.93-9.18,5.84-13.66,8.93C82.57,162.49,82.25,163.84,81.69,164.83Zm1.91-16.94a23.8,23.8,0,0,0-3.13,1.39c-1.66,1-3.22,2.25-5.5,3.86,8.73,1.57,19.15-3.06,20-8.32l-7.7,2.07,6.42-4.75-.43-1.09c-4.88.8-9.83,1.35-14.61,2.54-1.53.38-2.63,2.48-3.93,3.79l.69,1.08Zm81.66-21.31c.07-5.27-3.31-8.43-8.63-8.53-3.41-.07-6.8-.72-10.21-1.07a15.68,15.68,0,0,0-3.21-.11c-6.62.68-13.23,1.44-19.85,2.14-4.9.52-9.31,7.68-7.09,12.06.83,1.64,2.93,3.87,4.29,3.76,3.87-.31,8.8-.14,10.6-4.39,2.58-6.07,6.84-7.24,12.72-6.7,2.41.22,3.79.79,4.4,3.09.92,3.47,2.63,6,6.41,7.2C160.46,135.92,165.17,132.84,165.26,126.58Zm-37.82,57.54c-2.33,2.66-4.5.93-6.73,0-3.15-1.36-4.25-.65-4,2.72.32,4.21,1.69,8.29,5,10.77,2.68,2,6.26,2.76,9.46,4a1.39,1.39,0,0,0,1.17-.36c3.35-3.41,6.83-2.16,10.7-.85,4.27,1.43,9.35,2.26,12.78-1.14,3.69-3.65,6.3-8.41,9.19-12.81.87-1.33,1.09-3.08,1.67-4.83-3.77,1.58-7,3.65-10.46,4.18a25.62,25.62,0,0,0-8.93,3.17c-7,3.9-12.83,2.86-18.26-3C128.59,185.41,128.1,184.86,127.44,184.12Zm45-19.69c5.64-7,10-13.79,12.71-21.62,3.08-9.07,2.77-17.82-3-25.75-2-2.73-4.87-4.84-7.79-7.67-1,3.41-1.69,5.77-2.48,8.07a4.88,4.88,0,0,0,.88,5,13.5,13.5,0,0,1,2.75,6.32c.61,6.79-.7,13.25-4.9,18.89a3.1,3.1,0,0,0-.7,2C170.68,154.42,171.55,159.15,172.48,164.43Zm-63.73-3.62c2.28-6.25,4.18-12.09-.36-17.83a13,13,0,0,1-1.48-3.54c-2-5.25-1.89-10.23,1.68-14.92,1.64-2.15.81-7.21-1.27-8.9-.5-.41-1.6-.79-2-.54-2.07,1.44-4.73,2.68-5.86,4.72-7.22,13.08-3.76,30.35,7.73,40.14A9.91,9.91,0,0,0,108.75,160.81Zm28.43-47.45h8.43c-.64-6-1.25-11.87-1.91-18l8.41.71V91.39l-6.69.35c4.48-8,4.68-9.81,1.48-12.55a8.81,8.81,0,0,0-10.52-.41c-6,4.53-.54,8.5.78,12.74h-6.69v4.55l8.69-.72C138.48,101.55,137.85,107.31,137.18,113.36Zm23.16,63.7c7.51-5,9.56-11.76,6.13-20.91-2.23,2.2-5.46,3.88-5.87,6.09C159.73,166.87,160.34,171.77,160.34,177.06Zm-45.75-16.24c0,3-.07,5.8,0,8.58.14,4.46,1.66,5.72,6.35,5.4a3.52,3.52,0,0,0,.24-.9c0-2.37,0-4.74,0-7.12C121.12,162.14,120,161.07,114.59,160.82Zm7-17.89c-5.51.45-9.09,2.9-8.72,5.91s5.19,6.23,8.9,5.92c0-3.42,0-6.85,0-10.29C121.76,144,121.65,143.44,121.59,142.93Zm67.08-12.11c6.45.6,16.51-4.72,17.84-9.3C199.42,121,190.59,125.46,188.67,130.82Zm19.17-.76c-3.48-2.32-15.77.6-18.86,4.49C194.9,137.36,204,135.2,207.84,130.06Zm.45,7.62c-1.23-.54-2.19-1.34-3.14-1.32-5.48.13-11,.46-16.61.73C192.87,142.43,203.1,142.85,208.29,137.68ZM88.85,173.16l1.28.58c4.71-4,9.46-7.88,14.08-12,.53-.46.32-1.77.45-2.69l-.87-.56c-4.73,3.39-9.57,6.66-14.11,10.3C88.8,169.54,89.1,171.68,88.85,173.16Zm85.35-67.91,1.35,0c.46-5.47,1.1-11,1.31-16.44.11-2.9-1.33-5.25-4.81-6.56C172.79,90.23,173.5,97.74,174.2,105.25Zm-69.45,7.2,1.22,0c-.38-8.17-.76-16.33-1.16-24.85C101,91.18,101.16,105.79,104.75,112.45Zm79.77,2.22c5.4-6.08,8.51-12.87,6.9-21.19C189,100.5,184.33,106.78,184.52,114.67Zm8.23,60.39c-1.5-5.5-12.16-13.95-16.25-13.14C179.18,166.52,187.1,173,192.75,175.06Zm-5.28-34.33c4.2,6.16,16,8.09,19.51,3.11Zm-112.7-7c6,2.63,11.75,3.86,18.15,2.28C87.06,131.4,79.11,130.29,74.77,133.77Zm110.71,13.14c.42,3,6.45,7.28,12.26,9.5,3.55,1.36,4.69,1.37,7-.57Zm-2.39,5.81c6.08,3.69,10.58,9.1,17.71,10.56C199.26,158,189.52,152.06,183.09,152.72ZM86,102.47c-1.63,7.63,3.49,16.09,10.14,17.42Zm-4.51,6.07c.74,7.59,8.4,15.39,14.27,15Zm17,8.38L91,98.12C88.61,104.84,92.34,114.23,98.47,116.92Zm2.81-4,1.52-.2q-1.51-10.87-3-21.74l-1,.14C96.36,98.86,99.38,105.84,101.28,113Zm86.88,65.3c-.73-4.78-10.36-13-14.42-12.34C178.1,171,182.57,175.26,188.16,178.27Zm-7.87-20.83-1,.68a12.8,12.8,0,0,0,1.72,2.55c3.35,3,6.78,6,10.22,8.94a6.27,6.27,0,0,0,2.42,1.46,2.27,2.27,0,0,0,1.89-.82c.21-.27-.22-1.4-.66-1.75C190.07,164.77,185.17,161.12,180.29,157.44ZM168,147.35l-7.69-4V153.9C164.3,153.35,166.16,150.69,168,147.35Zm31.06,19.16c-4.88-5.69-10.75-8.53-17-11.79C184.46,160.13,192.06,165.41,199.06,166.51ZM188.22,125.1c6-.24,14.08-5.76,15.83-10.69C198.21,117.14,192.56,119.57,188.22,125.1ZM74.09,141.64,92.74,140C87.82,136.17,76.18,137.12,74.09,141.64Zm2.4-15.91c6.56,5,13.42,7.58,17.66,6.75A23.51,23.51,0,0,0,76.49,125.73ZM109,166.22c-4.67,3.87-10.86,6.2-13.08,12.53C102,176.36,106.78,172.61,109,166.22Zm77.82-44.39c7.06-1.84,12.4-6.72,12.59-11.38C194.82,113.73,188.94,115.35,186.82,121.83Zm8.53-20.68-9.72,16C192.23,115,197.54,106.18,195.35,101.15ZM92.76,175.3c6.53-2.08,13.46-8.72,13.75-12.94C101.8,166.87,95.56,169.26,92.76,175.3Zm114-25.1-20.09-5.62C190.46,149.8,200,152.63,206.71,150.2ZM179,86.55q-1.17,11-2.33,21.91l1.24.11C179.12,101.31,182.59,94.23,179,86.55Zm-99.3,30.66c2.1,6,10.73,12,15.15,10.13Zm19.76-5.35c-1.73-6.53-3.31-12.52-5-19.07C92.5,98.38,95.06,108,99.45,111.86Zm10.14,28.64c.12-5,3-9.36,1-14.34C106.42,130.65,106,135.76,109.59,140.5Zm63.24-4.39c1.51-4.09,1.8-7.41,0-10.57-.52-1-1.86-1.45-2.83-2.16-.25,1.13-1,2.4-.69,3.38C170.22,129.69,171.46,132.51,172.83,136.11Zm13.88-43.94-4.83,17.38C186.21,106.07,188.86,96.41,186.71,92.17Zm-76.29-9.69c-4.28,3.24-5.52,10.33-2.86,16.06C108.55,93,109.45,87.94,110.42,82.48Zm69.63,24.32,1.3.21c1.11-5.16,2.24-10.32,3.27-15.5.07-.36-.65-.88-1.49-2C182,95.9,181,101.35,180.05,106.8Zm-12.9,33.67.72-.62L166,130.58l-4.19,6.12Zm-26.07,46.62V165.63C139.55,170,139.51,185.1,141.08,187.09Zm44.08-6c.24-2.52-7.85-10-11.77-11Zm-69.94-48.16c-.28,2.46-.45,4-.66,5.82l4.46-1.35C117.83,136,116.81,134.78,115.22,132.91Z"/></g></g></svg>