<svg xmlns="http://www.w3.org/2000/svg" viewBox="0 0 282.99 282.99"><defs><style>.cls-1{fill:#fff;}</style></defs><g id="Layer_2" data-name="Layer 2"><g id="Layer_1-2" data-name="Layer 1"><circle class="cls-1" cx="141.5" cy="141.5" r="141.5"/><path d="M142.55,277.41C66.3,277.4,5.27,217.22,5.29,142.07,5.31,65.68,65.88,5.54,142.74,5.59c74.18,0,135,61.19,135,135.65C277.65,216.37,217.07,277.41,142.55,277.41ZM254.45,177c4.95-7.39-.36-13.43-1.93-20.4-4.77,3.47-5.34,4.84-3.89,9.06,1.11,3.23,2.34,6.43,3.72,9.56.33.74,1.45,1.14,2.21,1.7l-7.62,5.35-.71-.46a59.92,59.92,0,0,1,2.1-6.62c1.27-2.89.64-5.12-1.8-7.37-5.13,5.33-7.64,11.25-6,18.54.95,4.17,2.17,4.85,6.09,3.14,17.41-7.6,35.47-28.81,28.43-55.07-1.65-6.15-4.08-11.91-8.65-16.71-2.59,3.33-2.16,6.36-.76,9.87,2,5,4.07,10.24,4.76,15.55C272.32,157.6,265.6,168.43,254.45,177Zm-153.3,70,.6-1a46.48,46.48,0,0,1,5.87,1.83c3.47,1.58,5.39,1.39,8.47-1.46-5.27-5.84-12-6.9-19.21-5.57-3.83.71-4.47,2.21-2.85,5.72,8.94,19.32,30.86,32.34,51.84,28.21,7.93-1.56,15-5.09,21.68-10a8.67,8.67,0,0,0-10-.84,63.92,63.92,0,0,1-9.82,4c-15.24,4.68-30.59-.47-39.29-12.9,1.66.44,3.62,1.61,5.22,1.24a91,91,0,0,0,11.9-4c.48-.19,1-1.93.69-2.21-1.84-1.85-3.86-3.5-6.82-2.29-4.31,1.77-8.64,3.48-13.16,5.29Zm70.42-1.73c-5.57-2.58-14.07-.75-19.53,4.15-3,2.66-3,4.48.32,6.68,18.47,12.39,46.55,14.22,64.62-6.75,3.49-4,6.53-8.39,7.76-13.82-4.38-.28-6.2,1.11-8.67,4.25-3.57,4.54-7.2,9.23-11.63,12.87-10.58,8.69-27.05,8.25-36.77,3.22,5.22,1.52,7.91-1.79,10.59-5.16,1.34-1.69,2.8-3.29,4.15-5a18.94,18.94,0,0,0,1.37-2.4c-3.2-.11-6-1.85-8.34.91-3.16,3.77-6.25,7.61-9.57,11.66l-7.11-3.28a10.15,10.15,0,0,1,5.49-2.14C168.13,250.55,170.19,248.53,171.57,245.31ZM109.17,38c7.43,2,13.77.35,19.36-4.48,3.16-2.73,3.14-4.55-.36-6.86a51.23,51.23,0,0,0-35.72-8.53c-17.29,2.23-28.69,12.37-36,27.67a12.45,12.45,0,0,0-.55,2.12c3.85,0,6.53-1.34,8.53-4.25a91.44,91.44,0,0,1,5.61-7.5c11.37-13.45,28.09-15.34,42.63-9.22-4.19-1.08-6.75,1.18-9.06,4-2.18,2.69-4.41,5.34-6.79,8.21,5.3,1.85,7.12,1.46,9.86-1.89S112,30.54,114.79,27l7.58,2.76,0,1c-2.08.6-4.15,1.68-6.24,1.71C112.37,32.57,110.53,34.57,109.17,38ZM37.52,170.65c2.09-6.71.57-12.64-3.65-18.05-3.46-4.44-5.27-4.55-8.23.14-8.72,13.83-11.43,28.68-5.9,44.3,4.61,13,14.06,21.56,27,26.71,1-4.91-1.83-7.42-5.27-9.62-14.17-9.08-20.88-21.62-17.92-38.58a43.27,43.27,0,0,1,6.89-17.71c.68,2.49,1.4,4.15,1.53,5.84C32.24,167.66,33.34,169.23,37.52,170.65Zm208.42-58c-2,7.6-.58,14.2,4.74,19.86,2.41,2.57,3.86,2.55,6-.36,13.43-18.4,15.23-47.17-6.25-65.26-3.75-3.15-7.83-5.86-12.88-7.09-.6,4.32,1.63,6.65,4.44,9,4.29,3.57,8.92,7,12.23,11.42,7,9.24,7.92,20,5.55,31.05A33.36,33.36,0,0,1,252.82,126c-.59-2.52-1.39-4.36-1.36-6.19C251.51,116.07,249.65,114,245.94,112.63Zm-80.62-76.3c5.68,6,12.54,7.22,20.06,5.71,3.45-.69,4-2.18,2.29-5.75-8-17.24-29.8-34.25-55.4-27.41-6.5,1.74-12.57,4.34-17.62,9.1,3.33,2.13,4.88,2.41,8,1.21,2.31-.88,4.52-2,6.81-3,21-8.73,40,1.31,51.23,20.81-2.25-.58-4.35-.64-5.88-1.6C171.41,33.27,168.51,34,165.32,36.33ZM100.68,260.42c-2.09-4.91-6.35-5.19-10.57-5.66-16.62-1.85-28.62-9.21-33.74-26.07-1.68-5.51-2.35-11.33-3.47-17l1.44-.63c1.49,1.72,3.1,3.34,4.43,5.17,1.95,2.7,4,3.44,7.63,2.23-2-7.28-6.52-12.21-13.76-14.53-3.19-1-5,0-5,3,0,5-.28,10.21.68,15.1,3.78,19.17,14.16,32.76,34,37.58C88.31,261,94.35,262.22,100.68,260.42Zm-65-160,.77.56a37.8,37.8,0,0,1-1.84,5.93c-1.52,3.12-1,5.72,1.09,8.27,6-4.28,8.55-14.51,5.41-20.7-1-2-2.35-2.44-4.16-1.34a113.34,113.34,0,0,0-10.63,6.78C11.94,111.08,4.43,125.41,7.29,144a44.63,44.63,0,0,0,10.17,22c2.1-3.14,2.76-6,.85-9.23a36.83,36.83,0,0,1-2.19-4.67c-2.8-6.74-4.48-13.66-3.36-21,1.74-11.39,8.65-19.45,17.19-26.44C31.79,103.12,33.79,101.78,35.71,100.37Zm-14.45,1.09c3.42-1.3,5.42-3.15,5.49-6.68,0-1.93.35-3.85.56-5.77,1.82-16.48,11.27-27,26.3-32.95a31.74,31.74,0,0,1,17.21-1.8c-2,1.81-3.28,3.4-4.93,4.46-3,1.9-3.81,4.4-3.13,7.67,6.67-.61,13.18-6.87,14.81-14.11.69-3-.19-4.54-3.2-4.44-5.39.19-10.91.1-16.12,1.27C41.38,52.88,28.76,61.92,23.15,79A51,51,0,0,0,21.26,101.46Zm161.19-79c2.09,5.17,6.49,5.48,10.83,5.73,16.91,1,31.85,13.2,35.52,29.51,1,4.29,1.08,8.77,1.59,13.16l-1.3.47a52.21,52.21,0,0,1-4.16-4.67c-1.94-2.78-4.44-3.44-7.56-2.75.92,6.62,7.61,13.67,13.88,14.77,3.45.61,4.83-.36,4.78-3.71a86.08,86.08,0,0,0-.62-12.56C231.87,40.78,220.12,28,201.16,23.24,195.08,21.71,188.88,21,182.45,22.44ZM219.74,216c-.73.19-1.46.31-2.14.56A19.9,19.9,0,0,0,205.21,229c-1.23,3.47-.35,5.7,2.31,5.69,5.28,0,10.68.25,15.81-.75,11.93-2.34,22.63-7.31,30-17.44s9.88-21.84,8.53-34.45c-4.64,1.74-5.41,3-5.67,7.74-.79,13.81-6.38,25.11-18.16,32.86-7.77,5.12-16.41,7-26.52,6a44.23,44.23,0,0,1,4.75-4.36C219.71,222,220.46,220.53,219.74,216Zm38.11-49.68a19.52,19.52,0,0,0,6.23-15.48c-.14-5.39-1.88-6.7-7.14-5.06a35.72,35.72,0,0,0-16.13,10.92C229.93,169,226.49,184.25,223,199.59c5.36.28,6.34-.5,7.85-5.26,2.31-7.24,4.6-14.49,7.19-21.64a34.2,34.2,0,0,1,11.87-16.19c2.47-1.83,5.13-3.31,8.86-3.25a29.16,29.16,0,0,1-1.79,5.19C255.34,161.28,256.07,163.68,257.85,166.36Zm-59.42-107c-.33-5.25-1-6.08-5.49-7.44-6.78-2.06-13.59-4-20.34-6.23-6.54-2.12-12.64-5.18-17-10.63-2.26-2.8-3.87-6.11-5.77-9.18l.94-.92c1.61.43,3.47.48,4.77,1.36,3.07,2.07,5.62,1,8.6-.63-4.68-4.69-10.1-6.25-16.32-5.9-5,.28-6.3,2-4.68,6.81,2.81,8.35,8.65,14.27,15.71,19.14C170.65,53.89,184.44,56.46,198.43,59.35Zm56.23,46.74c2.37-6,.13-15.82-4.57-19.28-1-.71-3.77-.58-4.42.22-3,3.73-6.25,7.51-8.1,11.84-4.37,10.21-4.21,21-1.84,31.67,1.64,7.37,3.91,14.6,6,22.13,5.55-4.24,5.32-4.18,3.62-10.22-3.24-11.49-6.18-23.08-4-35.19.93-5.14,3-9.68,7.5-13.32.61,2,1.55,3.58,1.43,5.06C250,102.5,251.86,104.32,254.66,106.09ZM83.44,223.92c-.12,4.84.75,6.06,5,7.2,1.34.36,2.72.64,4.07,1,10.14,2.55,20.25,5.2,28.93,11.41,4.8,3.43,8.78,7.5,10.06,14.3-2-.5-3.79-.59-5.18-1.36-3.07-1.7-5.64-1-8.46.85,5.22,5.14,11.32,6.58,18,5.66,3.14-.42,4-1.93,3.31-5a17.77,17.77,0,0,0-1.06-3c-4-9.65-11.25-16.12-20.3-20.84C107.11,228.48,95.43,226.07,83.44,223.92ZM62.58,229c.75,6.33,7.79,13.58,13.74,14.37,2.18.28,3.5-.87,3.71-2.7.54-4.54,1.48-9.22.91-13.67-1.47-11.35-7.26-20.82-14.94-29.08-5-5.42-10.51-10.42-16-15.8-2.56,6.3-2.5,6.24,1.82,10.63,4,4.08,8,8.2,11.81,12.45,5.24,5.85,9.32,12.4,10.87,20.21.71,3.54,1,7.15-1.27,10.89-1.32-1.4-2.74-2.38-3.43-3.72C68.23,229.45,65.72,228.77,62.58,229Zm-37.51-112c-4.91,4.77-6.56,10.56-5.91,17,.41,4.1,2.28,5.08,6.29,3.85,7.4-2.26,13.11-6.87,17.85-12.79,7.18-8.94,10.73-19.47,13.31-30.41.91-3.88,1.59-7.82,2.4-11.83-5.16,0-6.75,1.59-7.61,5.84-2.41,11.83-5.86,23.3-13.3,33.15a22.22,22.22,0,0,1-13.63,8.73c.44-1.91.41-3.67,1.21-4.91C27.62,122.57,27.07,119.92,25.07,116.94ZM178.22,253.71c6.87,1.27,12.84.38,18.1-3.77,3.14-2.48,3.25-4,.4-6.82a32.54,32.54,0,0,0-14.34-7.78c-17.82-5-34.22.79-50.79,6.27,2.85,4.79,3.8,5.2,8.61,3.71,11-3.38,22-6.29,33.66-5.43,6.26.46,12,2.19,16.66,7.49-1.92.6-3.45,1.53-4.91,1.45C182,248.62,180,250.51,178.22,253.71ZM102.18,30c-5-2.74-14.2-.06-17.46,3-2.88,2.68-3,4.61-.17,7.3,7,6.56,15.69,8.86,24.92,9.27,14.18.62,27.27-4,40.3-8.6-2.68-4.64-6.13-4.91-10.72-3a79.88,79.88,0,0,1-13.35,3.68c-8.61,1.84-17.29,2.76-26,.29a18.18,18.18,0,0,1-9.47-6.16c2-.59,3.5-1.52,5-1.43C98.61,34.44,100.49,32.74,102.18,30ZM29,177.51c-2.36,6,0,15.22,4.77,19.19,1.73,1.45,3.36,1.47,4.77-.31,4.36-5.52,8.33-11.24,9.7-18.36,3.16-16.47-2-31.6-7.25-46.83C36.26,134,36,135.05,37.25,140c2,8.21,4.24,16.43,5.36,24.78,1.2,8.93,0,17.65-7.4,24.84-.6-1.69-1.6-3.11-1.49-4.44C34,181.47,32.15,179.34,29,177.51Zm201.29,42.14c6.12-.75,13.56-7.54,14.1-13.32a4.52,4.52,0,0,0-2.15-3.65,21.56,21.56,0,0,0-7.53-1.56,41.54,41.54,0,0,0-26.9,8.65c-8.13,6.32-15.31,13.86-22.88,20.9a12.43,12.43,0,0,0-1.42,1.94c4.76,2.42,5.9,2.25,9.27-1.25,1.72-1.78,3.39-3.63,5.19-5.34,7.69-7.29,15.59-14.28,26.08-17.44,4.42-1.33,8.76-1.76,13.16.32C235.23,212.88,228.81,213.58,230.28,219.65Zm3.09-118.81c3.19-6,3.08-6.6-.79-10.39C229,87,225.44,83.52,222.05,79.89c-5.34-5.71-9.86-12-12.32-19.5a19.62,19.62,0,0,1,.18-14.22c1.5,1.63,3,2.79,3.86,4.3,1.64,2.9,4.11,3.25,7.34,3.25-2.23-7-6.26-11.86-13.11-14-2.92-.9-4.48.22-4.95,3.25-2,12.54.56,24.19,8.49,34C218.14,85.22,225.76,92.61,233.37,100.84ZM52.69,62.66c-6.77,2-11.3,6.14-13.79,12.45-1.23,3.14-.46,5.1,2.16,5.52,8.24,1.3,16.29.92,24.15-2.32,11.21-4.62,19.68-12.66,27.65-21.38,2.14-2.35,4.21-4.76,6.39-7.23-6.08-2.75-6.06-2.61-10.16,2A140.84,140.84,0,0,1,78.76,61.92C72.65,67.44,66,72.2,57.91,74.48c-4.08,1.15-8.11,1.65-13.34-1A42.25,42.25,0,0,1,49,70.36C52.12,68.8,52.79,66.19,52.69,62.66ZM94,87.54l19.16,19.77,5.66-5-14-14.9c10.22-8.08,20.76-5.79,31.32-1.55l3.4-4.54C126.54,70.61,102.31,74,94,87.54Zm102.16,16.53c3.93,5.26,5.59,10,5,16a97,97,0,0,1-2.27,12.29c-1,4.32-.82,5,3.34,6.83,12-14.2,8.34-35.22-4.79-44.31l-20,19.16,4.7,5.86Zm-6.28-17c-6.4-8.39-22.22-14.42-29-11.22,1.26,5.87,1.26,5.88,7,6.92.95.17,1.92.29,2.87.49,3.49.75,6.83,1.79,8.54,4.45l-23.73,25.23,4.8,5.36ZM107,171.51l-4.25-5.38c-4.82,4.46-9.46,8.78-14.72,13.66-1.73-3.07-3.68-5.57-4.63-8.41-2.19-6.51-1-13,1.62-19.15,1-2.41.76-4-1.28-5.48-.75-.55-1.39-1.24-2.09-1.87-11.19,13.15-5.32,40.18,5.65,44.7Zm58.93-12.44,1-.51c9.72,10.24,19.42,20.5,29.25,30.64.44.45,2.41.1,3.15-.51,4.62-3.79,6.81-9.05,8.12-14.66,1-4.3,2.12-8.67.36-13.12-6.23,2.28-6.36,2.66-6.9,8.78a27.66,27.66,0,0,1-2,7.41c-1.11,2.87-2.51,3.15-4.81,1-2.83-2.66-5.41-5.57-8.18-8.29-5-4.89-10-9.72-15.18-14.71Zm-42.06,6.69-29.42,31c4.53,7.88,19.73,13.74,29.57,11.55,0-3.71-2-5.41-5.62-6.09a67.37,67.37,0,0,1-10.79-3.19c-3.7-1.35-3.9-2.52-1.21-5.27,2.18-2.23,4.45-4.39,6.68-6.59,5.44-5.35,10.86-10.71,16.43-16.19ZM88.19,93.39c-8.54,7.53-13.29,16.46-12.66,27.86.1,1.87.87,2.24,2.76,1.84,3.21-.69,4-2.92,4.33-5.62a33.91,33.91,0,0,1,5.46-14.19l26.18,25.18,4.37-3.7ZM180.7,196.31a21.47,21.47,0,0,1-1.79,1.52c-8.61,5.73-17.65,5.64-26.75,1.55-2.59-1.17-3.95-.68-5.2,1.52-.41.73-.89,1.42-1.34,2.12,13.36,9.45,35.42,7.43,43.82-5.2l-19-20.44c-1.78,2-3.3,3.62-5,5.45ZM95.36,124.5c-9.25-4.08-20.48-.26-24.84,8.2-3.92,7.59-2.21,18.36,4,21.87.33-3.77.92-7.24.9-10.7,0-8,4.76-13.42,12.89-14C91.8,129.59,93.7,127.5,95.36,124.5Zm115.84,6.62c-2.65,2.24-3.9,4.95-3.26,8.45,1.25,6.87-.78,11.06-7.1,13.73-2.23.94-4.79,1.11-7.21,1.53-3.13.54-3.93,1.32-4.47,4.67a19.16,19.16,0,0,0,23.21-6.77C217.39,145.56,217,137.42,211.2,131.12ZM129.76,74.58a16.61,16.61,0,0,0,2.42.62c4.19.33,8.39.6,12.59.89,6.55.44,10,4.49,9.34,10.89-.49,4.69.64,6.21,5.45,7.27,4.15-7.63-.83-19.22-7.54-23.48A17.34,17.34,0,0,0,129.76,74.58ZM153.81,211c-3.72-2.61-5.08-3-9.82-2.72-7.38.4-14.59-5.25-13.89-11.44.51-4.43-2-6.33-4.92-8.42-3.42,7-1,18.09,4.49,22.39C136.06,215.85,146.78,216.08,153.81,211Zm-6.21-69.11,10,9.1,4.28-4.71-3-4.46L172,127.16,168.67,123ZM161.88,168l-21-19.36c-2.24,2.54-4.79,5.42-7.46,8.46l4.4,5,4.59-3.23,15,14Zm-46-6.79-.61-.9L135,142.57l-8.8-9.24-4,4.75,4.34,4L110.9,156.75Zm27.17-35.11-15.52-14.46-4.21,4.09,20,19,7.79-6.78-3.83-5.55ZM140,102.51c-4.56-3.74-8.13-8-9-13.63-.41-2.68-1.6-3.41-3.82-3.68-1-.13-2.05-.35-3.05-.52-2.17,7.56,2.71,17.07,11.17,22.24Zm36.24,32.78a37.11,37.11,0,0,0,3.48,3,2.67,2.67,0,0,0,2.23.38c5.09-3,10.22-6,15-9.36,1.09-.78,1.16-3.18,1.31-4.87,0-.25-2.14-1.07-3.23-1C186.85,124.13,181.38,129.16,176.19,135.29ZM161,197.46c-.34-9-5.84-14.76-11.79-20.51l-4.7,4.26c3.07,4.37,6.24,8.26,8.69,12.55C155.33,197.51,156.21,198.34,161,197.46ZM85.81,160.13a5.21,5.21,0,0,0,1.22.26c8.29-.08,14.15-4.62,19.17-10.55a2.46,2.46,0,0,0,0-2.24,24.77,24.77,0,0,0-2.41-3.18c-4.72,3-9.13,6.1-13.79,8.75C87.15,154.78,85.45,156.67,85.81,160.13Zm58.43-42.83c4.28,3.91,8.46,7.71,12.72,11.59l5.06-4.68-12.2-13Zm-53,33.27,4.86-4.14C93,142.35,90,138.49,87,134.69c-1.88-2.39-4-1.6-6-.18-2.11,1.54-1.49,3.36,0,5C84.34,143.15,87.72,146.77,91.23,150.57Zm47,33.46L150.3,171.1,146,166.38,132.89,178.8Zm-35.87-62L90.14,135.8l4.07,3.69,13.69-11.75Zm44.36,65.59c-4.08,3.51-7.77,6.64-11.39,9.83a3.1,3.1,0,0,0-.3,4.84c1.36,1.43,3,1.86,4.83.31,3.51-3,7.13-5.87,11-9C149.49,191.58,148.24,189.77,146.74,187.57ZM113.1,173l4.75-4.05-12.5-14.12-5,4.35Zm4.64-26.35-12.16-13.58-4.64,5,12.62,13.23Zm76.31,1.85-4.5-3.69L176,157.25l5.28,4.76Zm-72.69,10.92L135.5,172.8l3.62-4L126.63,154.9Zm22.53-64.8,13.22,12.1,4.84-4.43c-4.59-4-8.88-7.7-13.35-11.57Zm-27.61,23.69,12.78-13.57-4.5-4.87L112.5,113.58ZM155,179l4.43,4.94,12.58-13.14-3.36-4Zm11.25-62.91L179,129.4l4.49-5.09c-3.26-3-6.4-5.88-9.59-8.74C170.33,112.35,171.13,111.44,166.29,116.09Zm25.3,17.46-3.74,4.28c2.58,3,5.08,6,7.55,8.92,3.84,4.58,3.84,4.58,8.68.87.07-.05.06-.19.22-.67C200.24,142.68,196.05,138.26,191.59,133.55Zm-57.91-21.31,4.67,4.35,11.9-12.43-4.31-3.54Zm32.09,25.06,14.14,12.77,2.79-3L170,133.49Zm-103.62-82c-6,1.86-6.43,2.33-7.47,7.45-.6,2.93-1.24,5.87-1.62,8.84-.1.73.76,1.57,1.18,2.36,1.85-1.32,4.81-2.31,5.34-4C61,65.37,61.32,60.5,62.15,55.31Zm194,62.5,1.18-.6c-.44-2.44-.14-5.46-1.5-7.18-2.56-3.24-6-5.77-9.26-8.45-.47-.4-1.61,0-2.45,0,.25,2.25-.33,5.26.91,6.61C248.29,111.8,252.36,114.66,256.12,117.81ZM168.67,144c-4.57,4.81-9,9.43-13.57,14.25l4,3.27-1-1.17,14.49-12.53Zm61,64.91c-4.82.71-7.09,2.84-7.42,7.18-.27,3.71-1,7.38-1.59,11.07l.91.36c1.68-1.07,4.15-1.76,4.9-3.29C228.78,219.56,229.5,214.41,229.69,208.91Zm-174,10.53-.68.87c.83,1.68,1.29,4.42,2.56,4.86,5.06,1.75,10.37,2.79,15.59,4.09l.53-1c-.74-2.46-1.29-5.38-4.18-6.15C65,220.86,60.29,220.29,55.68,219.44ZM29.8,106.32l-1.18-.2c-.92,2-2.91,4.24-2.56,6,1,4.93,3,9.67,4.7,15,2.2-2.69,5.19-4.32,4.05-7.74C33.33,115,31.48,110.67,29.8,106.32ZM227.69,63c0-2.94,0-5.63-3-6.38-4.75-1.19-9.61-1.93-14.59-2.89.86,6.56,1,6.7,7,7.57C220.49,61.79,223.87,62.37,227.69,63ZM27.36,165.9l-.82.33c.16,2.26-.55,5.26.64,6.64,3.15,3.68,7.13,6.66,11.34,10.42.46-3.3,3.26-5.53.55-7.91C35.3,172.07,31.28,169.05,27.36,165.9ZM154.34,31c2.19,2.26,3.22,5.33,6.48,4.31,4.78-1.49,9.43-3.38,14.14-5.1l.19-1.26c-2.38-.84-4.93-2.66-7.1-2.29C163.56,27.43,159.27,29.37,154.34,31ZM139.18,191.12l-12.67-14-3.91,4.68,13.45,12.28Zm-23.89-52.18,12.44-13-2.59-3-13,13.27Z"/><path class="cls-1" d="M101.15,247l5.17,6.09c4.52-1.81,8.85-3.52,13.16-5.29,3-1.21,5,.44,6.82,2.29.28.28-.21,2-.69,2.21a91,91,0,0,1-11.9,4c-1.6.37-3.56-.8-5.22-1.24,8.7,12.43,24,17.58,39.29,12.9a63.92,63.92,0,0,0,9.82-4,8.67,8.67,0,0,1,10,.84c-6.7,4.87-13.75,8.4-21.68,10-21,4.13-42.9-8.89-51.84-28.21-1.62-3.51-1-5,2.85-5.72,7.26-1.33,13.94-.27,19.21,5.57-3.08,2.85-5,3-8.47,1.46a46.48,46.48,0,0,0-5.87-1.83Z"/><path class="cls-1" d="M171.57,245.31c-1.38,3.22-3.44,5.24-7.32,5.21a10.15,10.15,0,0,0-5.49,2.14l7.11,3.28c3.32-4.05,6.41-7.89,9.57-11.66,2.32-2.76,5.14-1,8.34-.91a18.94,18.94,0,0,1-1.37,2.4c-1.35,1.69-2.81,3.29-4.15,5-2.68,3.37-5.37,6.68-10.59,5.16,9.72,5,26.19,5.47,36.77-3.22,4.43-3.64,8.06-8.33,11.63-12.87,2.47-3.14,4.29-4.53,8.67-4.25-1.23,5.43-4.27,9.78-7.76,13.82-18.07,21-46.15,19.14-64.62,6.75-3.29-2.2-3.28-4-.32-6.68C157.5,244.56,166,242.73,171.57,245.31Z"/><path class="cls-1" d="M109.17,38c1.36-3.41,3.2-5.41,7-5.46,2.09,0,4.16-1.11,6.24-1.71l0-1L114.79,27c-2.76,3.5-5.36,6.92-8.07,10.25s-4.56,3.74-9.86,1.89c2.38-2.87,4.61-5.52,6.79-8.21,2.31-2.86,4.87-5.12,9.06-4-14.54-6.12-31.26-4.23-42.63,9.22a91.44,91.44,0,0,0-5.61,7.5c-2,2.91-4.68,4.26-8.53,4.25a12.45,12.45,0,0,1,.55-2.12c7.27-15.3,18.67-25.44,36-27.67a51.23,51.23,0,0,1,35.72,8.53c3.5,2.31,3.52,4.13.36,6.86C122.94,38.33,116.6,40,109.17,38Z"/><path class="cls-1" d="M37.52,170.65c-4.18-1.42-5.28-3-5.6-7-.13-1.69-.85-3.35-1.53-5.84a43.27,43.27,0,0,0-6.89,17.71c-3,17,3.75,29.5,17.92,38.58,3.44,2.2,6.22,4.71,5.27,9.62C33.8,218.6,24.35,210.05,19.74,197c-5.53-15.62-2.82-30.47,5.9-44.3,3-4.69,4.77-4.58,8.23-.14C38.09,158,39.61,163.94,37.52,170.65Z"/><path class="cls-1" d="M245.94,112.63c3.71,1.39,5.57,3.44,5.52,7.17,0,1.83.77,3.67,1.36,6.19a33.36,33.36,0,0,0,6.94-14.75c2.37-11.09,1.41-21.81-5.55-31-3.31-4.38-7.94-7.85-12.23-11.42-2.81-2.34-5-4.67-4.44-9,5.05,1.23,9.13,3.94,12.88,7.09,21.48,18.09,19.68,46.86,6.25,65.26-2.13,2.91-3.58,2.93-6,.36C245.36,126.83,243.94,120.23,245.94,112.63Z"/><path class="cls-1" d="M254.46,177c11.14-8.57,17.86-19.4,16-33.86-.69-5.31-2.76-10.52-4.76-15.55-1.4-3.51-1.83-6.54.76-9.87,4.57,4.8,7,10.56,8.65,16.71,7,26.26-11,47.47-28.43,55.07-3.92,1.71-5.14,1-6.09-3.14-1.67-7.29.84-13.21,6-18.54,2.44,2.25,3.07,4.48,1.8,7.37a59.92,59.92,0,0,0-2.1,6.62l.71.46,7.62-5.35Z"/><path class="cls-1" d="M165.32,36.33c3.19-2.34,6.09-3.06,9.52-.92,1.53,1,3.63,1,5.88,1.6-11.27-19.5-30.27-29.54-51.23-20.81-2.29.95-4.5,2.11-6.81,3-3.15,1.2-4.7.92-8-1.21,5-4.76,11.12-7.36,17.62-9.1,25.6-6.84,47.36,10.17,55.4,27.41,1.66,3.57,1.16,5.06-2.29,5.75C177.86,43.55,171,42.33,165.32,36.33Z"/><path class="cls-1" d="M100.68,260.42c-6.33,1.8-12.37.62-18.32-.82-19.86-4.82-30.24-18.41-34-37.58-1-4.89-.67-10.06-.68-15.1,0-3,1.79-4,5-3,7.24,2.32,11.75,7.25,13.76,14.53-3.59,1.21-5.68.47-7.63-2.23-1.33-1.83-2.94-3.45-4.43-5.17l-1.44.63c1.12,5.68,1.79,11.5,3.47,17,5.12,16.86,17.12,24.22,33.74,26.07C94.33,255.23,98.59,255.51,100.68,260.42Z"/><path class="cls-1" d="M35.71,100.37c-1.92,1.41-3.92,2.75-5.76,4.26-8.54,7-15.45,15.05-17.19,26.44-1.12,7.37.56,14.29,3.36,21a36.83,36.83,0,0,0,2.19,4.67c1.91,3.2,1.25,6.09-.85,9.23A44.63,44.63,0,0,1,7.29,144c-2.86-18.58,4.65-32.91,19.06-44.12A113.34,113.34,0,0,1,37,93.09c1.81-1.1,3.15-.65,4.16,1.34,3.14,6.19.59,16.42-5.41,20.7-2.12-2.55-2.61-5.15-1.09-8.27a37.8,37.8,0,0,0,1.84-5.93Z"/><path class="cls-1" d="M21.26,101.46A51,51,0,0,1,23.15,79c5.61-17.1,18.23-26.14,35.1-29.91C63.46,47.94,69,48,74.37,47.84c3-.1,3.89,1.4,3.2,4.44-1.63,7.24-8.14,13.5-14.81,14.11-.68-3.27.15-5.77,3.13-7.67,1.65-1.06,3-2.65,4.93-4.46a31.74,31.74,0,0,0-17.21,1.8c-15,6-24.48,16.47-26.3,33-.21,1.92-.52,3.84-.56,5.77C26.68,98.31,24.68,100.16,21.26,101.46Z"/><path class="cls-1" d="M182.45,22.44c6.43-1.44,12.63-.73,18.71.8,19,4.8,30.71,17.54,34.25,39.15A86.08,86.08,0,0,1,236,75c.05,3.35-1.33,4.32-4.78,3.71-6.27-1.1-13-8.15-13.88-14.77,3.12-.69,5.62,0,7.56,2.75a52.21,52.21,0,0,0,4.16,4.67l1.3-.47c-.51-4.39-.63-8.87-1.59-13.16-3.67-16.31-18.61-28.55-35.52-29.51C188.94,27.92,184.54,27.61,182.45,22.44Z"/><path class="cls-1" d="M219.74,216c.72,4.49,0,6-3.43,8.21a44.23,44.23,0,0,0-4.75,4.36c10.11,1,18.75-.89,26.52-6,11.78-7.75,17.37-19,18.16-32.86.26-4.7,1-6,5.67-7.74,1.35,12.61-1,24.19-8.53,34.45s-18.12,15.1-30,17.44c-5.13,1-10.53.73-15.81.75-2.66,0-3.54-2.22-2.31-5.69A19.9,19.9,0,0,1,217.6,216.6C218.28,216.35,219,216.23,219.74,216Z"/><path class="cls-1" d="M257.85,166.36c-1.78-2.68-2.51-5.08-.84-7.92a29.16,29.16,0,0,0,1.79-5.19c-3.73-.06-6.39,1.42-8.86,3.25a34.2,34.2,0,0,0-11.87,16.19c-2.59,7.15-4.88,14.4-7.19,21.64-1.51,4.76-2.49,5.54-7.85,5.26,3.46-15.34,6.9-30.61,17.78-42.85a35.72,35.72,0,0,1,16.13-10.92c5.26-1.64,7-.33,7.14,5.06A19.52,19.52,0,0,1,257.85,166.36Z"/><path class="cls-1" d="M198.43,59.35c-14-2.89-27.78-5.46-39.61-13.62-7.06-4.87-12.9-10.79-15.71-19.14-1.62-4.81-.33-6.53,4.68-6.81,6.22-.35,11.64,1.21,16.32,5.9-3,1.6-5.53,2.7-8.6.63-1.3-.88-3.16-.93-4.77-1.36l-.94.92c1.9,3.07,3.51,6.38,5.77,9.18,4.39,5.45,10.49,8.51,17,10.63,6.75,2.19,13.56,4.17,20.34,6.23C197.43,53.27,198.1,54.1,198.43,59.35Z"/><path class="cls-1" d="M254.66,106.09c-2.8-1.77-4.71-3.59-4.43-7.09.12-1.48-.82-3-1.43-5.06-4.51,3.64-6.57,8.18-7.5,13.32-2.17,12.11.77,23.7,4,35.19,1.7,6,1.93,6-3.62,10.22-2.05-7.53-4.32-14.76-6-22.13-2.37-10.68-2.53-21.46,1.84-31.67,1.85-4.33,5.1-8.11,8.1-11.84.65-.8,3.46-.93,4.42-.22C254.79,90.27,257,100,254.66,106.09Z"/><path class="cls-1" d="M83.44,223.92c12,2.15,23.67,4.56,34.39,10.16,9,4.72,16.34,11.19,20.3,20.84a17.77,17.77,0,0,1,1.06,3c.68,3.1-.17,4.61-3.31,5-6.73.92-12.83-.52-18-5.66,2.82-1.85,5.39-2.55,8.46-.85,1.39.77,3.16.86,5.18,1.36-1.28-6.8-5.26-10.87-10.06-14.3-8.68-6.21-18.79-8.86-28.93-11.41-1.35-.35-2.73-.63-4.07-1C84.19,230,83.32,228.76,83.44,223.92Z"/><path class="cls-1" d="M62.58,229c3.14-.2,5.65.48,7.24,3.58.69,1.34,2.11,2.32,3.43,3.72,2.22-3.74,2-7.35,1.27-10.89C73,217.57,68.89,211,63.65,205.17c-3.82-4.25-7.8-8.37-11.81-12.45-4.32-4.39-4.38-4.33-1.82-10.63,5.47,5.38,10.94,10.38,16,15.8,7.68,8.26,13.47,17.73,14.94,29.08.57,4.45-.37,9.13-.91,13.67-.21,1.83-1.53,3-3.71,2.7C70.37,242.55,63.33,235.3,62.58,229Z"/><path class="cls-1" d="M25.07,116.94c2,3,2.55,5.63.61,8.65-.8,1.24-.77,3-1.21,4.91a22.22,22.22,0,0,0,13.63-8.73c7.44-9.85,10.89-21.32,13.3-33.15.86-4.25,2.45-5.83,7.61-5.84-.81,4-1.49,8-2.4,11.83C54,105.55,50.48,116.08,43.3,125c-4.74,5.92-10.45,10.53-17.85,12.79-4,1.23-5.88.25-6.29-3.85C18.51,127.5,20.16,121.71,25.07,116.94Z"/><path class="cls-1" d="M178.22,253.71c1.79-3.2,3.76-5.09,7.39-4.88,1.46.08,3-.85,4.91-1.45-4.65-5.3-10.4-7-16.66-7.49-11.65-.86-22.7,2.05-33.66,5.43-4.81,1.49-5.76,1.08-8.61-3.71,16.57-5.48,33-11.28,50.79-6.27a32.54,32.54,0,0,1,14.34,7.78c2.85,2.78,2.74,4.34-.4,6.82C191.06,254.09,185.09,255,178.22,253.71Z"/><path class="cls-1" d="M102.18,30c-1.69,2.77-3.57,4.47-6.91,4.27-1.5-.09-3,.84-5,1.43a18.18,18.18,0,0,0,9.47,6.16c8.67,2.47,17.35,1.55,26-.29a79.88,79.88,0,0,0,13.35-3.68c4.59-1.86,8-1.59,10.72,3-13,4.59-26.12,9.22-40.3,8.6-9.23-.41-17.93-2.71-24.92-9.27-2.85-2.69-2.71-4.62.17-7.3C88,29.91,97.23,27.23,102.18,30Z"/><path class="cls-1" d="M29,177.51c3.16,1.83,5,4,4.73,7.66-.11,1.33.89,2.75,1.49,4.44,7.41-7.19,8.6-15.91,7.4-24.84-1.12-8.35-3.37-16.57-5.36-24.78-1.21-4.94-1-6,3.73-8.79,5.27,15.23,10.41,30.36,7.25,46.83-1.37,7.12-5.34,12.84-9.7,18.36-1.41,1.78-3,1.76-4.77.31C29,192.73,26.63,183.48,29,177.51Z"/><path class="cls-1" d="M230.28,219.65c-1.47-6.07,4.95-6.77,6.92-10.75-4.4-2.08-8.74-1.65-13.16-.32C213.55,211.74,205.65,218.73,198,226c-1.8,1.71-3.47,3.56-5.19,5.34-3.37,3.5-4.51,3.67-9.27,1.25a12.43,12.43,0,0,1,1.42-1.94c7.57-7,14.75-14.58,22.88-20.9a41.54,41.54,0,0,1,26.9-8.65,21.56,21.56,0,0,1,7.53,1.56,4.52,4.52,0,0,1,2.15,3.65C243.84,212.11,236.4,218.9,230.28,219.65Z"/><path class="cls-1" d="M233.37,100.84c-7.61-8.23-15.23-15.62-21.83-23.82-7.93-9.85-10.47-21.5-8.49-34,.47-3,2-4.15,4.95-3.25,6.85,2.13,10.88,6.94,13.11,14-3.23,0-5.7-.35-7.34-3.25-.86-1.51-2.36-2.67-3.86-4.3a19.62,19.62,0,0,0-.18,14.22c2.46,7.52,7,13.79,12.32,19.5,3.39,3.63,7,7.08,10.53,10.56C236.45,94.24,236.56,94.81,233.37,100.84Z"/><path class="cls-1" d="M52.69,62.66c.1,3.53-.57,6.14-3.65,7.7a42.25,42.25,0,0,0-4.47,3.12c5.23,2.65,9.26,2.15,13.34,1,8.12-2.28,14.74-7,20.85-12.56A140.84,140.84,0,0,0,89.09,51.66c4.1-4.57,4.08-4.71,10.16-2-2.18,2.47-4.25,4.88-6.39,7.23-8,8.72-16.44,16.76-27.65,21.38-7.86,3.24-15.91,3.62-24.15,2.32-2.62-.42-3.39-2.38-2.16-5.52C41.39,68.8,45.92,64.71,52.69,62.66Z"/><path class="cls-1" d="M254.56,176.92c-.76-.56-1.88-1-2.21-1.7-1.38-3.13-2.61-6.33-3.72-9.56-1.45-4.22-.88-5.59,3.89-9.06,1.57,7,6.88,13,1.93,20.4Z"/><path class="cls-1" d="M62.15,55.31C61.32,60.5,61,65.37,59.58,69.93c-.53,1.72-3.49,2.71-5.34,4-.42-.79-1.28-1.63-1.18-2.36.38-3,1-5.91,1.62-8.84C55.72,57.64,56.19,57.17,62.15,55.31Z"/><path class="cls-1" d="M256.12,117.81c-3.76-3.15-7.83-6-11.12-9.58-1.24-1.35-.66-4.36-.91-6.61.84,0,2-.44,2.45,0,3.22,2.68,6.7,5.21,9.26,8.45,1.36,1.72,1.06,4.74,1.5,7.18Z"/><path class="cls-1" d="M229.69,208.91c-.19,5.5-.91,10.65-3.2,15.32-.75,1.53-3.22,2.22-4.9,3.29l-.91-.36c.55-3.69,1.32-7.36,1.59-11.07C222.6,211.75,224.87,209.62,229.69,208.91Z"/><path class="cls-1" d="M55.68,219.44c4.61.85,9.3,1.42,13.82,2.63,2.89.77,3.44,3.69,4.18,6.15l-.53,1c-5.22-1.3-10.53-2.34-15.59-4.09-1.27-.44-1.73-3.18-2.56-4.86Z"/><path class="cls-1" d="M29.8,106.32c1.68,4.35,3.53,8.65,5,13.07,1.14,3.42-1.85,5-4.05,7.74-1.75-5.34-3.71-10.08-4.7-15-.35-1.76,1.64-4,2.56-6Z"/><path class="cls-1" d="M227.69,63c-3.82-.62-7.2-1.2-10.6-1.7-6-.87-6.15-1-7-7.57,5,1,9.84,1.7,14.59,2.89C227.65,57.36,227.72,60.05,227.69,63Z"/><path class="cls-1" d="M27.36,165.9c3.92,3.15,7.94,6.17,11.71,9.48,2.71,2.38-.09,4.61-.55,7.91-4.21-3.76-8.19-6.74-11.34-10.42-1.19-1.38-.48-4.38-.64-6.64Z"/><path class="cls-1" d="M154.34,31c4.93-1.64,9.22-3.58,13.71-4.34,2.17-.37,4.72,1.45,7.1,2.29L175,30.22c-4.71,1.72-9.36,3.61-14.14,5.1C157.56,36.34,156.53,33.27,154.34,31Z"/><path class="cls-1" d="M93.36,87.54c8.3-13.59,32.53-16.93,45.55-6.23l-3.39,4.54c-10.57-4.24-21.11-6.53-31.33,1.54l14,14.9-5.65,5Z"/><path class="cls-1" d="M195.52,104.07l-14.08,15.86-4.7-5.85,20-19.16c13.12,9.09,16.75,30.11,4.78,44.31-4.16-1.85-4.36-2.51-3.34-6.83a95.57,95.57,0,0,0,2.28-12.29C201.1,114.08,199.44,109.32,195.52,104.07Z"/><path class="cls-1" d="M189.24,87.07l-29.56,31.22-4.81-5.36,23.74-25.22c-1.72-2.67-5.05-3.7-8.55-4.45-.95-.21-1.91-.32-2.87-.5-5.73-1-5.73-1-7-6.92C167,72.65,182.83,78.68,189.24,87.07Z"/><path class="cls-1" d="M106.35,171.51l-19.7,18.07c-11-4.52-16.83-31.55-5.64-44.7a24.38,24.38,0,0,0,2.09,1.86c2,1.49,2.3,3.08,1.27,5.49-2.63,6.16-3.81,12.63-1.62,19.15,1,2.83,2.9,5.34,4.63,8.41l14.72-13.67Z"/><path class="cls-1" d="M165.28,159.07l4.85-4c5.15,5,10.19,9.81,15.17,14.7,2.77,2.72,5.36,5.63,8.18,8.29,2.3,2.16,3.7,1.89,4.82-1a27.57,27.57,0,0,0,2-7.4c.55-6.12.67-6.51,6.91-8.79,1.75,4.45.64,8.83-.36,13.12-1.31,5.62-3.51,10.87-8.13,14.67-.74.6-2.71,1-3.15.5-9.83-10.13-19.53-20.4-29.25-30.64Z"/><path class="cls-1" d="M123.22,165.75l5.64,5.25-16.42,16.2c-2.23,2.2-4.5,4.35-6.69,6.59-2.68,2.74-2.49,3.92,1.22,5.27a69.49,69.49,0,0,0,10.79,3.19c3.66.68,5.58,2.37,5.61,6.09-9.84,2.18-25-3.68-29.57-11.55C103.52,186.54,113.29,176.24,123.22,165.75Z"/><path class="cls-1" d="M87.55,93.39,118,124.76l-4.36,3.69c-8.78-8.43-17.39-16.71-26.18-25.17A33.74,33.74,0,0,0,82,117.47c-.31,2.69-1.12,4.93-4.33,5.61-1.88.41-2.65,0-2.76-1.84C74.25,109.85,79,100.92,87.55,93.39Z"/><path class="cls-1" d="M180.05,196.31l-15.22-13.48c1.67-1.84,3.19-3.5,5-5.45l19,20.43C180.4,210.44,158.33,212.47,145,203c.44-.7.92-1.39,1.34-2.12,1.24-2.2,2.6-2.69,5.19-1.53,9.1,4.1,18.14,4.19,26.75-1.54A21.77,21.77,0,0,0,180.05,196.31Z"/><path class="cls-1" d="M94.72,124.49c-1.67,3-3.57,5.1-7,5.36-8.13.59-12.93,6-12.89,14,0,3.47-.57,6.94-.91,10.7-6.25-3.5-8-14.27-4-21.86C74.23,124.24,85.47,120.41,94.72,124.49Z"/><path class="cls-1" d="M210.55,131.12c5.8,6.3,6.2,14.44,1.17,21.61a19.16,19.16,0,0,1-23.21,6.76c.55-3.35,1.35-4.12,4.47-4.66,2.43-.42,5-.6,7.21-1.54,6.32-2.67,8.36-6.85,7.1-13.72C206.66,136.07,207.9,133.36,210.55,131.12Z"/><path class="cls-1" d="M129.12,74.58a17.32,17.32,0,0,1,22.25-3.81c6.71,4.26,11.69,15.85,7.55,23.48-4.81-1.07-5.95-2.58-5.45-7.27.67-6.4-2.8-10.45-9.34-10.9-4.2-.29-8.4-.56-12.6-.89A14.89,14.89,0,0,1,129.12,74.58Z"/><path class="cls-1" d="M153.16,211c-7,5-17.74,4.81-24.14-.19-5.51-4.31-7.91-15.36-4.48-22.39,2.95,2.09,5.42,4,4.92,8.42-.71,6.19,6.51,11.83,13.88,11.44C148.08,208.06,149.44,208.43,153.16,211Z"/><path class="cls-1" d="M147,141.93,168,123l3.36,4.17-13.16,14.71,3.05,4.46L157,151Z"/><path class="cls-1" d="M161.24,168l-4.48,4.81-15-13.94-4.58,3.23-4.41-5,7.46-8.45Z"/><path class="cls-1" d="M115.26,161.24l-5-4.49,15.58-14.69c-1.47-1.36-2.79-2.57-4.34-4,1.35-1.59,2.64-3.1,4.06-4.75l8.79,9.23-19.68,17.77Z"/><path class="cls-1" d="M142.44,126.12l4.17-3.7,3.83,5.56-7.79,6.77-19.94-19,4.21-4.1Q134.53,118.77,142.44,126.12Z"/><path class="cls-1" d="M139.3,102.5l-4.71,4.42c-8.46-5.17-13.33-14.68-11.17-22.24,1,.17,2,.39,3,.51,2.23.28,3.41,1,3.83,3.68C131.17,94.51,134.74,98.76,139.3,102.5Z"/><path class="cls-1" d="M175.54,135.28c5.2-6.12,10.66-11.15,18.83-11.85,1.1-.09,3.26.73,3.24,1-.16,1.68-.22,4.09-1.31,4.86-4.82,3.4-10,6.37-15.05,9.37a2.67,2.67,0,0,1-2.23-.38A38.44,38.44,0,0,1,175.54,135.28Z"/><path class="cls-1" d="M160.35,197.46c-4.78.88-5.67,0-7.81-3.7-2.45-4.29-5.61-8.18-8.69-12.56l4.71-4.25C154.51,182.69,160,188.44,160.35,197.46Z"/><path class="cls-1" d="M85.16,160.12c-.36-3.46,1.35-5.34,4.18-7,4.66-2.65,9.07-5.72,13.79-8.74a24,24,0,0,1,2.41,3.17,2.49,2.49,0,0,1,0,2.24c-5,5.94-10.88,10.48-19.18,10.56A5.94,5.94,0,0,1,85.16,160.12Z"/><path class="cls-1" d="M143.59,117.3l5.58-6.15,12.2,13.06-5.05,4.68Z"/><path class="cls-1" d="M90.58,150.57c-3.51-3.8-6.89-7.42-10.21-11.09-1.46-1.62-2.08-3.43,0-5s4.11-2.21,6,.17c3,3.81,5.93,7.67,9.08,11.75Z"/><path class="cls-1" d="M137.6,184l-5.36-5.23,13.16-12.42,4.25,4.73Z"/><path class="cls-1" d="M101.74,122l5.51,5.77L93.56,139.49,89.5,135.8C93.64,131.11,97.62,126.63,101.74,122Z"/><path class="cls-1" d="M146.09,187.57l4.1,6c-3.83,3.13-7.45,6-11,9-1.81,1.55-3.47,1.12-4.82-.31a3.1,3.1,0,0,1,.29-4.84C138.32,194.2,142,191.08,146.09,187.57Z"/><path class="cls-1" d="M112.45,173l-12.7-13.83,5-4.35L117.21,169Z"/><path class="cls-1" d="M117.09,146.66l-4.18,4.62L100.29,138l4.64-4.95Z"/><path class="cls-1" d="M193.4,148.52,180.67,162l-5.28-4.76,13.52-12.43Z"/><path class="cls-1" d="M120.72,159.44,126,154.9l12.49,13.86-3.62,4Z"/><path class="cls-1" d="M143.24,94.64,148,90.73l13.35,11.57-4.85,4.44Z"/><path class="cls-1" d="M115.64,118.32l-3.78-4.74,12-13.69,4.5,4.87Z"/><path class="cls-1" d="M154.4,179l13.65-12.23,3.35,4-12.58,13.14Z"/><path class="cls-1" d="M165.64,116.09c4.84-4.65,4-3.74,7.62-.53,3.19,2.86,6.34,5.78,9.59,8.75l-4.49,5.09Z"/><path class="cls-1" d="M190.94,133.55l12.71,13.39c-.15.49-.15.63-.22.68-4.84,3.71-4.84,3.7-8.68-.87-2.47-2.95-5-5.88-7.54-8.92Z"/><path class="cls-1" d="M133,112.23l12.27-11.61,4.3,3.54-11.89,12.42Z"/><path class="cls-1" d="M165.12,137.3l4.25-3.82c4.25,4.54,8.36,8.93,12.69,13.54l-2.8,3Z"/><path class="cls-1" d="M168,144l3.9,3.81-14.48,12.54,1,1.17-3.95-3.27C159,153.43,163.45,148.8,168,144Z"/><path class="cls-1" d="M138.54,191.12c-1,.95-2,1.83-3.13,2.92L122,181.77l3.91-4.69Z"/><path class="cls-1" d="M114.65,138.94l-3.13-2.77,13-13.27,2.58,3Z"/></g></g></svg>