<svg width="274" height="274" viewBox="0 0 274 274" fill="none" xmlns="http://www.w3.org/2000/svg">
<path d="M229.436 75.21C230.256 76.4878 231.007 77.6586 231.821 78.9269C235.539 76.642 239.149 74.4235 243.199 71.9346C238.259 65.4107 233.446 59.055 228.438 52.4422C220.757 59.5439 213.432 66.3158 205.972 73.213C220.461 89.2293 228.713 107.953 230.623 129.652C240.663 128.874 250.599 128.103 260.728 127.317C260.198 119.09 258.739 111.22 256.489 103.269C252.268 104.454 248.2 105.596 244.018 106.77C244.385 108.222 244.712 109.516 245.1 111.048C247.895 110.407 250.614 109.785 253.612 109.098C254.43 113.705 255.215 118.13 256.051 122.842C248.889 123.687 241.928 124.508 235.229 125.298C232.961 116.589 230.732 108.025 228.428 99.1772C239.83 94.4508 251.656 89.548 263.686 84.5609C276.758 117.653 277.395 150.774 265.652 184.411C253.433 179.902 241.416 175.468 229.823 171.189C231.763 162.374 233.665 153.731 235.624 144.83C242.21 145.342 249.206 145.887 256.507 146.455C255.865 151.086 255.243 155.576 254.592 160.271C251.633 159.722 248.988 159.231 246.107 158.696C245.773 160.097 245.453 161.434 245.084 162.979C249.341 163.999 253.452 164.984 258.127 166.104C259.251 157.964 260.34 150.08 261.477 141.848C250.974 141.429 241.013 141.032 230.855 140.626C229.772 162.295 222.367 181.312 208.417 198.008C216.006 204.497 223.588 210.979 231.342 217.607C236.711 211.457 241.238 204.858 245.328 197.654C241.563 195.534 237.881 193.461 234.057 191.308C233.289 192.588 232.575 193.778 231.797 195.075C234.271 196.62 236.611 198.081 239.211 199.705C236.528 203.548 233.926 207.275 231.183 211.204C225.422 206.656 219.877 202.279 214.689 198.183C219.288 190.361 223.783 182.714 228.384 174.887C239.734 179.591 251.515 184.473 263.644 189.499C249.548 222.124 226.601 245.976 194.458 261.493C189.03 249.739 183.665 238.123 178.442 226.813C186.032 221.942 193.487 217.157 201.186 212.216C205.454 217.203 210.055 222.577 214.851 228.179C211.082 231.042 207.454 233.798 203.675 236.669C201.971 234.152 200.399 231.832 198.774 229.432C197.517 230.241 196.39 230.967 195.076 231.812C197.313 235.458 199.521 239.057 201.832 242.824C208.86 238.599 215.203 233.704 221.283 228.131C214.417 220.704 207.637 213.371 200.779 205.953C192.926 213.063 184.322 218.791 174.715 222.995C165.109 227.199 155.08 229.692 144.341 230.59C145.122 240.646 145.895 250.586 146.683 260.742C154.892 260.203 162.755 258.727 170.729 256.489C169.553 252.304 168.414 248.25 167.222 244.008C165.72 244.405 164.382 244.758 162.943 245.138C163.595 247.925 164.21 250.556 164.914 253.564C160.374 254.385 155.866 255.2 151.145 256.054C150.29 248.776 149.472 241.805 148.697 235.208C157.372 232.955 165.942 230.729 174.813 228.425C179.495 239.703 184.408 251.536 189.444 263.668C156.38 276.776 123.225 277.387 89.5846 265.643C94.0929 253.431 98.5256 241.423 102.805 229.831C111.648 231.767 120.306 233.663 129.167 235.604C128.662 242.132 128.12 249.121 127.551 256.476C122.916 255.858 118.411 255.256 113.701 254.627C114.261 251.642 114.775 248.898 115.311 246.038C113.836 245.719 112.534 245.437 111.009 245.107C109.999 249.32 109.016 253.424 107.991 257.698C115.979 259.67 123.916 260.744 132.18 261.012C132.575 250.899 132.962 240.979 133.359 230.819C122.747 230.361 112.561 228.277 102.763 224.448C93.0097 220.636 84.1451 215.309 76.0094 208.393C69.4531 216.061 62.9716 223.641 56.1083 231.668C62.8556 236.382 69.4258 240.972 76.1598 245.677C78.4964 241.507 80.5666 237.813 82.6897 234.025C81.4106 233.262 80.2572 232.575 78.9337 231.785C77.4128 234.212 75.9203 236.592 74.287 239.198C70.4503 236.52 66.7158 233.914 62.7934 231.176C67.3493 225.403 71.7329 219.849 75.8205 214.67C83.6366 219.274 91.2745 223.773 99.1095 228.388C94.3834 239.782 89.4744 251.617 84.5662 263.451C52.9711 251.115 25.4298 223.615 12.7189 194.351C24.3309 188.987 35.9488 183.621 47.1719 178.437C52.0508 186.029 56.8458 193.492 61.7842 201.177C56.7995 205.446 51.4201 210.054 45.8244 214.847C43.0338 211.176 40.2719 207.544 37.3334 203.679C39.8253 201.983 42.1377 200.41 44.5513 198.768C43.7731 197.544 43.0575 196.42 42.2008 195.073C38.5506 197.303 34.9498 199.502 31.1503 201.823C35.3789 208.822 40.2643 215.166 45.8728 221.268C53.2645 214.442 60.5924 207.674 68.0433 200.793C53.5547 184.763 45.3239 166.088 43.378 144.353C33.3608 145.121 23.4272 145.883 13.2651 146.662C13.7877 154.871 15.2974 162.728 17.4796 170.724C21.7116 169.538 25.7755 168.399 29.9939 167.217C29.6182 165.756 29.2863 164.466 28.8928 162.935C26.4946 163.506 24.2064 164.111 21.887 164.551C21.4058 164.642 20.3966 164.207 20.3272 163.871C19.4707 159.72 18.7435 155.542 17.9409 151.141C25.2476 150.283 32.2042 149.467 38.7778 148.695C41.0524 157.454 43.2643 165.971 45.5622 174.819C34.2382 179.516 22.423 184.416 10.4177 189.395C5.35071 177.355 2.25581 164.965 0.833514 152.164C-1.76517 128.774 1.96754 106.734 8.49432 89.6348C20.5027 94.0628 32.515 98.4923 44.1813 102.794C42.2447 111.589 40.3419 120.231 38.3784 129.148C31.7898 128.64 24.798 128.101 17.5052 127.538C18.139 122.865 18.7417 118.422 19.3823 113.698C22.2997 114.25 24.9912 114.759 27.9157 115.312C28.2309 113.96 28.545 112.613 28.9155 111.024C24.6891 110 20.596 109.008 16.3004 107.966C14.305 115.94 13.3348 123.88 12.9104 132.179C23.0739 132.568 33.0441 132.95 43.1713 133.339C44.2185 111.642 51.6732 92.639 65.5786 75.9817C57.9648 69.4691 50.3818 62.9829 42.6566 56.3751C37.2879 62.5583 32.7302 69.1489 28.6787 76.351C32.4726 78.4791 36.1551 80.5446 39.9917 82.6967C40.7392 81.4128 41.4089 80.2624 42.1895 78.9218C39.7522 77.3896 37.3801 75.8983 34.7958 74.2736C37.5021 70.4024 40.1104 66.6713 42.8238 62.7899C48.5463 67.304 54.0592 71.6526 59.3262 75.8073C54.7573 83.5588 50.2596 91.1895 45.6023 99.0911C34.2426 94.3852 22.4212 89.4879 10.3601 84.4914C24.4831 51.8452 47.4221 27.9503 79.5559 12.5199C84.9823 24.2679 90.3546 35.8986 95.5613 47.171C87.9452 52.0584 80.4856 56.8453 72.8134 61.7687C68.5263 56.7581 63.9254 51.381 59.1556 45.8063C62.9219 42.9462 66.5532 40.1885 70.3284 37.3216C72.0296 39.8199 73.603 42.1304 75.2452 44.5421C76.4946 43.7415 77.6199 43.0203 78.9317 42.1797C76.6793 38.5097 74.4689 34.908 71.9485 30.8012C65.4022 35.7592 59.0099 40.6005 52.4513 45.5677C59.5908 53.2878 66.3706 60.6189 73.2278 68.0337C89.2788 53.4999 107.972 45.2988 129.657 43.3737C128.879 33.3146 128.11 23.3699 127.327 13.2469C119.102 13.8181 111.22 15.2475 103.272 17.4997C104.446 21.6773 105.588 25.7414 106.778 29.9767C108.21 29.612 109.497 29.2841 111.04 28.891C110.405 26.096 109.786 23.3702 109.109 20.3884C113.741 19.563 118.221 18.7647 122.857 17.9384C123.71 25.184 124.531 32.1602 125.308 38.7646C116.634 41.0267 108.06 43.2626 99.1917 45.5754C94.4882 34.2417 89.5758 22.4048 84.5568 10.311C117.583 -2.76702 150.743 -3.37949 184.421 8.33176C179.908 20.5647 175.477 32.5744 171.203 44.1605C162.315 42.2142 153.66 40.319 144.84 38.3877C145.345 31.8445 145.885 24.8512 146.452 17.4977C151.13 18.1314 155.627 18.7406 160.307 19.3744C159.738 22.367 159.224 25.0678 158.679 27.934C160.078 28.2538 161.378 28.5508 162.971 28.9148C163.974 24.7754 164.967 20.6758 166.022 16.3203C158.124 14.3183 150.195 13.2577 141.821 12.9717C141.433 23.0413 141.049 32.9992 140.657 43.1478C162.304 44.2121 181.373 51.645 198.018 65.5682C204.558 57.9224 211.015 50.3735 217.612 42.6611C211.496 37.3036 204.897 32.78 197.67 28.6728C195.544 32.4319 193.467 36.1051 191.28 39.9722C192.551 40.7184 193.744 41.4186 195.082 42.2039C196.595 39.7809 198.053 37.446 199.712 34.7893C203.573 37.4843 207.345 40.1169 211.215 42.8182C206.687 48.5492 202.336 54.0543 198.179 59.3153C190.44 54.7588 182.812 50.2677 174.898 45.6084C179.604 34.2511 184.504 22.4244 189.507 10.3511C222.175 24.4743 246.032 47.4456 261.494 79.5415C249.67 85.0043 238.047 90.3745 226.836 95.5539C221.954 87.9541 217.19 80.5379 212.226 72.8103C217.125 68.6144 222.488 64.022 228.175 59.1519C231.02 62.895 233.792 66.5429 236.656 70.3118C234.108 72.0407 231.832 73.5847 229.436 75.21ZM197.287 255.357C224.485 241.04 244.506 220.219 257.649 192.585C248.35 188.292 239.301 184.115 230.442 180.025C226.964 185.95 223.614 191.657 220.206 197.463C223.523 199.872 226.941 202.354 230.459 204.909C231.382 203.573 232.174 202.427 233.053 201.156C230.615 199.51 228.298 197.944 226.02 196.405C228.222 192.668 230.274 189.187 232.372 185.625C238.767 188.887 245.069 192.103 251.4 195.333C245.92 205.885 239.353 215.453 231.282 224.114C221.751 215.298 212.33 206.583 202.888 197.848C218.436 180.538 226.397 160.341 226.712 137.206H265.402C265.266 148.999 263.816 160.453 260.567 171.789C253.674 169.848 246.926 167.947 240.068 166.015C240.963 161.892 241.831 157.894 242.711 153.842C245.535 154.245 248.301 154.64 251.169 155.049C251.365 153.365 251.525 151.998 251.699 150.503C247.264 150.005 243.075 149.534 239.142 149.093C237.67 155.825 236.268 162.232 234.827 168.821C244.165 171.853 253.64 174.929 263.083 177.995C272.462 158.884 271.426 108.247 261.36 91.068C252.025 94.5159 242.674 97.9701 233.505 101.357C235.229 107.969 236.895 114.365 238.606 120.928C242.655 120.293 246.775 119.648 251.11 118.968C250.834 117.383 250.588 115.972 250.325 114.46C247.376 115.003 244.677 115.5 241.983 115.996C240.907 111.871 239.888 107.963 238.841 103.948C245.577 101.762 252.241 99.6004 259.102 97.3744C262.809 108.619 264.746 119.994 265.256 131.907C252.346 132.405 239.54 132.899 226.646 133.396C225.388 110.09 216.623 90.3041 200.659 73.8158C209.772 64.7167 218.858 55.6434 228.053 46.4623C236.184 54.6571 243.213 63.8798 249.001 74.2248C242.692 77.7595 236.529 81.2125 230.382 84.6565C228.046 81.0196 225.859 77.6148 223.628 74.1391C225.925 72.4411 228.147 70.7982 230.471 69.0809C229.501 67.8282 228.611 66.6774 227.684 65.4799C224.249 68.1914 220.964 70.7838 217.78 73.2969C221.44 79.0099 225.035 84.6221 228.691 90.329C237.514 85.8208 246.389 81.2865 255.251 76.7584C244.681 53.2283 212.037 21.9525 192.479 16.6012C188.312 25.6263 184.132 34.6773 180.034 43.554C185.948 47.0234 191.659 50.3742 197.475 53.7864C199.877 50.4803 202.365 47.0549 204.918 43.5409C203.611 42.6338 202.457 41.832 201.191 40.953C199.546 43.3586 197.96 45.6783 196.386 47.9806C192.721 45.7998 189.206 43.7082 185.645 41.5897C187.308 38.3314 188.89 35.2294 190.474 32.1289C192.081 28.9857 193.69 25.8439 195.292 22.712C203.298 26.1317 220.715 38.4069 223.936 42.9109C215.28 52.2678 206.609 61.6423 197.853 71.1079C180.512 55.5217 160.292 47.6204 137.175 47.2571V8.6854C148.999 8.61226 160.434 10.2311 171.8 13.4212C169.825 20.4193 167.909 27.2126 166.009 33.9492C161.838 33.0293 157.895 32.1596 153.845 31.2664C154.265 28.4194 154.665 25.7099 155.084 22.8698C153.508 22.6646 152.128 22.485 150.534 22.2775C150.022 26.6679 149.534 30.8563 149.067 34.859C155.765 36.3171 162.225 37.7234 168.835 39.1625C171.883 29.7773 174.96 20.3039 178.092 10.6609C148.748 1.52196 119.879 2.06405 90.9864 12.3892C94.544 22.0153 97.9942 31.3507 101.369 40.4825C108.078 38.7426 114.47 37.0851 120.95 35.4045C120.302 31.3158 119.648 27.1938 118.963 22.8777C117.395 23.1648 115.979 23.4238 114.449 23.7038C115.001 26.6089 115.513 29.31 116.026 32.0086C111.951 33.0728 108.041 34.094 103.965 35.1583C101.765 28.3913 99.5839 21.6834 97.3683 14.8697C108.691 11.2047 120.106 9.21425 131.912 8.7408C132.414 21.7474 132.905 34.495 133.402 47.3688C110.035 48.5678 90.2237 57.4455 73.8065 73.3397C64.6644 64.2182 55.5739 55.1482 46.4072 46.0021C54.6626 37.8366 63.8726 30.7741 74.2292 24.9939C77.7669 31.3064 81.2201 37.4682 84.6704 43.625C81.0959 45.9158 77.6884 48.0996 74.1583 50.3619C72.4684 48.0926 70.7941 45.8444 69.0654 43.5233C67.7778 44.5352 66.6813 45.3969 65.4927 46.331C68.2329 49.7939 70.8546 53.1072 73.3108 56.2113C79.0914 52.5095 84.6693 48.9376 90.3427 45.3044C85.859 36.5315 81.3198 27.6499 76.7832 18.7733C51.6836 31.0155 28.1679 54.8154 16.5215 81.4772C25.6109 85.6739 34.7031 89.8721 43.5501 93.957C47.0484 88.0111 50.4005 82.3138 53.8071 76.5239C50.4589 74.0975 47.0425 71.6218 43.5368 69.0813C42.6035 70.4393 41.8151 71.5863 40.9603 72.83C43.3848 74.4747 45.6658 76.0219 47.9736 77.5874C45.8285 81.2379 43.7528 84.7702 41.6407 88.3647C35.2806 85.1201 28.9937 81.9129 22.6122 78.6574C28.0825 68.0446 34.6569 58.554 42.7217 49.8775C52.2611 58.7021 61.6675 67.4039 71.1181 76.1465C55.5394 93.484 47.5928 113.676 47.2951 136.76H8.61863C8.71078 124.97 10.2215 113.526 13.429 102.193C20.3689 104.154 27.1614 106.073 33.9451 107.99C33.0166 112.212 32.1497 116.154 31.2679 120.163C28.4532 119.741 25.7321 119.332 22.8751 118.903C22.6585 120.508 22.4725 121.886 22.2603 123.458C26.6672 123.968 30.9105 124.459 34.8626 124.916C36.3341 118.18 37.7346 111.77 39.1774 105.167C29.8431 102.137 20.3671 99.0608 10.6654 95.9116C1.54806 125.233 2.08925 154.11 12.3862 183.021C22.0182 179.458 31.4033 175.986 40.4841 172.626C38.7499 165.94 37.1041 159.594 35.4063 153.048C31.3505 153.696 27.1869 154.361 22.851 155.054C23.1724 156.721 23.444 158.129 23.7178 159.549C26.711 158.984 29.4051 158.475 32.0294 157.98C33.1088 162.142 34.121 166.045 35.1569 170.04C28.3852 172.234 21.7134 174.395 14.8894 176.606C11.1995 165.38 9.24723 154.001 8.75948 142.085C21.6632 141.582 34.4671 141.083 47.3848 140.58C47.9145 152.023 50.3767 162.779 54.8935 173.05C59.4044 183.307 65.7091 192.357 73.3339 200.142C64.1477 209.343 55.1205 218.385 45.9777 227.543C37.8157 219.335 30.7872 210.12 25.0172 199.759C31.3369 196.218 37.458 192.788 43.6176 189.337C45.9245 192.918 48.1473 196.368 50.3953 199.858C48.1336 201.517 45.8993 203.156 43.5406 204.886C44.4779 206.116 45.3619 207.278 46.3083 208.52C49.7483 205.801 53.0664 203.179 56.2218 200.685C52.5222 194.909 48.9551 189.341 45.3157 183.66C36.504 188.161 27.6215 192.697 18.6308 197.289C32.9505 224.421 53.7102 244.46 81.4171 257.627C85.6912 248.368 89.8678 239.32 93.9642 230.445C88.0718 226.98 82.3662 223.625 76.5369 220.197C74.1237 223.513 71.6351 226.933 69.0938 230.425C70.3945 231.352 71.5406 232.169 72.8221 233.082C74.4748 230.649 76.0582 228.319 77.621 226.019C81.2578 228.17 84.7844 230.256 88.3702 232.377C85.1236 238.731 81.9284 244.985 78.6621 251.378C68.088 245.943 58.552 239.343 49.8868 231.268C58.7237 221.719 67.4296 212.312 76.1591 202.878C93.5573 218.497 113.727 226.357 136.882 226.731V265.296C125.1 265.393 113.68 263.759 102.209 260.581C104.166 253.618 106.076 246.821 107.981 240.044C112.147 240.959 116.155 241.84 120.159 242.72C119.739 245.592 119.343 248.304 118.927 251.153C120.558 251.342 121.942 251.503 123.486 251.682C123.99 247.277 124.47 243.089 124.922 239.135C118.192 237.662 111.786 236.259 105.175 234.811C102.144 244.156 99.055 253.677 95.9174 263.348C125.319 272.44 154.185 271.92 183.015 261.598C179.463 251.978 176.028 242.676 172.643 233.507C166.053 235.217 159.654 236.878 153.07 238.587C153.701 242.604 154.356 246.778 155.041 251.144C156.643 250.833 158.047 250.56 159.543 250.269C158.984 247.31 158.476 244.62 157.976 241.978C162.078 240.907 165.99 239.885 170.044 238.826C172.236 245.582 174.415 252.302 176.63 259.129C165.301 262.77 153.893 264.808 142.077 265.226C141.583 252.223 141.099 239.482 140.611 226.632C163.928 225.37 183.733 216.621 200.174 200.644C209.32 209.764 218.406 218.825 227.578 227.97C219.388 236.178 210.132 243.179 199.764 248.972C196.216 242.647 192.764 236.492 189.329 230.367C192.9 228.078 196.309 225.892 199.856 223.618C201.516 225.861 203.186 228.119 204.916 230.457C206.181 229.482 207.289 228.628 208.515 227.683C205.793 224.232 203.168 220.906 200.699 217.776C194.943 221.455 189.358 225.024 183.658 228.668C188.13 237.425 192.665 246.306 197.287 255.357Z" fill="#FCD37B" fill-opacity="1"/>
<path d="M177.76 197.976C174.066 200.014 170.625 201.912 166.932 203.949C168.348 207.116 169.799 210.362 171.358 213.85C174.211 212.368 176.882 210.981 179.758 209.487C178.625 207.535 177.576 205.73 176.436 203.765C175.153 204.465 173.986 205.102 172.627 205.844C172.941 206.49 173.23 207.084 173.557 207.758C174.269 207.454 174.846 207.208 175.547 206.909C175.851 207.45 176.151 207.984 176.533 208.663C175.196 209.354 173.966 209.99 172.572 210.711C171.625 208.76 170.762 206.981 169.806 205.012C172.238 203.654 174.622 202.322 177.119 200.927C179.036 203.96 180.893 206.898 182.831 209.964C173.898 215.604 164.334 219.377 153.878 221.496C153.015 217.211 152.192 213.121 151.345 208.917C147.247 209.374 143.238 209.822 139.275 210.264V221.096C142.555 220.844 145.547 220.614 148.76 220.367C148.457 218.053 148.186 215.979 147.898 213.782C146.367 213.935 145.042 214.067 143.693 214.202V216.282H145.791C145.876 216.887 145.953 217.432 146.071 218.266C144.62 218.418 143.248 218.562 141.703 218.724C141.559 216.591 141.426 214.616 141.276 212.392C144.005 212.079 146.718 211.768 149.592 211.439C150.197 214.998 150.775 218.409 151.376 221.948C140.976 223.659 130.732 223.561 120.285 221.508C121.099 217.272 121.896 213.13 122.705 208.926C118.711 207.777 114.843 206.664 110.817 205.505C109.567 208.776 108.312 212.063 106.951 215.625C110.019 216.604 112.919 217.53 115.996 218.512C116.587 216.243 117.099 214.272 117.656 212.131C116.265 211.701 114.995 211.307 113.521 210.851C113.271 211.528 113.041 212.149 112.783 212.845C113.519 213.158 114.099 213.404 114.815 213.709C114.666 214.277 114.511 214.865 114.306 215.644C112.874 215.181 111.552 214.753 110.026 214.259C110.743 212.213 111.412 210.303 112.12 208.28C114.838 209.065 117.41 209.809 120.133 210.596C119.352 214.052 118.59 217.428 117.788 220.978C107.452 218.661 98.0273 214.537 89.1549 208.684C91.5421 205.093 93.8886 201.562 96.2635 197.989C93.0397 195.412 89.8837 192.888 86.6157 190.275C84.2153 192.803 81.7856 195.362 79.1794 198.107C81.6007 200.167 83.8925 202.118 86.3743 204.23C87.7424 202.445 89.0137 200.787 90.3993 198.98C89.2644 198.067 88.1882 197.201 87.0337 196.272C86.5368 196.804 86.1084 197.262 85.6195 197.785C86.1628 198.353 86.64 198.852 87.1736 199.41C86.7821 199.881 86.4183 200.319 85.9223 200.916C84.7917 199.979 83.7229 199.093 82.4987 198.078C83.9074 196.475 85.2508 194.945 86.7128 193.281C88.9089 195.032 91.0467 196.736 93.2956 198.529C91.2304 201.437 89.2233 204.262 87.1126 207.233C78.4678 201.148 71.3681 193.771 65.3723 184.922C68.9458 182.512 72.4527 180.148 76.0171 177.744C74.0325 174.154 72.0862 170.633 70.0347 166.921C66.8412 168.343 63.629 169.773 60.1324 171.329C61.6122 174.177 63.0198 176.886 64.5163 179.767C66.5126 178.587 68.3174 177.521 70.2203 176.397C69.5091 175.107 68.8639 173.938 68.1374 172.62C67.4949 172.917 66.9428 173.172 66.2594 173.488C66.5447 174.204 66.7925 174.826 67.0847 175.56C66.5476 175.857 66.0084 176.155 65.3478 176.52C64.6176 175.154 63.9535 173.912 63.2298 172.559C65.1849 171.62 67.0729 170.713 68.9941 169.79C70.3696 172.264 71.6762 174.614 73.0633 177.108C70.0764 178.992 67.1468 180.84 64.0273 182.807C58.3544 173.841 54.612 164.281 52.4898 153.872C56.7472 153.01 60.9011 152.169 65.078 151.323C64.6273 147.235 64.1916 143.284 63.7465 139.246H52.8713C53.1299 142.485 53.3725 145.522 53.6327 148.781C55.8991 148.468 57.914 148.19 60.2187 147.872C60.0643 146.413 59.9193 145.044 59.7568 143.508C59.0028 143.553 58.3958 143.59 57.6836 143.633V145.788C57.0361 145.896 56.4429 145.995 55.6483 146.128C55.5538 144.621 55.4706 143.295 55.3686 141.668C57.5132 141.537 59.5198 141.415 61.6056 141.287C61.9321 144.103 62.2341 146.709 62.5644 149.557C59.1117 150.154 55.7087 150.743 52.3291 151.328C50.233 145.889 50.3926 127.922 52.6274 120.3C56.7407 121.092 60.8828 121.889 65.07 122.695C66.2138 118.714 67.3256 114.844 68.4849 110.808C65.1942 109.55 61.9041 108.291 58.3779 106.943C57.393 109.999 56.4536 112.914 55.4636 115.986C57.6801 116.565 59.662 117.083 61.8916 117.665C62.3047 116.262 62.6935 114.942 63.1238 113.481C62.4343 113.226 61.8551 113.012 61.1433 112.749C60.8772 113.394 60.6414 113.966 60.3229 114.738C59.7992 114.613 59.2178 114.474 58.3803 114.273C58.8407 112.788 59.25 111.468 59.7059 109.998C61.7585 110.713 63.6713 111.38 65.7005 112.087C64.9466 114.753 64.2167 117.334 63.4253 120.132C59.9909 119.35 56.5804 118.572 53.0034 117.757C55.4083 107.384 59.4589 97.9913 65.3181 89.142C68.9412 91.5528 72.4562 93.8919 76.0083 96.2555C78.57 93.0462 81.0894 89.89 83.7197 86.5948C81.2101 84.2161 78.6504 81.7899 75.8937 79.177C73.8261 81.6041 71.8425 83.9327 69.7477 86.3918C71.6012 87.7812 73.2815 89.0408 75.0419 90.3603C75.9712 89.1953 76.8073 88.1472 77.7793 86.9287C77.2831 86.4327 76.8395 85.9891 76.1327 85.2825C75.6221 86.0533 75.2359 86.6364 74.8193 87.2654C74.1716 86.7883 73.7173 86.4536 73.0522 85.9637C73.995 84.815 74.8745 83.7434 75.8871 82.5095C77.5403 83.9548 79.113 85.3297 80.7081 86.7242C78.9171 88.9697 77.2345 91.0792 75.4675 93.2946C72.6197 91.2684 69.7502 89.2268 66.7487 87.0914C72.879 78.4365 80.2827 71.2819 89.0763 65.3537C91.4758 68.9218 93.8398 72.437 96.2435 76.0112C99.8455 74.0176 103.373 72.0653 107.064 70.0227C105.656 66.8696 104.221 63.6558 102.657 60.1532C99.8116 61.6176 97.1003 63.0131 94.2124 64.4994C95.389 66.4832 96.459 68.2873 97.5939 70.2007C98.892 69.4814 100.06 68.834 101.351 68.1187C101.078 67.493 100.832 66.9295 100.527 66.2325C99.8024 66.5096 99.174 66.7498 98.4415 67.0298C98.1554 66.552 97.8697 66.0749 97.4448 65.3653C98.7873 64.651 100.054 63.9773 101.442 63.2386C102.398 65.2413 103.278 67.0842 104.192 69C101.722 70.3642 99.3711 71.6623 96.8817 73.037C94.9752 70.0228 93.1207 67.0908 91.1693 64.0057C100.134 58.3959 109.723 54.5634 120.134 52.4903C121 56.7927 121.835 60.9408 122.665 65.0675C126.825 64.6076 130.787 64.1695 134.724 63.7342V52.8809C131.458 53.1324 128.471 53.3625 125.231 53.612C125.544 55.9434 125.823 58.0174 126.119 60.2215C127.642 60.0552 128.961 59.9112 130.444 59.7492C130.387 59.0243 130.339 58.4142 130.284 57.7054H128.18C128.099 57.0664 128.028 56.5171 127.927 55.7289C129.391 55.5628 130.754 55.4081 132.278 55.2351C132.44 57.4106 132.587 59.3837 132.751 61.5858C129.996 61.9075 127.343 62.2173 124.428 62.5576C123.834 59.1003 123.242 55.6474 122.618 52.0139C133.047 50.3642 143.286 50.4784 153.737 52.4462C152.905 56.7339 152.1 60.8852 151.293 65.04C155.253 66.1867 159.077 67.2944 163.169 68.4794C164.407 65.2642 165.669 61.9901 167.056 58.3893C164.053 57.4154 161.156 56.4759 158.03 55.4624C157.44 57.6635 156.912 59.6346 156.32 61.8405C157.697 62.2656 159.012 62.6718 160.517 63.1368C160.757 62.3977 160.963 61.7627 161.184 61.0835C160.488 60.7989 159.957 60.5816 159.267 60.2989C159.382 59.7407 159.502 59.1615 159.673 58.3353C161.124 58.7967 162.437 59.2141 163.971 59.702C163.262 61.7572 162.599 63.6805 161.897 65.7157C159.257 64.9459 156.692 64.1976 153.884 63.3784C154.645 59.9713 155.398 56.6046 156.202 53.0074C166.524 55.3085 175.925 59.4376 184.852 65.2888C182.477 68.8605 180.137 72.3806 177.739 75.987C180.905 78.5244 184.05 81.045 187.406 83.7346C189.783 81.21 192.231 78.6103 194.824 75.8562C192.409 73.8139 190.108 71.8676 187.619 69.7628C186.243 71.5581 184.97 73.2194 183.607 74.9986C184.747 75.9179 185.831 76.7922 187.008 77.7415C187.48 77.2019 187.889 76.7333 188.515 76.0176C187.937 75.6293 187.415 75.2789 186.796 74.8628C187.224 74.196 187.554 73.6809 188.007 72.9746C189.198 73.9821 190.302 74.9164 191.508 75.9367C190.044 77.5724 188.718 79.0546 187.267 80.6761C185.059 78.9207 182.921 77.2201 180.699 75.4528C182.774 72.5362 184.783 69.7133 186.894 66.7475C195.554 72.8463 202.677 80.2629 208.643 89.0686C204.966 91.5417 201.457 93.9018 197.973 96.2455C199.974 99.848 201.908 103.328 203.973 107.044C207.16 105.624 210.412 104.174 213.851 102.641C212.387 99.7994 211.009 97.126 209.507 94.2127C207.528 95.3695 205.727 96.4221 203.781 97.5597C204.506 98.8755 205.174 100.09 205.906 101.419C206.56 101.074 207.113 100.782 207.764 100.438C207.508 99.7989 207.276 99.2184 206.984 98.4896C207.482 98.1857 208.001 97.8693 208.684 97.4524C209.389 98.8162 210.028 100.051 210.731 101.41C208.777 102.365 206.932 103.267 205.025 104.199C203.681 101.796 202.363 99.4395 200.929 96.8757C203.874 95.0173 206.841 93.1449 209.963 91.1748C215.642 100.125 219.406 109.671 221.49 120.104C217.203 120.975 213.053 121.818 208.915 122.659C209.372 126.749 209.815 130.708 210.267 134.756H221.149C220.877 131.493 220.625 128.456 220.355 125.209C218.08 125.516 216.065 125.787 213.759 126.098C213.923 127.534 214.08 128.901 214.249 130.377H216.277C216.341 129.666 216.395 129.052 216.467 128.247C216.993 128.131 217.578 128.003 218.354 127.832C218.453 129.367 218.538 130.7 218.644 132.345C216.527 132.453 214.506 132.555 212.375 132.663C212.063 129.885 211.763 127.224 211.445 124.401C214.899 123.824 218.306 123.254 221.938 122.646C223.711 133.084 223.542 143.307 221.522 153.723C217.246 152.895 213.106 152.093 208.925 151.284C207.795 155.24 206.701 159.07 205.532 163.164C208.736 164.399 212.062 165.682 215.628 167.057C216.621 163.978 217.56 161.064 218.553 157.984C216.26 157.406 214.227 156.894 212.081 156.354C211.662 157.833 211.299 159.116 210.904 160.507C211.609 160.755 212.19 160.959 212.876 161.2C213.161 160.517 213.401 159.941 213.708 159.206C214.314 159.372 214.905 159.533 215.623 159.729C215.165 161.16 214.743 162.481 214.269 163.963C212.203 163.244 210.282 162.575 208.282 161.879C209.059 159.184 209.803 156.603 210.598 153.848C213.986 154.622 217.348 155.389 220.956 156.213C218.682 166.587 214.534 175.98 208.688 184.841C205.065 182.427 201.548 180.085 198.001 177.723C195.414 180.946 192.883 184.097 190.245 187.383C192.78 189.767 195.348 192.183 198.133 194.803C200.176 192.394 202.153 190.064 204.254 187.587C202.395 186.19 200.72 184.931 198.968 183.615C198.027 184.779 197.185 185.823 196.275 186.949C196.782 187.423 197.237 187.848 197.785 188.36C198.321 187.856 198.814 187.391 199.385 186.853C199.893 187.236 200.393 187.613 200.976 188.052C199.986 189.234 199.084 190.311 198.087 191.502C196.5 190.098 194.973 188.746 193.311 187.274C195.038 185.1 196.709 182.998 198.535 180.7C201.415 182.742 204.282 184.774 207.264 186.889C201.096 195.533 193.704 202.705 184.92 208.626C182.488 205.008 180.125 201.494 177.76 197.976ZM205.741 88.2408C202.612 84.5353 199.665 81.0443 196.489 77.2826C193.258 80.568 190.249 83.6267 187.202 86.7255C180.988 80.532 173.985 75.7691 166.063 72.1107C167.579 68.7654 169.024 65.5778 170.535 62.2437C173.345 63.7003 175.95 65.0502 178.608 66.4275C177.384 68.4738 176.331 70.2344 175.266 72.0147C174.041 71.3115 172.931 70.674 171.688 69.96C172.037 69.3325 172.332 68.8048 172.626 68.2775C173.351 68.5578 173.924 68.7791 174.587 69.035C174.921 68.3746 175.196 67.8291 175.537 67.1545C174.152 66.4546 172.918 65.8311 171.55 65.1398C170.572 67.2045 169.681 69.0867 168.781 70.9857C171.291 72.3741 173.588 73.6447 175.989 74.9727C177.915 71.9131 179.791 68.9327 181.86 65.6468C177.597 63.4337 173.512 61.3132 169.256 59.1035C167.456 63.372 165.793 67.3158 164.112 71.3014C155.981 67.9192 147.678 66.3047 139.299 65.8989V55.1205C142.419 55.3914 145.318 55.6431 148.413 55.9119C148.051 58.2846 147.745 60.2816 147.439 62.2899C145.977 62.1048 144.779 61.9529 143.487 61.7892C143.532 61.1173 143.569 60.5622 143.61 59.955C144.34 59.9151 144.963 59.881 145.715 59.8398C145.77 59.1444 145.819 58.533 145.879 57.769C144.367 57.6215 142.993 57.4875 141.363 57.3285V63.9271C143.968 64.2086 146.571 64.4898 149.327 64.7875C149.926 61.1721 150.5 57.7021 151.138 53.8482C146.3 53.4785 141.725 53.1289 136.94 52.7632V65.8636C128.199 65.9753 119.874 67.506 111.685 70.5521C110.384 67.1269 109.141 63.8532 107.834 60.4121C110.801 59.4825 113.545 58.6231 116.481 57.7036C117.051 59.909 117.558 61.868 118.092 63.9305C116.68 64.3417 115.469 64.6943 114.177 65.0707C113.955 64.3939 113.781 63.862 113.592 63.2855C114.288 62.9424 114.894 62.644 115.553 62.3196C115.303 61.6092 115.098 61.0292 114.852 60.3302C113.39 60.8211 112.071 61.2637 110.621 61.7504C111.388 63.884 112.094 65.8472 112.817 67.8587C115.563 67.0558 118.081 66.3195 120.732 65.5443C119.921 61.993 119.137 58.5619 118.277 54.7962C113.667 56.2692 109.281 57.6704 104.732 59.124C106.469 63.3556 108.074 67.2661 109.742 71.3299C101.716 74.7346 94.6271 79.3679 88.2146 85.3192C85.7464 82.7082 83.3267 80.1484 80.7476 77.4201C83.1396 75.4154 85.3813 73.5368 87.7236 71.5738C89.1442 73.4682 90.3664 75.0979 91.6216 76.7718C90.4641 77.6791 89.4575 78.4681 88.359 79.3292C87.9044 78.729 87.5351 78.2414 87.1466 77.7284C87.6676 77.2322 88.0823 76.8373 88.5904 76.3534C88.1726 75.8004 87.7662 75.2624 87.2851 74.6257C86.0738 75.6488 85.0005 76.5555 83.8472 77.5297C85.3598 79.2209 86.7701 80.7978 88.194 82.3898C90.3916 80.6291 92.4908 78.9473 94.6395 77.2258C92.5199 74.2521 90.4678 71.3734 88.2393 68.2471C84.575 71.3559 81.0512 74.3454 77.1694 77.6386C80.5165 80.8126 83.5977 83.7345 86.7708 86.7434C80.5527 92.9955 75.7823 100.051 72.0848 107.913C68.694 106.384 65.5529 104.967 62.2425 103.473C63.6881 100.683 65.013 98.1262 66.4197 95.4114C68.3793 96.5682 70.1293 97.6013 71.9959 98.7032C71.2798 100.008 70.6528 101.151 69.991 102.357C69.2915 101.946 68.8028 101.659 68.2592 101.339C68.5502 100.696 68.8068 100.129 69.0916 99.4997C68.4638 99.1241 67.9237 98.8009 67.2102 98.374C66.509 99.742 65.85 101.027 65.1267 102.438C67.2149 103.423 69.1049 104.315 71.0101 105.214C72.3809 102.725 73.6471 100.425 74.9798 98.0051C71.9222 96.0787 68.9379 94.1984 65.6614 92.134C63.4625 96.3614 61.3352 100.451 59.1072 104.735C63.3238 106.502 67.2296 108.139 71.2818 109.837C68.054 117.894 66.242 126.158 65.9561 134.6H55.1294C55.4084 131.439 55.6617 128.57 55.923 125.611C58.1256 125.921 60.0889 126.197 62.2587 126.502C62.096 127.95 61.9506 129.243 61.7935 130.641C60.9719 130.517 60.4244 130.435 59.8381 130.347V128.286C59.1348 128.222 58.5217 128.165 57.7005 128.09C57.6143 129.623 57.5365 131.006 57.4455 132.623H63.9195C64.2134 129.959 64.5005 127.357 64.7982 124.659C61.1345 124.053 57.6725 123.48 53.8984 122.856C53.4922 127.702 53.1078 132.288 52.7031 137.115H65.9763C65.8856 145.896 67.6239 154.171 70.5213 162.321C67.0792 163.629 63.8557 164.855 60.4306 166.156C59.4774 163.154 58.6057 160.408 57.6849 157.507C59.8492 156.954 61.823 156.45 63.9319 155.911C64.3249 157.25 64.6823 158.469 65.0778 159.817C64.3807 160.042 63.8102 160.227 63.231 160.414C62.9134 159.684 62.6656 159.115 62.3654 158.425C61.6721 158.672 61.0938 158.879 60.3709 159.136C60.8435 160.588 61.2718 161.903 61.746 163.36C63.9403 162.589 65.9126 161.896 67.8841 161.203C67.0758 158.435 66.3425 155.923 65.5665 153.265C62.0012 154.076 58.58 154.855 54.7912 155.717C56.2771 160.339 57.683 164.713 59.144 169.257C63.4338 167.504 67.3435 165.906 71.3583 164.264C74.7315 172.329 79.4328 179.382 85.3041 185.778C82.666 188.284 80.116 190.707 77.4225 193.267C75.382 190.824 73.5066 188.579 71.5716 186.263C73.4392 184.862 75.0317 183.667 76.7515 182.377C77.631 183.475 78.4562 184.505 79.3241 185.588C78.7476 186.077 78.3146 186.444 77.8487 186.839C77.2985 186.339 76.7943 185.88 76.246 185.381C75.7106 185.871 75.2541 186.289 74.6958 186.799C75.7047 187.941 76.6222 188.98 77.6195 190.109C79.29 188.607 80.8137 187.236 82.3956 185.814C80.65 183.628 78.9772 181.534 77.2399 179.358C74.2518 181.487 71.383 183.53 68.266 185.75C71.392 189.444 74.3682 192.96 77.599 196.777C80.8088 193.439 83.747 190.384 86.779 187.231C93.054 193.476 100.109 198.262 107.939 201.884C106.416 205.262 104.99 208.426 103.492 211.748C100.752 210.327 98.1494 208.977 95.4222 207.563C96.5926 205.586 97.6361 203.822 98.7276 201.978C99.9629 202.681 101.073 203.312 102.309 204.014C101.947 204.656 101.654 205.177 101.365 205.692C100.652 205.394 100.123 205.174 99.4628 204.898C99.1222 205.52 98.8037 206.102 98.4104 206.82C99.8485 207.551 101.083 208.179 102.423 208.86C103.414 206.793 104.317 204.911 105.246 202.974C102.752 201.608 100.448 200.346 98.0174 199.015C96.0885 202.075 94.2096 205.056 92.1428 208.334C96.4093 210.547 100.495 212.666 104.75 214.873C106.543 210.602 108.205 206.645 109.877 202.662C117.972 206.076 126.295 207.651 134.671 208.092V218.831C131.517 218.578 128.658 218.348 125.635 218.106C125.963 215.776 126.246 213.764 126.533 211.722C127.959 211.87 129.162 211.995 130.518 212.136C130.452 212.854 130.397 213.456 130.345 214.023C129.549 214.073 128.931 214.112 128.213 214.158V216.246C129.684 216.383 131.057 216.512 132.552 216.651C132.684 214.318 132.799 212.283 132.922 210.094C130.115 209.793 127.458 209.508 124.676 209.21C124.066 212.856 123.486 216.316 122.849 220.122C127.726 220.504 132.297 220.863 137.074 221.238V208.109C145.809 207.986 154.141 206.507 162.316 203.41C163.599 206.803 164.839 210.084 166.148 213.547C163.186 214.491 160.407 215.377 157.512 216.3C156.938 214.046 156.436 212.076 155.917 210.039C157.344 209.63 158.565 209.28 159.86 208.909C160.054 209.579 160.211 210.121 160.389 210.74C159.739 211.034 159.172 211.29 158.513 211.588C158.679 212.232 158.835 212.835 159.051 213.675C160.56 213.175 161.923 212.724 163.382 212.241C162.613 210.076 161.929 208.149 161.213 206.134C158.495 206.916 155.926 207.655 153.256 208.424C154.079 211.999 154.87 215.431 155.738 219.2C160.345 217.72 164.728 216.313 169.28 214.851C167.53 210.595 165.925 206.695 164.256 202.639C172.35 199.22 179.431 194.591 185.771 188.654C188.272 191.291 190.694 193.845 193.252 196.543C190.846 198.585 188.643 200.455 186.308 202.437C184.963 200.657 183.699 198.984 182.374 197.231C183.547 196.302 184.541 195.514 185.624 194.656C186.103 195.257 186.488 195.741 187.019 196.407C186.38 196.831 185.85 197.183 185.287 197.556C185.877 198.267 186.274 198.744 186.75 199.318C187.931 198.316 188.998 197.412 190.147 196.438C188.625 194.733 187.22 193.16 185.797 191.568C183.588 193.358 181.51 195.041 179.364 196.78C181.504 199.767 183.551 202.625 185.779 205.735C189.483 202.587 192.991 199.606 196.883 196.298C193.498 193.042 190.447 190.108 187.327 187.107C193.495 180.956 198.235 173.932 201.9 166.052C205.245 167.571 208.434 169.019 211.775 170.537C210.287 173.378 208.952 175.927 207.565 178.576C205.572 177.393 203.822 176.354 201.985 175.262C202.72 173.98 203.376 172.837 204.067 171.632C204.726 172.034 205.208 172.328 205.741 172.653C205.451 173.298 205.195 173.868 204.893 174.539C205.569 174.887 206.164 175.193 206.841 175.542C207.556 174.132 208.183 172.897 208.858 171.566C206.786 170.577 204.945 169.699 203.007 168.775C201.638 171.249 200.346 173.585 199.02 175.982C202.118 177.93 205.098 179.804 208.353 181.851C210.567 177.571 212.684 173.478 214.882 169.227C210.618 167.445 206.712 165.812 202.695 164.133C206.015 156.04 207.74 147.751 208.05 139.304H218.888C218.606 142.491 218.348 145.408 218.086 148.368C215.84 148.06 213.875 147.791 211.703 147.493C211.879 146.097 212.045 144.792 212.224 143.377C212.929 143.476 213.48 143.553 214.08 143.637C214.119 144.364 214.152 144.986 214.191 145.703C214.876 145.777 215.49 145.843 216.294 145.929C216.385 144.375 216.466 142.999 216.556 141.446C214.29 141.309 212.21 141.183 210.115 141.056C209.792 143.955 209.502 146.561 209.196 149.308C212.771 149.907 216.237 150.489 220.088 151.135C220.498 146.333 220.889 141.75 221.304 136.883H208.055C208.067 128.072 206.408 119.781 203.478 111.66C206.935 110.345 210.157 109.119 213.564 107.822C214.519 110.835 215.389 113.578 216.306 116.471C214.107 117.034 212.132 117.539 210.056 118.071C209.661 116.704 209.31 115.488 208.914 114.114C209.662 113.919 210.241 113.768 210.812 113.619C211.098 114.302 211.316 114.826 211.602 115.51C212.3 115.288 212.928 115.089 213.672 114.853C213.159 113.343 212.715 112.037 212.237 110.63C210.072 111.394 208.147 112.074 206.136 112.784C206.923 115.5 207.667 118.066 208.437 120.724C211.986 119.914 215.366 119.143 219.195 118.27C217.731 113.689 216.318 109.272 214.86 104.711C210.537 106.493 206.634 108.101 202.644 109.745C199.282 101.619 194.544 94.5985 188.672 88.1724C191.346 85.6562 193.901 83.2513 196.58 80.7299C198.595 83.1361 200.45 85.3509 202.414 87.6975C200.612 89.0613 198.984 90.2933 197.27 91.5903C196.357 90.471 195.55 89.4811 194.683 88.4175C195.192 87.9542 195.651 87.5353 196.434 86.8224C196.827 87.4986 197.179 88.105 197.567 88.7717C198.289 88.1398 198.757 87.7301 199.334 87.2257C198.335 86.0697 197.425 85.0154 196.431 83.864C194.734 85.3845 193.174 86.7823 191.609 88.1857C193.387 90.4084 195.028 92.46 196.76 94.6243C199.705 92.5307 202.578 90.4889 205.741 88.2408Z" fill="#FCD37B" fill-opacity="1"/>
</svg>
